<svg width="90" height="90" viewBox="0 0 90 90" fill="none" xmlns="http://www.w3.org/2000/svg">
<path d="M89.9958 54.1135C90.0349 54.6838 89.5661 55.1682 88.9919 55.1721L76.5229 55.2698C76.605 55.1643 76.6909 55.0589 76.7729 54.9534C77.2221 54.3792 77.6675 53.805 78.1167 53.262C78.4331 52.8753 78.7652 52.5003 79.0894 52.1253C80.4097 50.6097 81.7769 49.0433 82.5738 46.887C83.8941 43.3128 83.2769 39.3597 81.8238 36.141C86.484 40.9848 89.5347 47.407 89.9918 54.114L89.9958 54.1135ZM18.9528 69.5935C18.9528 69.5935 18.5778 69.0584 18.5075 68.9568C17.5231 67.5545 16.7341 65.8045 16.2966 64.1443C15.8474 62.449 15.7302 60.7615 15.1286 59.0857C14.3435 56.8904 12.9567 55.031 12.32 52.738C10.8825 47.5622 12.1872 42.66 16.1325 39.047C16.5544 38.6603 17.0231 38.3322 17.4528 37.9532C17.3122 37.004 17.0895 36.0665 16.9763 35.1094C16.363 29.8321 17.1442 24.5704 19.9724 20.0354C20.1013 19.8284 20.7067 19.0393 20.7145 18.887C20.7184 18.8206 20.7067 18.8362 20.6599 18.8167C20.5505 18.7659 19.7966 18.887 19.613 18.9144C14.5583 19.6526 9.82385 22.2113 7.69495 27.0316C6.37855 30.016 6.80042 33.1996 6.33165 36.348C5.88243 39.3636 4.69885 41.5199 2.99575 43.9769C2.48794 44.7073 1.09735 46.2777 0.261353 47.2035C-0.101927 47.6058 -0.0823966 48.2191 0.312134 48.598C1.05041 49.3089 2.14803 50.3949 2.51523 50.8988C3.60503 52.3988 4.55823 53.8441 5.20273 55.598C5.88632 57.4574 6.09335 59.473 6.83943 61.3089C8.80033 66.1292 13.3042 68.9144 18.3704 69.5355C18.4681 69.5472 18.9603 69.5862 18.9603 69.5862L18.9528 69.5935ZM28.3005 15.2775C25.945 17.4455 23.7653 18.922 22.0505 21.758C17.6716 29.0041 19.5544 40.055 23.6755 47.047C23.7146 47.1095 24.0349 47.7189 24.1247 47.6213C23.9451 42.6252 25.5895 37.6916 27.8864 33.3323C29.2926 30.6643 31.0114 28.055 32.9216 25.719C33.6599 24.8127 35.4333 22.637 36.4411 22.2112C37.6794 21.6838 38.8161 22.5002 39.7497 23.2268C39.7927 23.2502 39.8357 23.258 39.8787 23.2424C39.9529 23.2189 40.7029 22.2033 40.8513 22.0432C43.781 18.7932 48.7341 17.6213 52.7463 19.508C55.3986 20.7541 57.3127 23.3439 57.6994 26.2619C60.715 25.4611 61.1174 28.6642 61.3517 30.8205C61.8595 35.5119 61.4455 40.7189 60.3283 45.2975C60.1018 46.2272 59.8088 47.1373 59.5861 48.067C59.676 48.1842 61.6681 46.3482 61.8166 46.2037C66.6838 41.5162 69.7854 34.1137 68.3244 27.3017C67.0666 21.4384 63.0822 19.4423 57.5154 18.7587C57.117 18.7118 56.4646 18.7743 56.1912 18.4345C56.0389 18.247 55.8397 17.7352 55.6951 17.4852C55.2693 16.7626 54.6717 15.9774 54.0662 15.3993C52.5389 13.9384 50.66 13.1415 48.5896 12.786C47.2185 12.5517 45.9177 12.6025 44.5466 12.4931C42.6325 12.3368 40.7849 11.8642 38.9646 11.29C36.4529 10.497 34.7107 9.34077 32.3591 11.3095C30.9607 12.4814 29.6677 14.0283 28.3044 15.2861L28.3005 15.2775ZM35.1638 27.2655L35.0232 27.3085C31.4294 32.0624 28.1091 37.5035 27.1052 43.4805C26.4958 47.1016 26.7849 52.0703 29.7419 54.6325C32.445 56.9684 36.1052 58.4919 39.4919 59.5387C40.5935 59.8785 41.7185 60.1989 42.8435 60.4293C43.9255 58.9293 45.1755 57.5699 46.5857 56.3785C49.449 53.9605 52.7693 52.2926 55.9919 50.4254C56.0036 49.5622 55.7458 48.6949 55.4177 47.9059C53.1286 42.4215 47.6521 41.8825 43.0427 39.277C40.6404 37.9176 38.5075 35.9645 37.0935 33.5817C35.9685 31.6833 35.2146 29.484 35.1599 27.2653L35.1638 27.2655ZM76.1838 56.7385C75.4455 57.6956 74.676 58.6213 73.7932 59.4494C70.0784 62.9299 65.0432 64.4338 60.0392 64.8478L56.7306 64.9728C55.1017 70.09 50.6447 73.6056 45.7226 75.3438C43.0585 76.2852 40.3632 76.7344 37.5507 76.9727C37.1562 77.0079 36.8476 77.0352 36.3593 77.0821C36.3906 77.3438 37.0156 78.2774 37.1718 78.4766C39.5585 81.5664 43.8515 83.4297 47.6718 83.8399C50.5351 84.1446 53.3007 83.6524 56.1796 84.086C57.1484 84.2344 58.7655 84.7891 59.6523 84.5743C60.9961 84.2462 61.5156 82.9454 62.2031 81.9063C63.1055 80.5469 64.0429 79.1758 65.2148 78.0313C66.5273 76.754 68.125 75.7461 69.7968 75.004C70.9491 74.4923 72.1757 74.1563 73.2968 73.5665C79.2577 70.4337 79.4648 63.5005 76.8788 57.9645C76.8085 57.8121 76.2538 56.734 76.1835 56.734L76.1838 56.7385ZM53.7348 65.2502C53.77 65.1565 53.8794 64.8909 53.77 64.8557C51.0044 64.6643 48.2427 64.3205 45.5239 63.7854C38.3247 62.3674 31.1259 60.1956 25.9849 54.7112C23.2076 51.7464 21.0005 48.176 19.4146 44.4342C18.9263 43.2819 18.5669 42.0748 18.1177 40.9147C16.8443 41.9811 15.7818 43.4459 15.1763 45.0006C14.3208 47.2037 14.2505 49.524 14.856 51.8053C15.395 53.8326 16.5826 55.5592 17.3794 57.4733C18.6411 60.4889 18.4536 63.5749 20.1021 66.4772C24.8638 74.86 36.4771 75.7624 44.7781 72.8405C48.2898 71.6061 52.3953 68.8913 53.7312 65.2507L53.7348 65.2502ZM72.4108 57.0432C73.8796 55.5237 75.2077 53.6291 76.567 51.9807C78.0904 50.133 79.8404 48.4963 80.692 46.1877C82.1608 42.2111 80.7858 37.2775 78.2506 34.0317C76.5162 31.809 74.0748 30.227 71.3444 29.5122C71.5124 33.852 70.5163 38.1645 68.4186 41.9462C65.903 46.4853 62.3952 49.7314 57.9846 52.3912C54.0901 54.7389 49.2073 56.8521 46.2656 60.4303C46.1953 60.5163 45.7266 61.0788 45.8047 61.153C47.8672 61.4733 49.9297 61.8405 52.0078 62.0358C58.9062 62.6842 67.3008 62.321 72.4098 57.0397L72.4108 57.0432ZM48.3518 10.0432C52.3557 10.5315 56.012 12.5979 57.9846 16.1721C61.051 16.4417 63.9924 17.2776 66.4455 19.176C68.84 21.0315 70.2736 23.7268 70.9885 26.6408C74.9533 27.5119 78.5549 29.7306 80.8791 33.0744C80.9221 33.1291 80.9807 33.2385 80.9807 33.2385C80.9807 33.2385 81.1369 32.7971 81.1604 32.719C81.3127 32.2502 81.4338 31.5862 81.5041 31.094C82.219 26.1487 80.7971 20.512 76.1955 17.942C74.5471 17.0201 73.0314 16.4615 71.551 15.1998C69.1487 13.1529 68.4455 10.9615 67.1291 8.25837C65.8244 5.58257 63.7932 6.75447 61.4533 6.98887C58.0549 7.32871 56.0431 6.62168 52.8908 5.79747C48.8908 4.75057 44.9299 5.66856 41.8598 8.43807C41.7622 8.524 41.1919 9.13729 41.1919 9.13729C41.1919 9.13729 42.684 9.55135 43.3988 9.66854C45.0433 9.94588 46.7113 9.84823 48.3597 10.0474L48.3518 10.0432ZM33.1878 76.9262C31.598 76.7739 30.0198 76.4614 28.4886 76.0005C25.9613 75.2387 23.6058 73.9849 21.5628 72.3247C20.1956 72.4418 18.8323 72.2973 17.4886 72.0629C17.2894 72.0278 16.5238 71.8832 16.5238 71.8832C16.5238 71.8832 15.434 73.4262 15.2816 73.6957C14.5121 75.059 13.7855 76.6449 13.3519 78.1488C13.2308 78.5707 12.9417 79.2426 13.3988 79.5316C13.8167 79.7973 14.9261 80.1293 15.4457 80.2973C21.1019 82.145 27.5117 83.0239 32.9617 80.0902C33.4617 79.8207 33.9656 79.5277 34.4031 79.1605C34.196 78.7504 33.4226 77.2464 33.2742 77.0043C33.2507 76.9692 33.2351 76.9379 33.1921 76.9262L33.1878 76.9262ZM43.0745 36.1562C43.1292 36.3945 44.1604 36.8359 44.3987 36.9609C48.7112 39.2226 53.7932 40.3007 56.6607 44.5742C56.8795 44.8984 57.0474 45.2578 57.2545 45.5859C57.3443 45.7265 57.3638 45.8476 57.4537 45.6015C57.5904 45.2265 57.7076 44.625 57.7974 44.2187C58.4224 41.4179 58.6881 38.5391 58.813 35.6797C58.813 34.0508 58.7896 32.4218 58.6099 30.8007C58.5396 30.7812 58.5279 30.8281 58.4888 30.8593C57.6607 31.4961 57.0982 32.0116 56.145 32.5312C52.1841 34.707 48.0512 35.1132 43.704 35.8828C43.6025 35.9024 43.0439 36.0508 43.0673 36.1602L43.0745 36.1562ZM43.2972 23.3672C43.0589 23.5938 42.3636 24.3516 42.266 24.625C42.2543 24.6641 42.2074 24.6797 42.2738 24.7149C42.4027 24.7852 43.3363 24.6602 43.5785 24.6524C47.1488 24.543 51.0941 26.4844 51.3949 30.4141L51.2699 31.6797C51.766 31.5469 52.2816 31.3789 52.766 31.1875C53.1722 31.0273 54.391 30.5351 54.6215 30.2305C55.2309 29.414 55.1762 27.2617 54.9887 26.2969C53.9067 20.7852 47.0278 19.8164 43.3007 23.3672L43.2972 23.3672ZM38.5081 30.2852C38.8635 31.2618 39.426 32.293 40.0315 33.1407C40.1057 33.2462 40.5549 33.8673 40.6135 33.8829C40.8049 33.9415 41.176 33.754 41.3791 33.6993C43.4846 33.1525 45.7346 33.0392 47.8127 32.504C48.2112 32.4025 48.2385 32.4181 48.4221 32.0275C48.6877 31.465 48.762 30.7189 48.637 30.1095C48.2073 28.0001 45.3362 27.2072 43.469 27.3126C41.8401 27.4024 39.7737 28.168 38.5588 29.2696C38.1603 29.629 38.3439 29.8282 38.508 30.2813L38.5081 30.2852ZM19.9221 16.3402C20.5822 16.2934 23.2541 16.059 23.2541 16.059C25.7229 14.516 28.2971 11.1371 31.7346 8.47699C31.7346 8.47699 28.4494 7.71527 27.1526 7.63324C26.8206 7.6137 26.2659 7.5512 25.9573 7.60199C25.5706 7.66449 24.9456 8.41058 24.6604 8.71529C22.8987 10.6255 21.0002 13.1762 20.0042 15.5825C19.9378 15.7387 19.7854 16.0786 19.7581 16.2231C19.7347 16.352 19.8089 16.3481 19.9183 16.3403L19.9221 16.3402Z" fill="#E5FF20"/>
</svg>
