<svg width="58" height="58" viewBox="0 0 58 58" fill="none" xmlns="http://www.w3.org/2000/svg">
<g clip-path="url(#clip0_287_89)">
<path d="M56.7801 20.7435C54.5814 13.2921 49.6342 7.18448 42.7936 3.51989C35.953 -0.144704 28.1352 -0.999776 20.7449 1.19898C13.2936 3.39774 7.18595 8.34494 3.52135 15.1855C-0.143239 22.0261 -0.998311 29.8439 1.20045 37.2342C3.3992 44.6855 8.3464 50.7931 15.187 54.4577C19.4623 56.7786 24.2263 58.0002 28.9903 58.0002C31.7387 58.0002 34.5482 57.5726 37.2967 56.7787C44.748 54.5799 50.8557 49.6327 54.5203 42.7921C58.1849 36.0126 58.9789 28.1337 56.7801 20.7435ZM17.0804 31.6762C17.3857 31.554 17.7522 31.7983 17.8743 32.1037V32.2259C18.7294 35.2186 20.6839 37.6617 23.3712 39.1275C23.4934 39.1886 23.6155 39.2497 23.7377 39.3108C24.0431 39.494 24.1652 39.8604 24.0431 40.1658C23.9209 40.4101 23.7377 40.5323 23.4934 40.5323C23.3712 40.5323 23.3102 40.5323 23.188 40.4712C23.0659 40.4101 22.8826 40.3491 22.7605 40.2269C19.7677 38.5778 17.569 35.8294 16.6528 32.5923L16.5917 32.4702C16.5917 32.1037 16.775 31.7373 17.0804 31.6762ZM8.1021 28.8056C8.46856 28.8056 8.71286 29.0499 8.71286 29.4164C8.77394 31.6762 9.20147 33.936 9.99547 36.0737C11.5835 40.4101 14.5151 43.8915 18.424 46.2735C18.7294 46.4567 18.7905 46.8232 18.6073 47.1286C18.4851 47.3118 18.3019 47.4339 18.0576 47.4339C17.9354 47.4339 17.8133 47.4339 17.7522 47.3729C13.599 44.8687 10.4841 41.1431 8.77394 36.5623C7.91887 34.3025 7.43025 31.9205 7.43025 29.4774C7.49133 29.111 7.73564 28.8056 8.1021 28.8056ZM18.7905 52.0147C18.6683 52.259 18.4851 52.3811 18.2408 52.3811C18.1797 52.3811 18.0576 52.3811 17.9965 52.3201C16.9582 51.8314 15.981 51.2818 15.0037 50.671C9.75116 47.3118 5.96442 42.1814 4.1932 36.2569C4.07104 35.9515 4.31535 35.5851 4.62073 35.4629C4.92612 35.3408 5.29257 35.524 5.41473 35.8905C7.0638 41.5095 10.7284 46.3956 15.6756 49.6327C16.5917 50.2435 17.5079 50.7321 18.4851 51.2207C18.7905 51.3428 18.9126 51.7093 18.7905 52.0147ZM25.2035 45.113C25.1425 45.3573 24.8982 45.5406 24.5928 45.5406C24.5317 45.5406 24.4706 45.5406 24.4095 45.5406C24.1042 45.4795 23.8598 45.3573 23.5545 45.2963C22.5772 44.9909 21.6 44.5633 20.6839 44.0136C16.7139 41.7538 13.7822 38.1503 12.4996 33.7528C12.1332 32.4091 11.8888 31.0654 11.8278 29.7217C11.8278 29.3553 12.0721 29.111 12.4385 29.0499C12.7439 29.0499 13.0493 29.2942 13.1104 29.6607C13.1715 30.9433 13.3547 32.1648 13.7211 33.3863C14.8816 37.4785 17.569 40.8377 21.2946 42.9143C22.1497 43.4029 23.0659 43.7693 23.982 44.0747C24.2263 44.1358 24.5317 44.258 24.776 44.319C25.0814 44.4412 25.3257 44.7466 25.2035 45.113ZM32.8381 36.1959C28.8681 38.3335 23.9209 36.8066 21.7832 32.8366C19.6456 28.8667 21.1725 23.9195 25.1425 21.7818C29.1124 19.6441 34.0596 21.171 36.1973 25.141C38.335 29.111 36.8081 34.1192 32.8381 36.1959ZM40.9002 26.3014C40.8391 26.3014 40.7781 26.3014 40.717 26.3014C40.4727 26.3014 40.1673 26.1182 40.1062 25.8739V25.7518C39.2511 22.759 37.2967 20.3159 34.6093 18.8501C34.4872 18.789 34.365 18.728 34.1818 18.6669C33.8764 18.4836 33.7543 18.1172 33.9375 17.8118C34.1207 17.5064 34.4872 17.3843 34.7926 17.5675C34.9147 17.6286 35.0979 17.6897 35.2201 17.8118C38.2128 19.4609 40.4116 22.2093 41.3277 25.4464L41.3888 25.5685C41.3888 25.8739 41.2056 26.2404 40.9002 26.3014ZM45.542 28.9277C45.1756 28.9277 44.9313 28.6834 44.8702 28.317C44.8091 27.0344 44.6259 25.8128 44.2594 24.5913C43.099 20.4992 40.4116 17.14 36.6859 15.0634C35.8309 14.5747 34.9147 14.2083 33.9986 13.9029C33.7543 13.8418 33.4489 13.7197 33.2046 13.6586C32.8992 13.5975 32.6549 13.2311 32.777 12.9257C32.8381 12.6203 33.2046 12.376 33.5099 12.4981C33.8153 12.5592 34.0596 12.6814 34.365 12.7425C35.3422 13.0478 36.3195 13.4754 37.2356 14.0251C41.2667 16.2238 44.1983 19.8273 45.481 24.2248C45.8474 25.5685 46.0917 26.9122 46.1528 28.2559C46.1528 28.6224 45.8474 28.8667 45.542 28.9277ZM49.8785 29.172C49.512 29.172 49.2677 28.9277 49.2677 28.5613C49.2066 26.3014 48.7791 24.0416 47.9851 21.9039C46.3971 17.5675 43.4654 14.0861 39.5565 11.7041C39.2511 11.5209 39.1901 11.1545 39.3733 10.8491C39.5565 10.5437 39.923 10.4826 40.2284 10.6658C44.3816 13.17 47.4965 16.8957 49.2066 21.4764C50.0617 23.7362 50.5503 26.1182 50.5503 28.5613C50.4892 28.8667 50.2449 29.172 49.8785 29.172ZM53.3598 22.4536C53.2988 22.4536 53.2377 22.4536 53.1766 22.4536C52.9323 22.4536 52.688 22.2704 52.5658 22.0261C50.9168 16.407 47.2522 11.5209 42.305 8.28386C41.3888 7.6731 40.4727 7.18448 39.4954 6.69587C39.1901 6.57372 39.0679 6.20726 39.1901 5.8408C39.3122 5.53542 39.6787 5.41326 40.0451 5.53542C41.0834 6.02403 42.0607 6.57372 43.0379 7.18448C48.2294 10.5437 52.0772 15.6741 53.7874 21.5986C53.8484 22.0261 53.6652 22.3925 53.3598 22.4536Z" fill="#E5FF20"/>
<path d="M29.3566 27.8283C28.6848 27.645 28.013 28.0115 27.8297 28.6833C27.6465 29.3552 28.013 30.027 28.6848 30.2102C29.3566 30.3935 30.0285 30.027 30.2117 29.3552C30.3949 28.6833 30.0285 28.0115 29.3566 27.8283Z" fill="#E5FF20"/>
</g>
<defs>
<clipPath id="clip0_287_89">
<rect width="58" height="58" fill="white"/>
</clipPath>
</defs>
</svg>
