<svg width="980" height="125" viewBox="0 0 980 125" fill="none" xmlns="http://www.w3.org/2000/svg">
<path d="M754.438 33.375C756.312 33.375 758.167 33.5625 760 33.9375C761.875 34.3125 763.771 34.7917 765.688 35.375H787.188V41.375H772.688V41.75C774.229 43.5417 775.375 45.5208 776.125 47.6875C776.875 49.8542 777.25 51.9792 777.25 54.0625C777.25 59.4792 775.042 64.0625 770.625 67.8125C766.25 71.5625 761.146 73.4375 755.312 73.4375H747.75C746.792 73.7708 745.792 74.375 744.75 75.25C743.708 76.125 743.188 77.3125 743.188 78.8125C743.188 80.3542 743.625 81.5417 744.5 82.375C745.375 83.1667 746.438 83.7083 747.688 84C748.896 84.3333 750.292 84.5417 751.875 84.625C753.5 84.7083 755.167 84.7708 756.875 84.8125C758.708 84.8542 761.208 84.9792 764.375 85.1875C767.583 85.3958 769.854 85.5208 771.188 85.5625C773.104 85.6458 775.021 86.1042 776.938 86.9375C778.896 87.7708 780.667 88.9167 782.25 90.375C783.917 91.9583 785.229 93.75 786.188 95.75C787.146 97.75 787.625 100.229 787.625 103.188C787.625 106.146 786.979 108.917 785.688 111.5C784.396 114.125 782.438 116.396 779.812 118.312C777.021 120.271 773.688 121.792 769.812 122.875C765.938 123.958 761.146 124.5 755.438 124.5C746.104 124.5 739.125 123.125 734.5 120.375C729.875 117.667 727.562 113.688 727.562 108.438C727.562 104.188 729.229 100.833 732.562 98.375C735.896 95.9167 740.146 94.5833 745.312 94.375V93.5C744.062 93.125 742.771 92.6667 741.438 92.125C740.104 91.5417 738.958 90.875 738 90.125C736.917 89.25 736.042 88.2292 735.375 87.0625C734.708 85.8542 734.375 84.375 734.375 82.625C734.375 80.4167 735.146 78.3958 736.688 76.5625C738.271 74.6875 740.646 73.0833 743.812 71.75V70.8125C739.812 68.9375 736.708 66.5417 734.5 63.625C732.292 60.6667 731.188 57.25 731.188 53.375C731.188 47.5417 733.354 42.75 737.688 39C742.062 35.25 747.646 33.375 754.438 33.375ZM751 95.8125C746.5 96.6875 743.292 98.1458 741.375 100.188C739.5 102.271 738.562 104.938 738.562 108.188C738.562 109.646 738.875 111.042 739.5 112.375C740.125 113.708 741.208 114.938 742.75 116.062C744.208 117.146 746.167 118.021 748.625 118.688C751.083 119.396 754.083 119.75 757.625 119.75C763.75 119.75 768.562 118.562 772.062 116.188C775.604 113.854 777.375 110.292 777.375 105.5C777.375 103.167 776.833 101.25 775.75 99.75C774.667 98.25 773.021 97.2292 770.812 96.6875C769.646 96.5208 767.25 96.3333 763.625 96.125C760 95.9167 755.792 95.8125 751 95.8125ZM159.75 33.375C168.375 33.375 175.479 36.2917 181.062 42.125C186.688 47.9167 189.5 55.6458 189.5 65.3125C189.5 69.6458 188.812 73.9167 187.438 78.125C186.062 82.2917 184.104 85.8333 181.562 88.75C178.688 92.0833 175.354 94.5625 171.562 96.1875C167.771 97.8125 163.521 98.625 158.812 98.625C154.896 98.625 151.167 97.8958 147.625 96.4375C144.083 94.9375 140.938 92.7708 138.188 89.9375C135.479 87.1458 133.312 83.75 131.688 79.75C130.714 77.2646 130.041 74.5978 129.666 71.75H142.562C142.715 73.3023 142.923 74.8024 143.188 76.25C143.854 79.625 144.896 82.6458 146.312 85.3125C147.729 87.9792 149.5 90.0833 151.625 91.625C153.792 93.125 156.458 93.875 159.625 93.875C164.833 93.875 168.958 91.3542 172 86.3125C175.042 81.2708 176.562 74.3125 176.562 65.4375C176.562 62.3125 176.25 59.0208 175.625 55.5625C175 52.0625 174.062 49.1042 172.812 46.6875C171.479 44.1042 169.729 42.0417 167.562 40.5C165.396 38.9167 162.75 38.125 159.625 38.125C156.417 38.125 153.667 38.9167 151.375 40.5C149.125 42.0833 147.292 44.25 145.875 47C144.542 49.5417 143.604 52.4375 143.062 55.6875C142.719 57.7503 142.485 59.7711 142.359 61.75H129.522C130.266 54.1142 132.988 47.7183 137.688 42.5625C143.312 36.4375 150.667 33.375 159.75 33.375ZM255.062 0.9375V84.0625C255.062 85.5208 255.333 86.7708 255.875 87.8125C256.458 88.8125 257.292 89.6667 258.375 90.375C259.167 90.875 260.312 91.1875 261.812 91.3125C263.312 91.4375 264.688 91.5208 265.938 91.5625V95.625L244.438 97L243.5 96.125V90.375L243 90.25C240.833 92.6667 238.146 94.6458 234.938 96.1875C231.771 97.7292 228.5 98.5 225.125 98.5C221.625 98.5 218.229 97.7292 214.938 96.1875C211.688 94.6042 208.854 92.3958 206.438 89.5625C203.979 86.6875 202.021 83.2292 200.562 79.1875C199.146 75.1458 198.438 70.6875 198.438 65.8125C198.438 61.3542 199.208 57.125 200.75 53.125C202.292 49.125 204.417 45.625 207.125 42.625C209.667 39.8333 212.771 37.6042 216.438 35.9375C220.146 34.2708 223.917 33.4375 227.75 33.4375C230.625 33.4375 233.438 33.8125 236.188 34.5625C238.979 35.2708 241.375 36.1875 243.375 37.3125V15.875C243.375 14.125 243.083 12.5417 242.5 11.125C241.917 9.66667 241.104 8.5625 240.062 7.8125C238.896 7.02083 237.312 6.45833 235.312 6.125C233.354 5.75 231.229 5.47917 228.938 5.3125V1.4375L254.125 0L255.062 0.9375ZM374.875 33.375C380.917 33.375 385.833 34.8333 389.625 37.75C393.417 40.625 395.312 44.5625 395.312 49.5625C395.312 51.6458 394.812 53.5 393.812 55.125C392.812 56.7083 391.167 57.5 388.875 57.5C386.417 57.5 384.5 56.875 383.125 55.625C381.792 54.375 381.125 52.9792 381.125 51.4375C381.125 49.5625 381.375 47.6458 381.875 45.6875C382.375 43.6875 382.667 42.2292 382.75 41.3125C382 40.0208 380.875 39.1667 379.375 38.75C377.917 38.2917 376.333 38.0625 374.625 38.0625C372.625 38.0625 370.708 38.5 368.875 39.375C367.083 40.2083 365.333 41.7708 363.625 44.0625C362.083 46.1458 360.833 48.9583 359.875 52.5C358.917 56.0417 358.438 60.2708 358.438 65.1875C358.438 72.9375 360.146 79.2708 363.562 84.1875C367.021 89.0625 371.542 91.5 377.125 91.5C381.167 91.5 384.542 90.5208 387.25 88.5625C390 86.6042 392.542 83.6667 394.875 79.75L398.875 82.375C396.125 87.2917 392.5 91.1875 388 94.0625C383.5 96.9375 378.854 98.375 374.062 98.375C365.146 98.375 358.167 95.4167 353.125 89.5C348.083 83.5833 345.562 75.6458 345.562 65.6875C345.562 61.3542 346.229 57.3125 347.562 53.5625C348.938 49.7708 350.917 46.3333 353.5 43.25C355.958 40.2917 359.042 37.9167 362.75 36.125C366.458 34.2917 370.5 33.375 374.875 33.375ZM602.875 33.375C607.375 33.375 611.229 34.0833 614.438 35.5C617.646 36.9167 620.25 38.8542 622.25 41.3125C624.167 43.6458 625.583 46.3958 626.5 49.5625C627.458 52.7292 627.938 56.1667 627.938 59.875V64H587.125C587.125 68.0417 587.5 71.7083 588.25 75C589.042 78.2917 590.271 81.1875 591.938 83.6875C593.562 86.1042 595.688 88.0208 598.312 89.4375C600.938 90.8125 604.062 91.5 607.688 91.5C611.396 91.5 614.583 90.6458 617.25 88.9375C619.958 87.1875 622.562 84.0625 625.062 79.5625L629.438 82.25C626.854 87.1667 623.396 91.0833 619.062 94C614.729 96.9167 609.75 98.375 604.125 98.375C599.167 98.375 594.812 97.5 591.062 95.75C587.354 94 584.292 91.625 581.875 88.625C579.458 85.625 577.646 82.125 576.438 78.125C575.271 74.125 574.688 69.8958 574.688 65.4375C574.688 61.4375 575.312 57.5208 576.562 53.6875C577.854 49.8125 579.729 46.3333 582.188 43.25C584.562 40.2917 587.5 37.9167 591 36.125C594.542 34.2917 598.5 33.375 602.875 33.375ZM679.375 53.125H675.062C674.188 48.7083 672.292 45.125 669.375 42.375C666.5 39.5833 662.979 38.1875 658.812 38.1875C655.396 38.1875 652.708 39.0417 650.75 40.75C648.792 42.4583 647.812 44.5208 647.812 46.9375C647.812 48.8125 648.125 50.375 648.75 51.625C649.417 52.875 650.396 53.9375 651.688 54.8125C652.938 55.6458 654.5 56.4375 656.375 57.1875C658.292 57.8958 660.646 58.7083 663.438 59.625C666.188 60.5 668.771 61.5208 671.188 62.6875C673.646 63.8542 675.667 65.1458 677.25 66.5625C678.958 68.0625 680.271 69.7917 681.188 71.75C682.104 73.7083 682.562 76.1042 682.562 78.9375C682.562 84.6458 680.417 89.3125 676.125 92.9375C671.875 96.5625 666.354 98.375 659.562 98.375C655.979 98.375 652.667 97.7292 649.625 96.4375C646.625 95.1458 644.479 93.9583 643.188 92.875L641.938 96.9375H637.25L636.625 75.5H640.938C641.271 77.125 641.979 79.0208 643.062 81.1875C644.146 83.3542 645.458 85.3125 647 87.0625C648.625 88.8958 650.562 90.4375 652.812 91.6875C655.104 92.9375 657.667 93.5625 660.5 93.5625C664.5 93.5625 667.583 92.6667 669.75 90.875C671.917 89.0417 673 86.4375 673 83.0625C673 81.3125 672.646 79.8125 671.938 78.5625C671.271 77.2708 670.271 76.1458 668.938 75.1875C667.562 74.2292 665.875 73.375 663.875 72.625C661.875 71.8333 659.646 71.0625 657.188 70.3125C655.229 69.7292 653.042 68.9375 650.625 67.9375C648.25 66.8958 646.208 65.6875 644.5 64.3125C642.667 62.8542 641.167 61.0625 640 58.9375C638.833 56.8125 638.25 54.3125 638.25 51.4375C638.25 46.3958 640.125 42.125 643.875 38.625C647.625 35.125 652.646 33.375 658.938 33.375C661.354 33.375 663.812 33.6875 666.312 34.3125C668.854 34.9375 670.917 35.6875 672.5 36.5625L673.938 33.3125H678.438L679.375 53.125ZM898.5 33.375C903 33.375 906.854 34.0833 910.062 35.5C913.271 36.9167 915.875 38.8542 917.875 41.3125C919.792 43.6458 921.208 46.3958 922.125 49.5625C923.083 52.7292 923.562 56.1667 923.562 59.875V64H882.75C882.75 68.0417 883.125 71.7083 883.875 75C884.667 78.2917 885.896 81.1875 887.562 83.6875C889.188 86.1042 891.312 88.0208 893.938 89.4375C896.562 90.8125 899.688 91.5 903.312 91.5C907.021 91.5 910.208 90.6458 912.875 88.9375C915.583 87.1875 918.188 84.0625 920.688 79.5625L925.062 82.25C922.479 87.1667 919.021 91.0833 914.688 94C910.354 96.9167 905.375 98.375 899.75 98.375C894.792 98.375 890.438 97.5 886.688 95.75C882.979 94 879.917 91.625 877.5 88.625C875.083 85.625 873.271 82.125 872.062 78.125C870.896 74.125 870.312 69.8958 870.312 65.4375C870.312 61.4375 870.938 57.5208 872.188 53.6875C873.479 49.8125 875.354 46.3333 877.812 43.25C880.188 40.2917 883.125 37.9167 886.625 36.125C890.167 34.2917 894.125 33.375 898.5 33.375ZM328.562 35.25V84.1875C328.562 85.6042 328.854 86.8125 329.438 87.8125C330.021 88.8125 330.833 89.6667 331.875 90.375C332.625 90.8333 333.521 91.1458 334.562 91.3125C335.604 91.4375 336.75 91.5208 338 91.5625V95.625L317.938 97L317 96.125V88.3125H316.625C315.625 89.3542 314.5 90.4792 313.25 91.6875C312 92.8542 310.562 93.9167 308.938 94.875C307.062 96 305.25 96.8542 303.5 97.4375C301.75 98.0208 299.271 98.3125 296.062 98.3125C290.604 98.3125 286.438 96.5417 283.562 93C280.729 89.4167 279.312 84.2292 279.312 77.4375V47.9375C279.312 46.4375 279.021 45.1875 278.438 44.1875C277.896 43.1458 277.083 42.25 276 41.5C275.25 41 274.312 40.6458 273.188 40.4375C272.062 40.1875 270.875 40.0208 269.625 39.9375V35.875L290.188 34.375L291.125 35.25V78.0625C291.125 82.5208 292.125 85.875 294.125 88.125C296.125 90.375 298.521 91.5 301.312 91.5C303.604 91.5 305.646 91.1458 307.438 90.4375C309.229 89.7292 310.729 88.8958 311.938 87.9375C313.062 87.0625 314.042 86.1458 314.875 85.1875C315.75 84.1875 316.417 83.2708 316.875 82.4375V47.5C316.875 46.125 316.583 44.9167 316 43.875C315.417 42.7917 314.604 41.875 313.562 41.125C312.812 40.625 311.688 40.3333 310.188 40.25C308.729 40.125 307.083 40.0208 305.25 39.9375V35.875L327.625 34.375L328.562 35.25ZM422.75 35.375H440.438V41.375H422.875V75.8125C422.875 78.3958 422.958 80.5625 423.125 82.3125C423.333 84.0208 423.792 85.5208 424.5 86.8125C425.167 88.0208 426.167 88.9375 427.5 89.5625C428.833 90.1875 430.625 90.5 432.875 90.5C433.917 90.5 435.438 90.4167 437.438 90.25C439.479 90.0417 440.917 89.7917 441.75 89.5V94.0625C439.042 95.1875 436.479 96.125 434.062 96.875C431.646 97.6667 428.688 98.0625 425.188 98.0625C420.021 98.0625 416.375 96.7708 414.25 94.1875C412.167 91.5625 411.125 87.875 411.125 83.125V41.375H400V35.375H411.375V16.1875H422.75V35.375ZM40.5 8.0625C48.75 8.0625 55.4375 10.0625 60.5625 14.0625C65.7292 18.0208 68.3125 23.3125 68.3125 29.9375C68.3125 34.5625 67.3958 38.6667 65.5625 42.25C63.7708 45.7917 61.2708 48.7292 58.0625 51.0625C54.8958 53.3958 51.4167 55.1042 47.625 56.1875C43.8333 57.2708 39.8125 57.8125 35.5625 57.8125H25.625V84.6875C25.625 86.1458 25.8542 87.4375 26.3125 88.5625C26.8125 89.6458 27.8125 90.4792 29.3125 91.0625C30.0625 91.3542 31.375 91.625 33.25 91.875C35.1667 92.125 36.9167 92.2708 38.5 92.3125V96.75H0.4375V92.3125C1.4375 92.2292 2.875 92.0833 4.75 91.875C6.66667 91.6667 8 91.3958 8.75 91.0625C10 90.5208 10.8958 89.7292 11.4375 88.6875C12.0208 87.6458 12.3125 86.3125 12.3125 84.6875V20.6875C12.3125 19.2292 12.1042 17.9167 11.6875 16.75C11.2708 15.5833 10.2917 14.7083 8.75 14.125C7.16667 13.5833 5.58333 13.2083 4 13C2.45833 12.75 1.125 12.5833 0 12.5V8.0625H40.5ZM115.25 33.625C117.875 33.625 120 34.4792 121.625 36.1875C123.292 37.8958 124.125 40.1875 124.125 43.0625C124.125 45.1875 123.604 47.0833 122.562 48.75C121.521 50.375 119.917 51.1875 117.75 51.1875C115.417 51.1875 113.625 50.5833 112.375 49.375C111.167 48.1667 110.562 46.8333 110.562 45.375C110.562 44.4583 110.625 43.625 110.75 42.875C110.917 42.125 111.062 41.375 111.188 40.625C109.229 40.625 106.938 41.4167 104.312 43C101.688 44.5833 99.4583 46.8333 97.625 49.75V85.625C97.625 87.0833 97.8958 88.2708 98.4375 89.1875C99.0208 90.1042 99.9167 90.7917 101.125 91.25C102.167 91.6667 103.5 91.9792 105.125 92.1875C106.792 92.3958 108.229 92.5417 109.438 92.625V96.75H76.9375V92.625C77.8958 92.5417 78.875 92.4583 79.875 92.375C80.9167 92.2917 81.8125 92.125 82.5625 91.875C83.7292 91.5 84.5833 90.8542 85.125 89.9375C85.7083 88.9792 86 87.75 86 86.25V48.1875C86 46.8958 85.6875 45.625 85.0625 44.375C84.4792 43.125 83.6458 42.125 82.5625 41.375C81.7708 40.875 80.8333 40.5208 79.75 40.3125C78.6667 40.0625 77.5 39.8958 76.25 39.8125V35.75L96.75 34.375L97.625 35.25V43.9375H97.9375C100.521 40.5625 103.396 38 106.562 36.25C109.729 34.5 112.625 33.625 115.25 33.625ZM519.438 8.0625C524.771 8.0625 530.021 8.89583 535.188 10.5625C540.354 12.1875 544.854 14.3958 548.688 17.1875C553.896 20.8958 557.979 25.75 560.938 31.75C563.896 37.75 565.375 44.8125 565.375 52.9375C565.375 60.4792 563.958 67.0208 561.125 72.5625C558.292 78.1042 554.604 82.6458 550.062 86.1875C545.479 89.7292 540.333 92.375 534.625 94.125C528.917 95.875 523.021 96.75 516.938 96.75H480.188V92.3125C481.396 92.3125 482.958 92.2083 484.875 92C486.833 91.75 488.125 91.4792 488.75 91.1875C490 90.6458 490.896 89.8542 491.438 88.8125C492.021 87.7292 492.312 86.4375 492.312 84.9375V56.75H505.625V81.5625C505.625 85.3542 506.729 87.9792 508.938 89.4375C511.146 90.8958 514.542 91.625 519.125 91.625C524.417 91.625 529.042 90.6875 533 88.8125C536.958 86.9375 540.167 84.3333 542.625 81C545.208 77.5 547.083 73.4583 548.25 68.875C549.458 64.25 550.062 58.9167 550.062 52.875C550.062 46.9167 549.271 41.5417 547.688 36.75C546.104 31.9167 543.792 27.7083 540.75 24.125C537.875 20.7083 534.333 18.0208 530.125 16.0625C525.958 14.1042 521.312 13.125 516.188 13.125C514.479 13.125 512.542 13.1667 510.375 13.25C508.25 13.2917 506.667 13.3333 505.625 13.375V46.75H492.312V20.9375C492.312 19.5208 492.062 18.25 491.562 17.125C491.104 16 490.167 15.1042 488.75 14.4375C487.458 13.8125 486.062 13.3542 484.562 13.0625C483.062 12.7708 481.771 12.5833 480.688 12.5V8.0625H519.438ZM712.75 35.25V85.5C712.75 86.9583 713.021 88.1667 713.562 89.125C714.146 90.0833 715.042 90.7917 716.25 91.25C717.167 91.625 718.062 91.9375 718.938 92.1875C719.812 92.3958 720.792 92.5417 721.875 92.625V96.75H692.062V92.625C693.021 92.5417 694 92.4583 695 92.375C696.042 92.2917 696.938 92.125 697.688 91.875C698.854 91.5 699.708 90.8542 700.25 89.9375C700.833 88.9792 701.125 87.75 701.125 86.25V48.1875C701.125 46.8542 700.812 45.6458 700.188 44.5625C699.604 43.4375 698.771 42.5 697.688 41.75C696.896 41.25 695.75 40.8333 694.25 40.5C692.75 40.125 691.375 39.8958 690.125 39.8125V35.75L711.875 34.375L712.75 35.25ZM836.375 33.4375C842.292 33.4375 846.667 35.2917 849.5 39C852.375 42.6667 853.812 47.5625 853.812 53.6875V85.75C853.812 87.2083 854.062 88.3958 854.562 89.3125C855.062 90.1875 855.917 90.875 857.125 91.375C858.125 91.7917 858.979 92.0833 859.688 92.25C860.438 92.4167 861.458 92.5417 862.75 92.625V96.75H832.562V92.625C833.521 92.5417 834.562 92.4583 835.688 92.375C836.854 92.2917 837.812 92.125 838.562 91.875C839.729 91.5 840.583 90.8542 841.125 89.9375C841.708 88.9792 842 87.75 842 86.25V54.5625C842 50.1875 840.958 46.8125 838.875 44.4375C836.833 42.0625 834.333 40.875 831.375 40.875C829.167 40.875 827.146 41.2292 825.312 41.9375C823.479 42.6042 821.854 43.4375 820.438 44.4375C819.062 45.3958 817.958 46.4375 817.125 47.5625C816.333 48.6458 815.75 49.5208 815.375 50.1875V85.625C815.375 87.0417 815.667 88.2083 816.25 89.125C816.833 90.0417 817.708 90.75 818.875 91.25C819.75 91.6667 820.688 91.9792 821.688 92.1875C822.729 92.3958 823.792 92.5417 824.875 92.625V96.75H794.688V92.625C795.646 92.5417 796.625 92.4583 797.625 92.375C798.667 92.2917 799.562 92.125 800.312 91.875C801.479 91.5 802.333 90.8542 802.875 89.9375C803.458 88.9792 803.75 87.75 803.75 86.25V48.1875C803.75 46.7708 803.438 45.4792 802.812 44.3125C802.229 43.1042 801.396 42.125 800.312 41.375C799.521 40.875 798.583 40.5208 797.5 40.3125C796.417 40.0625 795.25 39.8958 794 39.8125V35.75L814.5 34.375L815.375 35.25V43.9375H815.688C816.688 42.9375 817.938 41.75 819.438 40.375C820.938 38.9583 822.354 37.8125 823.688 36.9375C825.229 35.9375 827.062 35.1042 829.188 34.4375C831.312 33.7708 833.708 33.4375 836.375 33.4375ZM970.5 33.625C973.125 33.625 975.25 34.4792 976.875 36.1875C978.542 37.8958 979.375 40.1875 979.375 43.0625C979.375 45.1875 978.854 47.0833 977.812 48.75C976.771 50.375 975.167 51.1875 973 51.1875C970.667 51.1875 968.875 50.5833 967.625 49.375C966.417 48.1667 965.812 46.8333 965.812 45.375C965.812 44.4583 965.875 43.625 966 42.875C966.167 42.125 966.312 41.375 966.438 40.625C964.479 40.625 962.188 41.4167 959.562 43C956.938 44.5833 954.708 46.8333 952.875 49.75V85.625C952.875 87.0833 953.146 88.2708 953.688 89.1875C954.271 90.1042 955.167 90.7917 956.375 91.25C957.417 91.6667 958.75 91.9792 960.375 92.1875C962.042 92.3958 963.479 92.5417 964.688 92.625V96.75H932.188V92.625C933.146 92.5417 934.125 92.4583 935.125 92.375C936.167 92.2917 937.062 92.125 937.812 91.875C938.979 91.5 939.833 90.8542 940.375 89.9375C940.958 88.9792 941.25 87.75 941.25 86.25V48.1875C941.25 46.8958 940.938 45.625 940.312 44.375C939.729 43.125 938.896 42.125 937.812 41.375C937.021 40.875 936.083 40.5208 935 40.3125C933.917 40.0625 932.75 39.8958 931.5 39.8125V35.75L952 34.375L952.875 35.25V43.9375H953.188C955.771 40.5625 958.646 38 961.812 36.25C964.979 34.5 967.875 33.625 970.5 33.625ZM229 38.1875C226.5 38.1875 224.188 38.8333 222.062 40.125C219.979 41.4167 218.125 43.2708 216.5 45.6875C214.958 48.0208 213.729 51 212.812 54.625C211.938 58.2083 211.5 62.1875 211.5 66.5625C211.5 70.0625 211.833 73.25 212.5 76.125C213.167 78.9583 214.292 81.6042 215.875 84.0625C217.333 86.3958 219.188 88.2708 221.438 89.6875C223.729 91.1042 226.438 91.8125 229.562 91.8125C232.896 91.8125 235.646 91.0833 237.812 89.625C240.021 88.1667 241.875 86.5625 243.375 84.8125V48.75C243.042 47.6667 242.5 46.5 241.75 45.25C241 44 240.062 42.8542 238.938 41.8125C237.729 40.7708 236.312 39.9167 234.688 39.25C233.062 38.5417 231.167 38.1875 229 38.1875ZM754.062 37.8125C752.104 37.8125 750.417 38.2292 749 39.0625C747.625 39.8542 746.5 41 745.625 42.5C744.792 43.875 744.188 45.5417 743.812 47.5C743.479 49.4167 743.312 51.3958 743.312 53.4375C743.312 58.0625 744.312 61.8333 746.312 64.75C748.354 67.6667 750.979 69.125 754.188 69.125C757.771 69.125 760.521 67.6875 762.438 64.8125C764.396 61.8958 765.375 58.2292 765.375 53.8125C765.375 48.9375 764.375 45.0625 762.375 42.1875C760.417 39.2708 757.646 37.8125 754.062 37.8125ZM602.75 38.0625C598.375 38.0625 594.729 39.8958 591.812 43.5625C588.938 47.1875 587.375 52.25 587.125 58.75H615.625C615.625 56.4167 615.417 53.9167 615 51.25C614.625 48.5833 614 46.3542 613.125 44.5625C612.167 42.6458 610.854 41.0833 609.188 39.875C607.521 38.6667 605.375 38.0625 602.75 38.0625ZM898.375 38.0625C894 38.0625 890.354 39.8958 887.438 43.5625C884.562 47.1875 883 52.25 882.75 58.75H911.25C911.25 56.4167 911.042 53.9167 910.625 51.25C910.25 48.5833 909.625 46.3542 908.75 44.5625C907.792 42.6458 906.479 41.0833 904.812 39.875C903.146 38.6667 901 38.0625 898.375 38.0625ZM25.625 52.375H32C36.5 52.375 40.1458 51.6875 42.9375 50.3125C45.7708 48.8958 47.8958 47.1458 49.3125 45.0625C50.7292 43.0625 51.6667 41 52.125 38.875C52.5833 36.7083 52.8125 34.7708 52.8125 33.0625C52.8125 30.6875 52.5208 28.2708 51.9375 25.8125C51.3958 23.3542 50.4375 21.2083 49.0625 19.375C47.6042 17.4167 45.6875 15.8958 43.3125 14.8125C40.9375 13.7292 37.9792 13.1875 34.4375 13.1875H25.625V52.375ZM705.875 2.0625C708.25 2.0625 710.188 2.875 711.688 4.5C713.229 6.08333 714 7.9375 714 10.0625C714 12.4375 713.208 14.5208 711.625 16.3125C710.083 18.0625 708.167 18.9375 705.875 18.9375C703.75 18.9375 701.896 18.1042 700.312 16.4375C698.771 14.7292 698 12.7917 698 10.625C698 8.33333 698.771 6.33333 700.312 4.625C701.896 2.91667 703.75 2.0625 705.875 2.0625Z" fill="white"/>
</svg>
