<svg width="70" height="61" viewBox="0 0 70 61" fill="none" xmlns="http://www.w3.org/2000/svg">
<g clip-path="url(#clip0_269_15)">
<path d="M18.715 31.842C25.371 31.842 30.235 36.322 30.235 42.722C30.235 48.994 25.371 53.73 18.715 53.73C11.931 53.73 7.195 48.994 7.195 42.722C7.195 41.314 7.451 40.034 7.963 38.754H7.835L18.075 7.64999H31.387C26.139 23.266 24.475 27.874 15.131 27.874V31.842H18.715ZM48.923 31.842C55.579 31.842 60.443 36.322 60.443 42.722C60.443 48.994 55.579 53.73 48.923 53.73C42.139 53.73 37.403 48.994 37.403 42.722C37.403 41.314 37.659 40.034 38.171 38.754H38.043L48.283 7.64999H61.595C56.347 23.266 54.683 27.874 45.339 27.874V31.842H48.923Z" fill="#E5FF20"/>
</g>
<defs>
<clipPath id="clip0_269_15">
<rect width="70" height="61" fill="white"/>
</clipPath>
</defs>
</svg>
