<svg width="90" height="90" viewBox="0 0 90 90" fill="none" xmlns="http://www.w3.org/2000/svg">
<g clip-path="url(#clip0_287_98)">
<g clip-path="url(#clip1_287_98)">
<path d="M45 0C50.3651 0 54.7551 4.17302 55.1025 9.4502H55.127C55.2143 14.3485 58.1476 18.5528 62.3438 20.4785L85.8799 33.3818C88.301 34.4071 89.9998 36.8048 90 39.5996C90 43.3276 86.978 46.3496 83.25 46.3496C82.6292 46.3496 82.0279 46.2664 81.457 46.1094L81.4502 46.125L66.1396 41.3887L66.1104 41.4072C65.549 41.2561 64.9586 41.1748 64.3496 41.1748C60.7739 41.175 57.8481 43.9558 57.6152 47.4727L50.625 84.8252H50.6074C50.3852 87.6308 48.1043 89.8568 45.2754 89.9932L45 90C42.0449 90 39.6219 87.7213 39.3926 84.8252H39.375L32.3848 47.4727C32.1519 43.9558 29.2261 41.175 25.6504 41.1748C25.0414 41.1748 24.451 41.2561 23.8896 41.4072L23.8604 41.3887L8.5498 46.125L8.54297 46.1094C7.97203 46.2664 7.37075 46.3496 6.75 46.3496C3.02209 46.3496 0 43.3276 0 39.5996C0.000157835 36.8048 1.69903 34.4071 4.12012 33.3818L27.6562 20.4785C31.8524 18.5528 34.7857 14.3485 34.873 9.4502H34.8975C35.2449 4.17302 39.6349 0 45 0Z" fill="#E5FF20"/>
</g>
</g>
<defs>
<clipPath id="clip0_287_98">
<rect width="90" height="90" fill="white"/>
</clipPath>
<clipPath id="clip1_287_98">
<rect width="90" height="90" fill="white"/>
</clipPath>
</defs>
</svg>
