<svg width="553" height="226" viewBox="0 0 553 226" fill="none" xmlns="http://www.w3.org/2000/svg">
<g clip-path="url(#clip0_283_70)">
<path d="M105.205 190.925C105.019 190.948 104.626 190.114 104.026 188.424C103.769 187.732 103.532 187.013 103.315 186.268C102.91 184.885 102.661 184.199 102.568 184.211C102.506 184.218 102.515 184.548 102.594 185.199L102.785 186.569L102.89 187.241C102.94 187.644 102.951 187.934 102.926 188.11C102.9 188.286 102.825 188.382 102.701 188.397C102.344 188.441 101.988 187.847 101.634 186.615C101.23 184.98 100.903 184.178 100.655 184.208C100.593 184.215 100.538 184.277 100.489 184.393C100.462 184.428 100.44 184.447 100.425 184.448C100.161 184.481 99.7623 183.404 99.2281 181.218C98.9792 180.209 98.7971 179.232 98.6817 178.286C98.4812 176.642 98.2801 175.832 98.0785 175.857C97.9855 175.868 97.9287 176.048 97.9083 176.397C97.886 176.73 97.9051 177.145 97.9656 177.641C98.109 178.946 98.1593 179.94 98.1165 180.622C98.0757 181.319 97.9854 181.676 97.8459 181.693C97.6442 181.718 97.4617 181.189 97.2983 180.107L97.0531 178.485C96.7694 176.158 96.6476 173.804 96.6877 171.422C96.9317 165.033 97.8156 156.599 99.3394 146.118C100.861 135.622 102.618 125.893 104.61 116.93C105.657 112.347 106.163 109.917 106.129 109.637L105.894 109.642C104.684 109.79 99.5255 110.923 90.4181 113.041C86.0564 114.061 82.2948 114.968 79.1334 115.763C75.9701 116.542 72.3935 117.482 68.4036 118.583C64.4118 119.667 59.0001 121.177 52.1685 123.112C47.1932 124.522 43.3866 125.576 40.7487 126.276C38.1109 126.975 36.3227 127.414 35.3841 127.591C34.4456 127.769 33.7204 127.889 33.2085 127.951C32.5881 128.027 32.0269 128.071 31.5249 128.085C27.5574 128.207 25.1529 127.013 24.3116 124.503C24.2117 124.2 24.1438 123.901 24.1079 123.607C23.9339 122.18 24.5361 120.729 25.9146 119.254C27.5886 117.492 30.6802 115.415 35.1895 113.023C44.9556 107.787 57.444 102.415 72.6549 96.9085C77.9885 94.9516 83.0947 93.1955 87.9736 91.6404C92.8524 90.0852 100.286 87.8565 110.273 84.9542C111.55 84.5782 112.263 84.2945 112.413 84.103C112.586 83.8458 112.935 82.6385 113.459 80.4811C114.09 78.0429 114.486 76.578 114.646 76.0862C114.871 75.4764 115.415 73.5448 116.277 70.2915C117.692 64.9874 118.532 62.3193 118.795 62.2872C118.811 62.2853 118.827 62.2911 118.845 62.3047C118.862 62.3184 118.886 62.3233 118.917 62.3195C119.072 62.3006 119.235 62.084 119.405 61.6698C119.526 61.3717 119.61 61.2198 119.656 61.2141C119.687 61.2103 119.708 61.255 119.72 61.348C119.739 61.5031 119.74 61.8336 119.723 62.3394C119.708 62.7347 119.714 63.0409 119.74 63.258C119.772 63.5217 119.835 63.6479 119.928 63.6365C119.959 63.6327 120.004 63.6116 120.062 63.573C120.12 63.5344 120.173 63.5123 120.219 63.5066C120.343 63.4915 120.416 63.5692 120.436 63.7398C120.474 64.05 120.375 64.6524 120.137 65.5471C119.943 66.2791 119.865 66.8002 119.903 67.1104C119.914 67.2035 119.936 67.2481 119.967 67.2443C120.122 67.2254 120.366 66.5188 120.7 65.1244C121.004 63.8752 121.218 63.2431 121.342 63.228C121.373 63.2242 121.391 63.2456 121.397 63.2921C121.446 63.6954 121.342 64.322 121.083 65.172C120.823 66.0065 120.839 67.8778 121.13 70.7857C121.393 73.587 121.479 75.1271 121.387 75.4059C121.363 75.4717 121.355 75.5356 121.363 75.5977C121.376 75.7062 121.44 75.7772 121.554 75.8104C121.682 75.8263 121.757 75.9273 121.78 76.1135C121.825 76.4857 121.566 77.8396 121 80.1752C120.763 81.1958 120.658 81.8225 120.687 82.0551C120.692 82.1017 120.757 82.1174 120.881 82.1022C121.316 82.0493 122.636 81.778 124.843 81.2885C132.519 79.5654 140.584 78.1884 149.037 77.1576C158.901 75.9546 167.228 75.6947 174.017 76.3779C176.299 76.6348 178.976 77.0954 182.048 77.7597C183.585 78.1073 184.364 78.3587 184.383 78.5138C184.388 78.5603 184.352 78.5883 184.275 78.5978C184.182 78.6091 184.023 78.597 183.798 78.5615L183.656 78.5552C183.64 78.5571 183.633 78.5658 183.635 78.5813C183.647 78.6744 184.12 78.8764 185.055 79.1873C186.226 79.6269 186.817 79.8855 186.826 79.963C186.828 79.9785 186.813 79.9882 186.782 79.992C186.612 80.0128 185.795 79.8369 184.333 79.4643C183.003 79.1385 182.158 78.9897 181.8 79.0177C181.443 79.0612 181.269 79.1217 181.279 79.1993C181.292 79.3078 181.557 79.4801 182.074 79.7162C182.505 79.8997 182.724 80.0147 182.73 80.0612C182.732 80.0767 182.717 80.0864 182.686 80.0901C182.624 80.0977 182.039 80.0116 180.931 79.832C177.436 79.3137 175.355 79.0952 174.688 79.1766C174.595 79.1879 174.551 79.2091 174.555 79.2401C174.566 79.3332 175.139 79.4521 176.274 79.597C178.886 79.9712 180.896 80.3241 182.306 80.6559C182.955 80.8129 183.284 80.9301 183.294 81.0077C183.296 81.0232 183.273 81.0338 183.227 81.0395C182.839 81.0868 181.856 80.9627 180.277 80.6672C177.906 80.2008 175.994 80.009 174.54 80.0918C173.1 80.1573 172.008 80.2354 171.263 80.3262C169.542 80.5361 167.603 80.8985 165.446 81.4134C164.542 81.6181 163.071 81.884 161.033 82.2112C159.089 82.5271 158.125 82.7548 158.142 82.8944C158.157 83.0185 154.52 83.5958 147.232 84.6262C139.76 85.6949 134.229 86.6134 130.639 87.3817C127.678 88.0105 124.977 88.6467 122.537 89.2906C120.095 89.9189 118.692 90.3498 118.327 90.5832C118.144 90.7629 117.975 91.3816 117.821 92.4393C117.608 93.6616 117.256 95.0346 116.765 96.5584C116.187 98.5335 115.833 99.954 115.703 100.82L115.398 102.581L117.171 102.789C119.999 103.137 122.141 103.726 123.596 104.556C125.049 105.37 126.043 106.556 126.579 108.112C126.633 108.294 126.675 108.509 126.705 108.757C126.813 109.641 126.765 110.6 126.56 111.632C126.387 112.409 126.2 112.809 125.998 112.834C125.967 112.838 125.947 112.801 125.938 112.723C125.919 112.568 125.941 112.361 126.004 112.101C126.155 111.406 126.166 110.531 126.038 109.476C125.673 106.483 123.51 104.692 119.551 104.105C117.708 103.842 116.314 103.768 115.368 103.883C114.996 103.928 114.817 104.013 114.832 104.137C114.857 104.339 115.187 104.401 115.823 104.323C116.552 104.234 117.53 104.312 118.756 104.556C119.982 104.8 121.09 105.113 122.081 105.496C123.071 105.864 123.583 106.195 123.619 106.489C123.636 106.629 123.606 106.703 123.528 106.713C123.451 106.722 123.343 106.68 123.206 106.587C122.9 106.404 122.583 106.317 122.253 106.325C121.959 106.361 121.148 106.232 119.821 105.937C118.206 105.599 116.817 105.501 115.653 105.643C115.126 105.707 114.833 105.821 114.774 105.986C114.729 106.259 114.625 106.5 114.461 106.709C114.247 107.144 113.758 109.077 112.996 112.507C109.927 126.324 107.592 139.059 105.992 150.714C105.708 152.779 105.548 154.176 105.511 154.905C105.474 155.633 105.325 157.06 105.065 159.185C104.813 161.766 104.634 164.039 104.527 166.004C104.445 168.17 104.326 169.586 104.171 170.25C103.972 171.329 104.012 175.015 104.292 181.309C104.334 182.043 104.339 182.665 104.307 183.172C104.274 183.68 104.211 183.939 104.118 183.951C104.025 183.962 104.024 184.34 104.115 185.085C104.251 186.201 104.558 187.683 105.035 189.529C105.155 190.003 105.23 190.355 105.258 190.588C105.285 190.805 105.267 190.918 105.205 190.925ZM101.373 138.008C101.419 138.002 101.53 137.619 101.705 136.858C102.096 135.031 102.276 133.994 102.246 133.746C102.24 133.699 102.23 133.677 102.214 133.679C102.137 133.688 101.996 134.083 101.792 134.864C101.409 136.374 101.248 137.378 101.309 137.874C101.32 137.967 101.342 138.012 101.373 138.008ZM102.417 132.828C102.464 132.822 102.544 132.702 102.657 132.468C102.83 132.085 102.897 131.73 102.858 131.404C102.831 131.187 102.802 131.081 102.771 131.084C102.725 131.09 102.645 131.21 102.532 131.444C102.36 131.843 102.299 132.244 102.348 132.647C102.363 132.771 102.386 132.831 102.417 132.828ZM105.073 120.722C105.15 120.712 105.257 120.487 105.392 120.045C105.626 119.387 105.721 118.872 105.675 118.5C105.651 118.424 105.623 118.388 105.591 118.392C105.514 118.401 105.399 118.62 105.246 119.048C105.037 119.782 104.951 120.304 104.989 120.614C105.014 120.69 105.042 120.726 105.073 120.722ZM40.0876 118.919C40.1497 118.911 41.8168 118.448 45.0891 117.53C47.4069 116.917 49.7705 116.227 52.1798 115.461C53.7589 114.985 55.3999 114.502 57.103 114.011C58.1717 113.739 59.9697 113.252 62.4971 112.55C63.2612 112.362 65.454 111.757 69.0755 110.733C75.071 109.041 81.3619 107.448 87.948 105.952C94.5496 104.454 99.6632 103.469 103.289 102.995L107.939 102.404C108.315 101.099 108.602 100.033 108.8 99.2061C109.452 96.4192 109.849 94.6393 109.991 93.8664C110.07 93.3531 110.097 92.9956 110.073 92.794C110.046 92.5768 109.955 92.4777 109.8 92.4966C109.195 92.5704 106.297 93.396 101.106 94.9735C94.4295 97.0156 88.0723 99.0973 82.0347 101.219C77.6268 102.764 73.7707 104.186 70.4663 105.487L60.4163 109.427C56.0931 111.151 51.2368 113.278 45.8472 115.808C41.9035 117.674 39.9439 118.708 39.9685 118.91C39.9704 118.925 40.0101 118.928 40.0876 118.919ZM97.4646 110.222C97.7128 110.192 98.0201 110.13 98.3867 110.039C99.3642 109.793 100.949 109.498 103.142 109.152C105.553 108.779 106.735 108.407 106.69 108.034C106.674 107.91 106.395 107.881 105.853 107.948C105.093 108.04 103.97 108.256 102.484 108.594C98.778 109.44 96.9382 109.971 96.9647 110.188C96.9722 110.25 97.1389 110.262 97.4646 110.222ZM28.1731 118.412C28.2506 118.403 28.3321 118.361 28.4176 118.288C28.5186 118.213 28.5886 118.141 28.6276 118.073C28.6647 117.99 28.6813 117.933 28.6775 117.902C28.6718 117.856 28.638 117.836 28.5759 117.844C28.5139 117.851 28.4314 117.885 28.3285 117.945C28.0025 118.11 27.846 118.247 27.8593 118.356C27.8668 118.418 27.9714 118.437 28.1731 118.412ZM30.0519 117.168C30.1449 117.156 30.2342 117.114 30.3197 117.041C30.4207 116.965 30.4829 116.895 30.5064 116.829C30.5435 116.746 30.5601 116.689 30.5563 116.658C30.5506 116.611 30.5168 116.592 30.4547 116.599C30.3927 116.607 30.3093 116.633 30.2045 116.677C29.8803 116.858 29.7239 116.995 29.7352 117.088C29.7447 117.166 29.8502 117.192 30.0519 117.168ZM31.1476 116.279C31.2562 116.265 32.5382 115.613 34.9937 114.322L37.1687 113.183C38.0558 112.713 38.5198 112.452 38.5607 112.4C38.6015 112.347 38.6201 112.306 38.6163 112.275C38.6125 112.244 38.6028 112.229 38.5873 112.231C38.5699 112.217 38.5535 112.212 38.538 112.214C38.2743 112.246 37.1583 112.775 35.1901 113.802C32.4395 115.255 31.0755 116.075 31.0982 116.261C31.1001 116.277 31.1166 116.282 31.1476 116.279ZM40.1972 111.492C40.5229 111.452 41.2952 111.137 42.514 110.548C43.0652 110.292 43.3544 110.147 43.3817 110.112C43.4225 110.059 43.4411 110.018 43.4373 109.987C43.4297 109.925 43.3949 109.898 43.3329 109.905C43.0692 109.937 42.4541 110.185 41.4875 110.65C40.5868 111.137 40.1402 111.412 40.1478 111.474L40.1972 111.492ZM56.9634 104.347C57.165 104.322 57.3483 104.277 57.5132 104.209C57.6918 104.124 57.7987 104.033 57.8339 103.934C57.8845 103.833 57.9071 103.76 57.9014 103.713C57.8938 103.651 57.8435 103.626 57.7504 103.637C57.5953 103.656 57.2974 103.795 56.8567 104.053C56.5598 104.2 56.4151 104.304 56.4226 104.366C56.4264 104.397 56.5369 104.399 56.754 104.373L56.9634 104.347ZM60.7732 102.867C61.0834 102.829 61.2338 102.772 61.2243 102.694C61.213 102.601 61.1055 102.559 60.902 102.568C60.7779 102.583 60.6567 102.622 60.5383 102.683C60.4354 102.743 60.3858 102.788 60.3896 102.82C60.3953 102.866 60.5232 102.882 60.7732 102.867ZM62.9942 101.912C63.2734 101.878 64.1444 101.598 65.6073 101.073C67.6425 100.337 68.6487 99.8762 68.626 99.6901C68.6223 99.6591 68.5583 99.6511 68.4342 99.6662C68.2636 99.687 68.0038 99.7502 67.6546 99.8558C67.3035 99.9458 66.8505 100.103 66.2956 100.328C65.7387 100.538 65.1847 100.771 64.6335 101.027C64.096 101.266 63.6787 101.458 63.3817 101.605C63.1003 101.749 62.9624 101.845 62.9681 101.891C62.97 101.907 62.9787 101.913 62.9942 101.912ZM70.3772 99.3349C70.4702 99.3235 70.5595 99.2811 70.645 99.2078C70.7305 99.1344 70.7927 99.0638 70.8317 98.9961C70.8688 98.9129 70.8854 98.8557 70.8816 98.8247C70.876 98.7782 70.8421 98.7587 70.7801 98.7663C70.718 98.7738 70.6346 98.7998 70.5298 98.844C70.2056 99.0252 70.0501 99.1701 70.0634 99.2787C70.0709 99.3407 70.1755 99.3594 70.3772 99.3349ZM119.932 102.783C119.762 102.804 119.416 102.744 118.895 102.603C118.634 102.524 118.5 102.462 118.495 102.416C118.489 102.369 118.556 102.337 118.695 102.32C118.835 102.303 119.002 102.314 119.195 102.354C119.403 102.376 119.591 102.431 119.759 102.521C119.927 102.611 120.014 102.679 120.02 102.725C120.024 102.756 119.995 102.776 119.932 102.783ZM117.314 102.418C116.958 102.461 116.776 102.46 116.771 102.413C116.767 102.382 116.816 102.337 116.919 102.277C117.038 102.215 117.159 102.177 117.283 102.162C117.485 102.137 117.591 102.172 117.603 102.265C117.612 102.342 117.516 102.393 117.314 102.418ZM130.57 173.169C130.089 173.228 129.598 173.201 129.097 173.089C127.905 172.873 127.059 172.386 126.557 171.628C126.054 170.855 125.725 169.841 125.572 168.584C125.326 166.568 125.411 163.197 125.826 158.471C126.294 153.267 127.129 146.114 128.333 137.01C129.552 127.905 130.737 119.937 131.887 113.107C133.015 106.61 134.301 99.8583 135.745 92.8507C137.202 85.8258 138.521 79.8645 139.703 74.9667C140.898 70.0515 141.668 67.5256 142.013 67.389L142.037 67.3862C142.114 67.3768 142.212 67.2782 142.331 67.0906C142.448 66.8874 142.549 66.6154 142.633 66.2746C142.85 65.6027 143.021 65.2592 143.145 65.2441C143.191 65.2384 143.229 65.2889 143.258 65.3956C143.279 65.5662 143.225 65.9033 143.098 66.4068C143.023 66.6992 142.948 67.0469 142.871 67.4498C142.794 67.8526 142.738 68.2294 142.702 68.5801C142.664 68.9153 142.654 69.1604 142.673 69.3155C142.692 69.4706 142.748 69.5425 142.841 69.5311C142.888 69.5255 142.948 69.5024 143.022 69.4619C143.169 69.381 143.274 69.3367 143.336 69.3291C143.416 69.3352 143.46 69.377 143.469 69.4545C143.5 69.7027 143.328 70.6208 142.955 72.2089C142.652 73.7255 142.517 74.6156 142.549 74.8793L142.584 74.9695C142.723 74.9525 143.056 73.747 143.583 71.3532C144.125 69.0834 144.45 67.9419 144.558 67.9287C144.574 67.9268 144.585 67.9569 144.593 68.0189C144.612 68.174 144.591 68.4521 144.529 68.853C144.466 69.3645 144.348 69.9456 144.175 70.5962C143.257 74.4231 142.935 78.429 143.209 82.6141C143.312 83.971 143.301 85.1765 143.178 86.2304C143.067 87.1254 143.035 88.2233 143.084 89.5238C143.152 90.6016 143.059 91.9667 142.804 93.6191C142.578 95.1262 141.853 99.0554 140.629 105.407C139.402 111.868 138.65 116.155 138.372 118.266C138.051 120.667 137.772 122.511 137.536 123.799C137.099 126.025 136.733 128.123 136.438 130.095C136.159 132.066 135.757 135.16 135.233 139.38C134.518 145.26 134.07 148.754 133.89 149.862C133.792 150.346 133.76 150.728 133.794 151.007C133.801 151.069 133.815 151.114 133.834 151.144C133.97 151.095 135.082 148.599 137.171 143.653C139.002 139.306 140.76 135.392 142.445 131.913C144.143 128.416 145.472 125.956 146.432 124.532C147.103 123.585 147.894 122.772 148.803 122.094C149.712 121.417 150.515 121.036 151.213 120.951C151.741 120.886 152.321 121.13 152.955 121.683C153.605 122.233 154.148 122.946 154.586 123.821C154.82 124.454 155.093 126.05 155.406 128.609C155.992 133.417 156.302 137.118 156.334 139.711C156.327 140.939 156.557 144.115 157.024 149.236C157.303 152.429 157.524 154.693 157.687 156.026C157.774 156.74 157.83 157.134 157.855 157.21L157.878 157.207C158.033 157.188 158.238 156.935 158.494 156.447C158.685 156.078 159.209 155.219 160.068 153.871C160.827 152.739 161.997 150.582 163.576 147.398C165.046 144.48 165.898 143.007 166.13 142.979C166.146 142.977 166.154 142.984 166.156 142.999C166.174 143.013 166.19 143.019 166.206 143.017C166.392 142.994 166.811 142.172 167.463 140.549C168.131 138.925 168.679 137.678 169.108 136.807C169.537 135.936 169.798 135.495 169.891 135.484C169.907 135.482 169.916 135.497 169.92 135.528C169.919 136.031 169.207 138.196 167.784 142.021C167.204 143.587 166.662 144.952 166.159 146.115C165.259 148.287 164.813 149.412 164.823 149.489C164.825 149.505 164.833 149.512 164.849 149.51C165.035 149.487 166.025 147.54 167.82 143.67C168.745 141.574 169.238 140.522 169.301 140.514C169.347 140.509 169.392 140.684 169.436 141.041C169.524 141.77 169.13 143.25 168.254 145.482C167.548 147.315 167.218 148.41 167.261 148.767C167.271 148.845 167.314 148.879 167.392 148.869C167.547 148.85 167.68 148.716 167.791 148.466C167.918 148.215 167.997 148.087 168.028 148.083C168.043 148.081 168.053 148.096 168.057 148.127C168.077 148.298 167.906 148.893 167.543 149.913C166.938 151.671 166.051 153.755 164.881 156.164C163.727 158.572 162.66 160.536 161.68 162.056C160.775 163.41 160.328 164.133 160.339 164.227L160.363 164.224C160.409 164.218 160.692 163.892 161.212 163.247C162.128 162.112 163.368 160.276 164.932 157.74C166.788 154.633 167.778 153.072 167.902 153.057C167.918 153.055 167.927 153.07 167.931 153.101C167.946 153.225 167.791 153.692 167.465 154.503C166.262 157.546 164.713 160.396 162.817 163.051C160.937 165.704 159.282 167.362 157.851 168.024C157.337 168.197 156.84 168.313 156.359 168.372C154.916 168.548 153.776 168.167 152.938 167.231C152.209 166.422 151.728 165.702 151.494 165.069C151.275 164.435 150.989 162.675 150.637 159.79C149.915 153.865 149.404 148.45 149.105 143.544C148.917 140.198 148.761 138.013 148.636 136.99C148.592 136.633 148.552 136.433 148.516 136.391C148.392 136.406 147.853 137.471 146.898 139.586C145.944 141.702 144.814 144.311 143.509 147.414C142.218 150.515 140.99 153.545 139.824 156.505C137.68 162.024 136.121 165.897 135.15 168.125C134.191 170.335 133.539 171.572 133.194 171.834C132.391 172.609 131.516 173.054 130.57 173.169ZM130.376 172.154C131.291 172.043 132.132 171.452 132.898 170.383C133.233 169.901 133.391 169.583 133.372 169.428C133.37 169.412 133.362 169.405 133.346 169.407C133.269 169.417 133.027 169.69 132.62 170.228C131.935 171.193 131.135 171.731 130.22 171.843C129.832 171.89 129.418 171.854 128.979 171.734C127.958 171.371 127.268 170.03 126.906 167.713L126.602 165.602C126.55 166.081 126.506 166.558 126.469 167.035C126.418 167.513 126.417 167.962 126.468 168.381C126.565 169.172 126.815 169.865 127.218 170.462C127.833 171.378 128.448 171.901 129.062 172.031C129.659 172.147 130.096 172.188 130.376 172.154ZM157.649 166.75C157.757 166.737 157.912 166.655 158.114 166.505C158.315 166.339 158.526 166.132 158.747 165.885C158.969 165.637 159.197 165.381 159.433 165.116C158.081 166.163 157.407 166.701 157.41 166.732C157.445 166.76 157.525 166.766 157.649 166.75ZM133.944 167.729C133.975 167.725 134.104 167.552 134.33 167.21C134.711 166.596 134.889 166.181 134.862 165.964C134.855 165.902 134.836 165.873 134.805 165.877C134.649 165.896 134.381 166.408 134 167.415C133.942 167.58 133.914 167.677 133.918 167.708C133.92 167.724 133.929 167.731 133.944 167.729ZM135.246 165.044C135.333 164.986 135.421 164.802 135.509 164.492C135.527 164.38 135.532 164.293 135.525 164.23C135.517 164.168 135.49 164.14 135.443 164.146C135.412 164.15 135.361 164.18 135.289 164.236C135.231 164.274 135.177 164.352 135.129 164.468C135.078 164.568 135.058 164.665 135.07 164.758C135.094 164.96 135.145 165.056 135.223 165.046L135.246 165.044ZM126.661 164.343C126.754 164.332 126.796 164.225 126.787 164.021C126.771 163.897 126.734 163.783 126.674 163.681C126.613 163.562 126.566 163.505 126.535 163.509C126.489 163.514 126.473 163.642 126.488 163.892C126.525 164.202 126.583 164.353 126.661 164.343ZM140.201 152.823C140.264 152.815 140.419 152.544 140.669 152.01C141.223 150.872 141.49 150.226 141.471 150.071C141.47 150.055 141.461 150.048 141.445 150.05C141.352 150.061 141.156 150.384 140.855 151.019C140.391 151.989 140.172 152.582 140.199 152.799L140.201 152.823ZM164.556 146.523C164.618 146.516 164.915 146.047 165.446 145.116C165.938 144.112 166.17 143.501 166.144 143.284C166.138 143.237 166.12 143.216 166.089 143.22C166.042 143.225 165.966 143.313 165.861 143.484C165.754 143.638 165.619 143.883 165.455 144.218C165.305 144.535 165.15 144.877 164.99 145.243C164.843 145.591 164.729 145.881 164.647 146.111C164.578 146.324 164.547 146.454 164.553 146.5L164.556 146.523ZM141.999 148.589C142.139 148.572 142.631 147.576 143.476 145.6C144.431 143.358 144.978 142.103 145.118 141.834C145.308 141.449 145.395 141.202 145.382 141.094C145.378 141.063 145.361 141.049 145.33 141.053C145.252 141.062 144.659 142.26 143.549 144.646C142.437 147.017 141.892 148.288 141.912 148.458C141.924 148.551 141.953 148.595 141.999 148.589ZM143.502 80.7603C143.363 80.7773 143.286 80.7315 143.273 80.6229C143.267 80.5764 143.283 80.5115 143.32 80.4283C143.371 80.3277 143.423 80.2426 143.478 80.173C143.532 80.1034 143.583 80.0657 143.629 80.06C143.723 80.0487 143.782 80.1516 143.809 80.3687C143.82 80.4618 143.792 80.5518 143.724 80.6388C143.669 80.7084 143.595 80.7489 143.502 80.7603ZM178.834 163.317C178.152 163.4 177.462 163.421 176.764 163.38C173.846 163.075 171.512 161.746 169.761 159.394C168.009 157.026 166.927 154.16 166.517 150.794C166.048 146.948 166.552 142.951 168.029 138.804C168.664 137.168 169.53 135.552 170.625 133.954C171.721 132.356 172.853 131.054 174.021 130.045C174.652 129.543 175.387 129.052 176.226 128.572C177.538 127.846 178.482 127.447 179.055 127.377C179.242 127.355 179.34 127.39 179.352 127.483L179.348 127.649C179.365 127.788 179.506 127.842 179.769 127.81C179.893 127.795 180.305 127.689 181.006 127.494C180.113 128.043 179.647 128.36 179.61 128.443C179.622 128.536 179.759 128.567 180.023 128.534C180.364 128.493 180.913 128.347 181.67 128.097C182.03 128.211 182.386 128.293 182.739 128.345C184.377 128.617 185.298 128.741 185.499 128.717C185.701 128.692 185.794 128.618 185.779 128.494C185.745 128.214 185.775 128.069 185.868 128.058C185.914 128.052 185.963 128.07 186.016 128.111C186.279 128.204 186.859 128.315 187.756 128.441C190.207 128.788 191.773 128.92 192.456 128.836C192.967 128.774 193.43 128.891 193.844 129.186C194.258 129.482 194.961 129.57 195.954 129.449C197.48 129.31 198.252 129.318 198.271 129.473C198.293 129.659 197.47 129.941 195.8 130.317C194.344 130.637 193.62 130.835 193.63 130.913C193.633 130.944 193.753 130.953 193.987 130.94C195.772 130.864 196.682 130.965 196.716 131.245C196.741 131.446 196.532 131.668 196.089 131.911C195.705 132.116 195.233 132.252 194.675 132.32C193.899 132.414 193.523 132.555 193.546 132.741L193.589 132.901C193.613 133.103 193.387 133.311 192.91 133.527C192.343 133.785 191.557 133.991 190.553 134.145C190.078 134.25 189.849 134.372 189.866 134.512C189.894 134.744 190.315 134.906 191.129 134.995L192.387 135.054L191.394 135.624C190.952 135.867 190.699 136.055 190.637 136.189C190.574 136.322 190.552 136.459 190.569 136.598C190.592 136.784 190.659 137.012 190.77 137.282C191.043 138.099 191.265 139.213 191.438 140.624C191.812 143.695 191.899 146.148 191.697 147.983C191.31 150.612 190.581 153.022 189.51 155.215C188.453 157.39 187.166 159.098 185.649 160.337C183.463 162.036 181.192 163.029 178.834 163.317ZM180.524 161.883C180.757 161.855 180.869 161.802 180.859 161.724C180.848 161.631 180.741 161.597 180.54 161.621C180.385 161.64 180.256 161.68 180.153 161.739C180.064 161.782 180.021 161.818 180.025 161.85C180.032 161.912 180.199 161.923 180.524 161.883ZM181.674 161.436C182.149 161.331 182.837 160.971 183.738 160.358C184.756 159.667 185.5 159.057 185.971 158.527C186.319 158.154 186.491 157.952 186.487 157.921C186.441 157.927 186.169 158.149 185.671 158.587C184.944 159.211 184.007 159.845 182.857 160.489C181.988 160.973 181.56 161.277 181.575 161.401C181.579 161.432 181.612 161.443 181.674 161.436ZM177.644 156.072C180.079 155.775 181.922 154.236 183.172 151.455C184.347 148.824 184.726 145.803 184.31 142.391C184.028 140.08 183.533 138.283 182.826 137C182.506 136.44 182.334 136.06 182.309 135.858C182.283 135.641 182.464 135.32 182.853 134.895C183.383 134.342 183.781 133.987 184.045 133.829C184.134 133.786 184.174 133.726 184.165 133.649C184.14 133.447 183.502 133.123 182.252 132.678C181.611 132.457 180.833 132.402 179.918 132.514C179.018 132.624 177.988 132.891 176.828 133.316C176.644 133.873 176.558 134.199 176.569 134.292C176.583 134.4 176.62 134.451 176.682 134.443C176.76 134.434 176.856 134.383 176.971 134.29L177.084 134.253C177.088 134.284 176.986 134.414 176.778 134.644C176.511 134.913 176.384 135.093 176.395 135.187C176.397 135.202 176.414 135.208 176.445 135.204C176.491 135.198 176.52 135.242 176.531 135.335C176.547 135.459 176.5 135.662 176.393 135.942C176.213 136.405 176.118 136.912 176.106 137.465C176.093 138.002 175.834 138.844 175.328 139.992C174.167 142.605 173.57 144.802 173.535 146.585C173.516 148.366 173.55 149.606 173.635 150.304C173.922 152.661 174.635 154.377 175.773 155.45C176.007 155.689 176.216 155.852 176.4 155.94C176.748 156.087 177.163 156.13 177.644 156.072ZM189.224 153.644C189.27 153.639 189.378 153.484 189.545 153.18C189.849 152.702 189.988 152.355 189.961 152.138C189.946 152.014 189.915 151.954 189.869 151.96C189.776 151.971 189.621 152.321 189.406 153.008C189.277 153.37 189.216 153.582 189.224 153.644ZM190.109 151.411C190.155 151.406 190.255 151.189 190.407 150.761C190.72 149.841 190.845 149.126 190.783 148.614C190.775 148.552 190.756 148.523 190.725 148.527C190.632 148.538 190.474 149.053 190.252 150.072C190.113 150.734 190.054 151.158 190.077 151.344C190.083 151.391 190.093 151.413 190.109 151.411ZM235.686 152.441C234.693 152.562 233.85 152.428 233.158 152.041C232.066 151.481 231.396 150.634 231.148 149.5C230.915 148.363 230.766 147.531 230.702 147.004C230.465 145.065 230.353 142.269 230.364 138.616C230.331 135.252 230.281 133.29 230.213 132.732C230.197 132.608 230.181 132.539 230.164 132.525C230.086 132.535 229.872 132.97 229.52 133.832C229.167 134.677 228.75 135.775 228.269 137.124C227.21 140.055 226.34 142.279 225.659 143.794C224.978 145.31 224.339 146.332 223.743 146.861C223.146 147.39 222.429 147.706 221.591 147.808C218.691 148.162 216.984 146.229 216.469 142.011C216.344 140.987 216.24 139.552 216.156 137.704C215.964 133.415 215.93 130.428 216.055 128.744C216.087 128.489 216.097 128.307 216.083 128.198C216.072 128.105 216.043 128.061 215.996 128.067C215.748 128.097 214.753 130.65 213.011 135.727C210.817 142.133 208.978 146.859 207.492 149.905C205.434 154.076 203.393 156.308 201.367 156.602L200.576 156.699C199.009 156.89 197.715 156.347 196.694 155.071C196.204 154.407 195.782 153.466 195.429 152.25C195.06 151.036 194.823 149.994 194.717 149.126C194.589 148.071 194.559 145.635 194.629 141.817C194.647 140.162 194.705 138.573 194.803 137.05C195.168 131.78 195.589 127.1 196.066 123.013C196.544 118.925 196.93 116.674 197.226 116.26C197.515 116.052 197.634 115.73 197.581 115.296C197.528 114.862 197.617 114.56 197.848 114.39C197.904 114.336 197.956 114.306 198.002 114.3C198.064 114.293 198.103 114.351 198.118 114.475C198.131 114.583 198.126 114.734 198.102 114.925C197.953 116.282 197.911 117.231 197.977 117.774C198.021 118.131 198.112 118.301 198.252 118.284C198.345 118.272 198.426 118.223 198.494 118.136C198.562 118.049 198.588 117.943 198.573 117.819C198.556 117.68 198.579 117.606 198.641 117.599C198.672 117.595 198.697 117.608 198.716 117.637C198.749 117.648 198.772 117.709 198.785 117.817C198.838 118.251 198.854 118.895 198.832 119.748C198.774 121.077 198.689 122 198.579 122.517C198.542 122.6 198.529 122.681 198.538 122.758C198.557 122.914 198.636 122.983 198.776 122.966C198.869 122.954 198.965 122.643 199.063 122.033C199.178 121.421 199.267 120.67 199.332 119.781C199.395 118.876 199.46 118.184 199.527 117.703C199.61 117.221 199.675 116.977 199.721 116.971C199.752 116.967 199.777 117.043 199.796 117.198C199.853 117.663 199.839 118.326 199.755 119.186C199.592 121.205 199.67 123.525 199.99 126.147C200.168 127.605 200.346 128.488 200.526 128.797C200.696 129.028 200.79 129.221 200.809 129.376C200.828 129.531 200.772 129.656 200.642 129.75C200.527 129.843 200.483 129.998 200.51 130.215C200.521 130.308 200.556 130.398 200.614 130.486C200.895 131.113 201.165 132.489 201.424 134.613C201.672 136.645 201.802 138.29 201.813 139.548C201.812 140.571 201.841 141.323 201.9 141.804C201.964 142.331 202.089 142.584 202.275 142.561C202.539 142.529 202.865 142.103 203.253 141.285C203.807 140.147 205.476 135.638 208.262 127.759C210.449 121.558 212.103 117.248 213.225 114.828C214.345 112.394 215.417 110.791 216.44 110.021C217.422 109.162 218.3 108.685 219.075 108.59C220.332 108.437 221.472 109.463 222.497 111.667C222.851 112.38 223.114 113.441 223.286 114.853C223.529 116.838 223.602 119.954 223.505 124.2C223.474 126.785 223.481 128.256 223.524 128.613C223.532 128.675 223.536 128.714 223.538 128.729C223.556 128.743 223.572 128.749 223.588 128.747C223.696 128.733 223.859 128.391 224.076 127.719C224.243 127.148 224.309 126.723 224.275 126.443C224.267 126.381 224.245 126.329 224.209 126.286C224.185 126.226 224.171 126.173 224.165 126.126C224.154 126.033 224.203 125.98 224.311 125.967C224.528 125.94 225.012 125.063 225.761 123.334C227.886 118.432 230.042 115.847 232.229 115.58C232.772 115.514 233.235 115.568 233.618 115.741C234.002 115.915 234.579 116.584 235.351 117.75C235.777 118.406 236.096 118.957 236.308 119.404C236.607 120.044 236.857 121.194 237.059 122.854C237.466 126.188 237.734 129.028 237.862 131.374C237.976 132.95 238.047 133.854 238.075 134.087C238.107 134.351 238.131 134.481 238.147 134.48C238.224 134.47 238.517 133.514 239.024 131.61C239.546 129.689 239.926 128.549 240.166 128.189C240.421 127.827 240.586 127.445 240.663 127.042C240.74 126.639 240.825 126.432 240.918 126.421L240.941 126.418L240.944 126.441C240.978 126.72 240.497 128.904 239.5 132.992C238.519 137.079 238.044 139.254 238.076 139.517C238.169 139.506 238.631 138.127 239.461 135.382C240.304 132.619 240.78 131.231 240.889 131.217C240.997 131.33 241.069 131.534 241.105 131.828C241.196 132.573 241.02 133.909 240.579 135.836C240.255 137.182 240.114 138.025 240.155 138.367C240.172 138.506 240.22 138.571 240.297 138.562C240.313 138.56 240.342 138.541 240.385 138.504C240.443 138.465 240.495 138.443 240.542 138.437C240.65 138.424 240.716 138.511 240.739 138.697C240.794 139.147 240.51 140.629 239.888 143.145C239.211 145.982 238.552 147.936 237.911 149.005C237.286 150.073 236.438 150.673 235.368 150.803C234.732 150.881 234.126 150.687 233.55 150.222C232.974 149.757 232.646 149.199 232.566 148.548C232.54 148.33 232.486 148.148 232.405 148.001C232.324 147.853 232.245 147.784 232.167 147.793C232.028 147.81 231.971 147.928 231.998 148.145C232.047 148.548 232.305 149.115 232.772 149.845C233.084 150.342 233.421 150.718 233.783 150.973C234.145 151.228 234.446 151.372 234.686 151.406C234.926 151.439 235.147 151.444 235.349 151.419C236.357 151.296 237.205 150.768 237.894 149.834C238.476 149.055 239.202 147.652 240.072 145.625C240.941 143.583 241.453 142.553 241.608 142.534C241.639 142.53 241.657 142.551 241.663 142.598C241.688 142.8 241.589 143.347 241.367 144.24C240.49 148.014 239.275 150.508 237.723 151.72C237.109 152.11 236.43 152.35 235.686 152.441ZM219.617 146.916L219.614 146.892C219.605 146.815 219.333 146.454 218.798 145.811C218.29 145.259 217.932 144.516 217.723 143.581C217.603 143.108 217.31 141.223 216.845 137.927C217.071 140.686 217.212 142.29 217.266 142.74C217.401 143.841 217.598 144.62 217.858 145.076C218.045 145.447 218.325 145.806 218.698 146.154C219.249 146.669 219.555 146.923 219.617 146.916ZM223.063 146.708C223.884 145.695 224.347 145.103 224.452 144.933C224.555 144.747 224.603 144.623 224.595 144.561C224.592 144.53 224.574 144.517 224.543 144.52C224.419 144.536 224.147 144.884 223.726 145.565L223.063 146.708ZM216.932 136.901C217.099 136.078 217.188 135.516 217.199 135.216C217.225 134.788 217.223 134.45 217.193 134.201C217.174 134.046 217.149 133.971 217.118 133.974C217.072 133.98 217.007 134.161 216.925 134.518C216.788 134.944 216.756 135.459 216.83 136.064L216.932 136.901ZM217.295 125.358C217.342 125.353 217.403 125.274 217.479 125.124C217.553 124.957 217.611 124.785 217.652 124.607C217.694 124.428 217.707 124.277 217.691 124.153C217.657 123.874 217.532 123.748 217.315 123.774C217.113 123.799 217.034 124.115 217.076 124.724C217.129 125.158 217.202 125.37 217.295 125.358ZM217.249 123.428C217.342 123.417 217.412 123.345 217.459 123.214C217.521 123.08 217.541 122.92 217.518 122.734C217.469 122.331 217.389 122.128 217.279 122.126C217.184 122.122 217.129 122.12 217.113 122.122C216.927 122.145 216.722 122.335 216.498 122.693C216.348 122.885 216.277 123.011 216.285 123.073C216.289 123.104 216.314 123.117 216.36 123.111C216.422 123.104 216.527 123.06 216.675 122.979C216.836 122.88 216.955 122.826 217.033 122.817C217.095 122.809 217.129 122.829 217.134 122.875C217.14 122.922 217.125 122.994 217.09 123.093C217.053 123.176 217.038 123.249 217.046 123.311C217.057 123.404 217.125 123.443 217.249 123.428ZM265.872 156.598C264.91 156.716 264.004 156.574 263.152 156.175C262.276 155.699 261.579 155.154 261.064 154.54C260.475 153.841 259.976 152.784 259.568 151.37C259.159 149.956 258.865 148.512 258.685 147.039L258.411 144.404C258.294 143.442 258.202 142.95 258.136 142.927C258.028 142.94 257.801 143.337 257.456 144.119C257.044 145.004 256.371 146.07 255.437 147.317C254.519 148.562 253.71 149.479 253.01 150.068C251.874 150.947 250.763 151.452 249.677 151.585C247.49 151.851 245.74 150.86 244.427 148.612C243.911 147.605 243.561 146.349 243.377 144.844C243.173 143.169 243.176 141.194 243.386 138.917C243.787 134.587 244.737 130.118 246.238 125.512C248.125 119.694 250.492 115.281 253.336 112.274C254.759 110.779 256.401 109.917 258.262 109.69C259.658 109.52 261.11 109.744 262.618 110.363C264.01 110.933 264.725 111.373 264.762 111.684C264.772 111.761 264.73 111.806 264.637 111.817C264.498 111.834 264.268 111.76 263.949 111.594L263.824 111.538L263.804 111.565C263.809 111.611 264.076 111.862 264.604 112.317C265.342 112.951 265.722 113.353 265.742 113.524C265.748 113.57 265.728 113.597 265.681 113.602C265.526 113.621 265.074 113.338 264.326 112.752C263.456 112.071 262.889 111.747 262.626 111.779C262.346 111.813 262.215 111.9 262.232 112.039C262.253 112.21 262.528 112.468 263.058 112.812L263.908 113.393L262.826 112.841C261.357 112.154 260.049 111.881 258.901 112.021C258.575 112.06 258.287 112.151 258.037 112.291C257.802 112.43 257.687 112.523 257.693 112.569C257.702 112.647 258.072 112.649 258.803 112.576C260.47 112.435 261.791 112.81 262.765 113.698C262.924 113.836 263.006 113.928 263.011 113.975L262.991 114.001C262.929 114.009 262.67 113.883 262.213 113.624C261.201 113.07 260.261 112.847 259.392 112.952C258.989 113.002 258.58 113.13 258.164 113.338C257.763 113.529 257.362 113.861 256.964 114.335C256.563 114.793 256.263 115.239 256.064 115.672C255.863 116.09 255.777 116.416 255.805 116.648L255.851 116.832C255.913 116.95 255.949 117.048 255.958 117.125C255.977 117.281 255.932 117.365 255.824 117.378C255.622 117.403 255.395 118.186 255.142 119.728C255.043 120.338 254.985 120.896 254.968 121.402C254.967 121.906 254.55 123.326 253.717 125.663C252.792 128.404 252.005 131.373 251.356 134.569C251.069 135.957 250.95 136.853 250.999 137.257C251.077 137.893 251.24 138.195 251.488 138.165C252.077 138.093 252.833 136.742 253.756 134.111C254.322 132.562 255.239 129.562 256.507 125.11C257.038 123.267 257.541 121.655 258.018 120.274C258.509 118.876 258.855 118.031 259.055 117.739C259.444 117.188 260.089 116.858 260.988 116.748L261.384 116.7C262.795 116.528 263.763 116.976 264.287 118.046C264.56 118.611 264.769 119.482 264.913 120.661C265.049 121.778 265.125 123.177 265.142 124.86C265.304 135.355 265.567 142.091 265.93 145.069C266.051 146.062 266.184 146.636 266.329 146.791L266.375 146.786C266.623 146.755 267.072 146.236 267.72 145.229C268.409 144.169 269.121 142.909 269.856 141.45C270.591 139.991 271.142 138.696 271.508 137.565C271.838 136.533 272.307 135.406 272.913 134.183C273.52 132.96 274.121 131.375 274.718 129.429C275.311 127.578 275.669 126.645 275.794 126.63L275.825 126.697C275.85 126.899 275.755 127.28 275.54 127.842C275.286 128.597 275.167 129.044 275.184 129.184C275.19 129.23 275.208 129.252 275.239 129.248C275.363 129.233 275.641 128.608 276.073 127.375C276.283 126.767 276.46 126.155 276.605 125.54C277.028 123.977 277.394 122.909 277.702 122.336C277.83 122.1 277.918 121.979 277.965 121.974C278.011 121.968 278.039 122.004 278.049 122.082C278.083 122.361 277.847 123.72 277.342 126.158C276.846 128.548 276.507 130.03 276.325 130.603C276.226 130.82 276.185 130.998 276.202 131.137C276.207 131.184 276.233 131.204 276.28 131.199C276.404 131.183 276.804 130.143 277.481 128.077C278.041 126.34 278.421 125.46 278.623 125.435C278.747 125.42 278.831 125.591 278.874 125.948C278.946 126.537 278.858 127.366 278.611 128.435C278.385 129.423 278.288 130.049 278.32 130.312C278.336 130.436 278.39 130.493 278.483 130.481C278.514 130.478 278.559 130.464 278.619 130.441C278.678 130.402 278.73 130.38 278.777 130.375C278.885 130.361 278.949 130.432 278.968 130.587C279.008 130.913 278.862 131.915 278.531 133.592C278.012 136.174 277.574 137.935 277.216 138.876C277.064 139.304 276.997 139.595 277.016 139.751C277.021 139.797 277.04 139.818 277.071 139.815L277.138 139.783C277.237 139.692 277.386 139.43 277.585 138.996C277.799 138.561 278.013 138.055 278.226 137.478C278.439 136.901 278.668 136.322 278.912 135.742C279.169 135.143 279.388 134.676 279.567 134.339C279.744 133.987 279.93 133.634 280.123 133.28L280.035 134.306C279.975 134.974 279.699 136.063 279.206 137.571C278.713 139.079 278.135 140.669 277.473 142.339C276.809 143.994 276.185 145.393 275.6 146.534C273.228 151.089 271.067 154.021 269.117 155.329C267.977 156.051 266.895 156.474 265.872 156.598ZM278.485 149.866C276.81 150.07 275.531 149.644 274.646 148.587C274.185 148.029 273.909 147.378 273.818 146.634C273.74 145.998 273.842 145.222 274.124 144.306C274.39 143.392 274.724 142.706 275.125 142.248C275.348 142.016 275.448 141.799 275.423 141.598C275.417 141.551 275.396 141.506 275.359 141.464C275.321 141.405 275.299 141.353 275.293 141.306C275.287 141.26 275.316 141.233 275.378 141.225L275.474 141.237C275.567 141.226 275.839 141.004 276.289 140.571C276.74 140.138 277.256 139.587 277.835 138.919C279.078 137.492 280.064 136.412 280.793 135.677L282.621 133.825C283.536 132.942 283.986 132.431 283.969 132.292C283.957 132.198 283.454 132.008 282.459 131.72C281.314 131.372 280.06 130.769 278.697 129.912C277.331 129.04 276.281 128.176 275.547 127.321C274.387 125.81 273.7 124.178 273.486 122.425C273.292 120.828 273.487 119.143 274.074 117.372C274.611 115.968 275.568 114.325 276.944 112.441C278.333 110.54 279.763 108.839 281.233 107.338C282.702 105.836 283.841 104.981 284.65 104.772L285.436 104.629C284.626 105.735 284.233 106.382 284.255 106.568C284.265 106.645 284.332 106.676 284.456 106.661C284.549 106.65 284.67 106.612 284.819 106.546L284.889 106.538C284.92 106.534 284.937 106.54 284.938 106.555C284.957 106.71 284.67 107.194 284.077 108.006C283.506 108.752 283.23 109.195 283.247 109.335C283.251 109.366 283.268 109.38 283.299 109.376C283.408 109.363 283.637 109.177 283.987 108.82C284.183 108.623 284.334 108.439 284.439 108.269C284.68 107.925 285.025 107.584 285.471 107.246L285.582 107.185C285.597 107.183 285.607 107.198 285.611 107.229C285.628 107.368 285.299 107.896 284.624 108.813C284.067 109.542 283.634 110.248 283.324 110.931C282.89 111.897 282.491 113.394 282.124 115.422C282.008 116.019 281.945 116.404 281.934 116.578C281.902 116.96 281.66 117.745 281.206 118.934C280.765 120.216 280.574 121.105 280.634 121.601C280.703 122.159 281.012 122.696 281.563 123.211C282.112 123.711 282.787 124.085 283.589 124.334C284.322 124.543 285.137 124.837 286.034 125.216C286.767 125.552 287.794 125.843 289.115 126.092L291.074 126.467C292.131 125.33 292.917 124.542 293.43 124.102C293.956 123.644 294.444 123.254 294.893 122.932C295.924 122.223 296.703 121.64 297.229 121.183C298.211 120.323 299.072 119.644 299.814 119.144C300.088 118.937 300.256 118.83 300.318 118.823L300.344 118.843C300.359 118.967 300.037 119.298 299.379 119.834C298.893 120.24 298.657 120.497 298.67 120.606C298.674 120.637 298.699 120.649 298.745 120.644C299.05 120.559 299.774 120.046 300.919 119.104C302.323 117.972 303.251 117.379 303.7 117.324C303.793 117.313 303.842 117.323 303.846 117.354C303.859 117.462 303.527 117.841 302.851 118.49L301.119 120.165C299.537 121.649 298.753 122.445 298.766 122.554C298.772 122.6 298.79 122.622 298.821 122.618C298.914 122.606 299.333 122.296 300.077 121.685C301.565 120.465 302.387 119.845 302.542 119.827C302.712 119.806 302.805 119.857 302.82 119.981C302.834 120.09 302.797 120.244 302.711 120.443C302.514 120.892 302.144 121.402 301.599 121.972C301.068 122.525 300.768 122.9 300.697 123.097C300.625 123.279 300.592 123.393 300.598 123.44C300.607 123.518 300.674 123.549 300.798 123.534L301.028 123.482C301.043 123.48 301.052 123.487 301.054 123.502C301.073 123.658 300.56 124.421 299.515 125.791C298.357 127.271 297.788 128.088 297.807 128.243C297.962 128.224 298.522 127.849 299.488 127.117L300.985 126.037C300.529 126.943 300.206 127.525 300.018 127.784C299.829 128.043 299.656 128.238 299.498 128.367C299.339 128.481 299.265 128.584 299.277 128.677C299.294 128.817 299.548 129.03 300.039 129.316C301.386 130.16 302.133 131.194 302.283 132.419C302.389 133.288 302.193 134.264 301.696 135.348C301.214 136.43 300.355 137.518 299.119 138.613C297.898 139.707 295.946 141.125 293.263 142.869C286.668 147.136 281.743 149.469 278.485 149.866ZM290.876 137.234C290.969 137.223 291.089 137.176 291.236 137.095C291.384 137.015 291.536 136.909 291.694 136.78C291.849 136.635 291.924 136.539 291.919 136.493C291.915 136.462 291.874 136.451 291.797 136.461C291.704 136.472 291.575 136.519 291.412 136.602C291.265 136.683 291.113 136.796 290.958 136.941C290.816 137.068 290.748 137.155 290.754 137.202C290.757 137.233 290.798 137.243 290.876 137.234ZM292.999 135.865C293.061 135.858 293.174 135.813 293.337 135.73C293.5 135.647 293.608 135.571 293.663 135.501C293.715 135.416 293.74 135.358 293.736 135.327C293.727 135.249 293.675 135.216 293.582 135.227C293.412 135.248 293.258 135.346 293.122 135.52C293.001 135.692 292.944 135.801 292.95 135.848C292.952 135.863 292.968 135.869 292.999 135.865ZM346.75 153.583C346.533 153.609 346.223 152.427 345.822 150.036C345.64 149.066 345.484 148.11 345.353 147.165C345.132 145.477 344.99 144.636 344.928 144.644C344.881 144.649 344.847 144.882 344.824 145.341C344.801 145.8 344.799 146.359 344.816 147.018C344.849 147.676 344.893 148.292 344.947 148.868C345.049 149.705 345.086 150.197 345.056 150.342C345.027 150.487 344.973 150.565 344.896 150.574C344.834 150.582 344.743 150.545 344.623 150.466C344.264 150.368 343.977 149.435 343.762 147.666C343.648 146.736 343.528 146.074 343.401 145.68C343.275 145.286 343.113 145.054 342.915 144.984C342.654 144.905 342.401 144.385 342.158 143.423C341.915 142.461 341.626 140.867 341.292 138.641C341.18 137.852 341.104 137.428 341.066 137.37L341.008 137.283C340.868 137.3 340.759 138.399 340.678 140.581C340.676 141.463 340.628 141.91 340.535 141.921C340.473 141.929 340.368 141.784 340.222 141.487C340.016 141.087 339.86 140.453 339.754 139.584C339.729 139.383 339.713 139.188 339.706 139C339.697 138.796 339.682 138.609 339.661 138.439C339.574 137.725 339.444 137.363 339.269 137.353C339.087 137.407 337.477 137.69 334.438 138.202C333.407 138.391 332.433 138.541 331.518 138.653C328.463 139.025 326.087 138.969 324.39 138.483C321.991 137.784 320.638 136.17 320.329 133.642C320.17 132.339 320.505 130.89 321.334 129.293C322.264 127.496 323.989 125.317 326.51 122.759C329.03 120.185 332.495 117.039 336.905 113.322L342.323 108.765L343.539 102.667C345.987 90.4686 349.614 77.6777 354.42 64.2944C356.755 57.8865 358.243 53.5652 358.883 51.3306C359.426 49.4543 359.833 47.8227 360.104 46.4358C360.376 45.049 360.492 44.1927 360.452 43.867C360.443 43.7895 360.421 43.7448 360.389 43.7331C360.369 43.704 360.329 43.6932 360.267 43.7008C359.646 43.7764 357.96 45.0524 355.208 47.5287C353.918 48.6935 352.737 49.8528 351.666 51.0066L348.359 54.4793C347.243 55.6543 345.389 57.8794 342.798 61.1547C341.611 62.6531 340.652 63.8247 339.921 64.6695C339.203 65.4968 338.806 65.9152 338.728 65.9246C338.713 65.9265 338.704 65.9197 338.702 65.9042L338.711 65.785C338.707 65.754 338.698 65.7395 338.682 65.7414C338.636 65.747 338.533 65.8775 338.376 66.1329C338.233 66.3863 338.086 66.5933 337.932 66.7537C337.794 66.9122 337.686 66.9962 337.609 67.0056C337.562 67.0113 337.535 66.9831 337.527 66.9211C337.505 66.7349 337.617 66.43 337.864 66.0063C338.231 65.2691 338.391 64.7065 338.343 64.3188C338.316 64.2276 338.264 64.1868 338.187 64.1962C338.047 64.2132 337.824 64.4451 337.516 64.8919C337.36 65.1628 337.267 65.3001 337.236 65.3039L337.212 65.3067C337.205 65.2447 337.267 65.0481 337.4 64.7171C337.594 64.1111 337.993 63.3855 338.599 62.5404C339.434 61.258 339.846 60.5703 339.835 60.4772L338.268 62.3446C337.27 63.7099 336.716 64.3992 336.608 64.4124C336.592 64.4143 336.583 64.4075 336.581 64.392C336.564 64.2524 337.104 63.2578 338.201 61.4084C339.214 59.6478 339.707 58.6589 339.681 58.4418C339.652 58.2091 339.836 57.8405 340.231 57.3358C340.536 56.9995 340.667 56.653 340.623 56.2963C340.616 56.2342 340.6 56.1731 340.577 56.113C340.552 56.0373 340.535 55.9607 340.526 55.8832C340.488 55.573 340.573 55.3029 340.781 55.0729C341.088 54.7521 341.23 54.4909 341.205 54.2892C341.196 54.2117 341.264 53.9987 341.41 53.6503C341.572 53.3 341.777 52.913 342.024 52.4893C342.574 51.4463 342.834 50.8008 342.803 50.5526C342.756 50.1649 343.504 49.137 345.048 47.4691C346.606 45.7838 348.376 44.0333 350.358 42.2175C352.356 40.3998 354.073 38.994 355.51 38.0002C357.771 36.5283 359.808 35.6817 361.623 35.4604C362.491 35.3545 363.314 35.3879 364.091 35.5608C364.894 35.8249 365.619 36.4763 366.265 37.5151C366.911 38.5539 367.313 39.717 367.47 41.0043C367.742 43.2377 367.486 46.0472 366.703 49.4325C365.918 52.8024 364.335 57.8986 361.956 64.7211C360.011 70.3259 358.734 74.0548 358.126 75.9077C355.913 82.8044 354.012 89.545 352.423 96.1296C351.742 98.9358 351.427 100.548 351.478 100.967C351.866 100.92 353.908 99.3406 357.606 96.2295C361.319 93.1165 365.619 89.3967 370.506 85.0702C376.874 79.4612 382.342 74.4736 386.909 70.1073C387.935 69.1007 390.316 66.6145 394.051 62.6488C397.012 59.4386 399.778 56.0476 402.349 52.4757C404.92 48.9039 406.549 46.1945 407.237 44.3477C407.52 43.5733 407.747 43.1757 407.918 43.1549C407.98 43.1474 408.019 43.2056 408.034 43.3297C408.033 43.4557 407.998 43.6174 407.928 43.8149C407.814 44.175 407.761 44.3861 407.769 44.4481C407.774 44.4947 407.793 44.516 407.824 44.5123C407.948 44.4971 408.217 43.9291 408.631 42.8082C408.952 41.9506 409.174 41.5143 409.298 41.4991C409.314 41.4972 409.323 41.5118 409.327 41.5428C409.363 41.8375 409.217 42.4456 408.888 43.3672C408.56 44.2887 408.42 44.9511 408.47 45.3543C408.496 45.5715 408.556 45.6744 408.649 45.663C408.738 45.6207 408.894 45.4128 409.116 45.0394C409.303 44.7648 409.42 44.6246 409.466 44.6189C409.482 44.617 409.492 44.6394 409.498 44.6859C409.415 45.1682 409.037 46.1351 408.364 47.5867C408.04 48.2873 407.692 48.9829 407.32 49.6737C406.749 50.798 406.47 51.4144 406.483 51.523C406.485 51.5385 406.494 51.5453 406.509 51.5434C406.711 51.5188 407.473 50.2217 408.797 47.6519L410.633 44.1224C410.649 44.1205 410.657 44.1273 410.659 44.1429C410.68 44.3135 410.33 45.2533 409.61 46.9625C408.767 48.9542 408.015 50.5964 407.354 51.889C406.953 52.5991 406.704 53.204 406.607 53.7037C406.509 54.1879 406.276 54.6649 405.908 55.1348C405.743 55.3281 405.608 55.5806 405.505 55.8923C405.417 56.2021 405.389 56.4889 405.421 56.7526C405.494 57.3574 405.389 57.7796 405.103 58.0191C404.817 58.2585 404.575 58.658 404.375 59.2175C404.106 59.8485 403.573 60.7714 402.777 61.9861C401.996 63.1989 401.622 63.9371 401.654 64.2008L401.657 64.2241C401.661 64.6485 400.512 66.1267 398.207 68.6586C395.919 71.1887 393.231 73.9326 390.145 76.8905C384.914 81.8885 379.938 86.4542 375.216 90.5874C370.51 94.7188 364.257 99.9754 356.456 106.357C353.136 109.076 351.146 110.767 350.487 111.43C350.04 111.893 349.734 112.285 349.568 112.604C349.402 112.923 349.266 113.294 349.16 113.716C348.637 115.622 348.263 118.099 348.036 121.149C347.978 122.353 347.861 123.776 347.683 125.419C347.579 126.628 347.55 127.426 347.598 127.814C347.607 127.891 347.614 127.946 347.618 127.977C347.635 127.99 347.737 127.986 347.923 127.963C348.853 127.85 352.07 127.119 357.572 125.771C364.351 124.173 371.408 122.927 378.744 122.032C388.174 120.882 395.095 120.581 399.506 121.129C400.951 121.362 402.48 121.703 404.093 122.152C405.706 122.601 407.051 123.043 408.127 123.478C409.204 123.914 409.757 124.255 409.787 124.503C409.764 124.569 409.755 124.625 409.76 124.672C409.776 124.796 409.876 124.91 410.062 125.013C410.162 125.064 410.228 125.087 410.259 125.083C410.29 125.08 410.304 125.062 410.3 125.031C410.294 124.985 410.246 124.912 410.155 124.813C410.08 124.712 410.04 124.638 410.034 124.591C410.026 124.529 410.054 124.495 410.116 124.487C410.271 124.468 410.427 124.52 410.583 124.643C410.672 124.726 410.731 124.821 410.76 124.928C410.787 125.019 411.058 125.309 411.574 125.797C412.088 126.269 412.73 126.821 413.499 127.451C416.422 129.865 418.166 132.092 418.729 134.132C418.808 134.39 418.855 134.581 418.87 134.706C418.88 134.783 418.869 134.824 418.838 134.828C418.745 134.839 418.289 134.202 417.471 132.916C416.424 131.297 415.226 129.932 413.879 128.821C412.487 127.732 410.803 126.701 408.827 125.73C408.008 125.342 407.459 125.157 407.177 125.176C407.131 125.182 407.109 125.192 407.111 125.208C407.124 125.316 407.446 125.505 408.077 125.775C409.095 126.249 410.171 126.881 411.307 127.671C412.442 128.461 413.418 129.239 414.236 130.005C415.069 130.77 415.517 131.345 415.58 131.73C415.589 131.808 415.547 131.852 415.454 131.864C415.371 131.827 415.258 131.738 415.115 131.598C414.833 131.349 414.629 131.232 414.505 131.248C414.474 131.251 414.452 131.262 414.438 131.279C414.425 131.297 414.41 131.306 414.395 131.308C414.255 131.325 413.865 131.027 413.223 130.412C412.524 129.711 411.266 128.888 409.451 127.944C408.745 127.574 408.291 127.401 408.089 127.426C408.027 127.433 408.005 127.507 408.022 127.647C408.031 127.724 408.048 127.801 408.073 127.876C408.114 127.95 408.136 128.003 408.14 128.034C408.146 128.08 408.102 128.109 408.009 128.12C407.761 128.151 407.206 128.053 406.344 127.828C405.023 127.453 403.723 127.179 402.442 127.005C400.664 126.749 398.626 126.628 396.33 126.64C395.529 126.659 394.989 126.686 394.71 126.72C394.555 126.739 394.455 126.759 394.411 126.78C394.428 126.92 395.366 127.065 397.226 127.216C399.164 127.357 401.119 127.709 403.092 128.271C403.859 128.493 404.249 128.658 404.263 128.766C404.264 128.782 404.242 128.792 404.196 128.798C403.901 128.834 402.94 128.762 401.312 128.583C398.453 128.239 395.55 128.121 392.604 128.228C389.671 128.318 385.677 128.672 380.621 129.288C374.525 130.031 369.795 130.742 366.431 131.42C360.171 132.75 354.95 133.89 350.769 134.841C348.501 135.354 347.293 135.643 347.144 135.708C347.042 135.909 346.963 137.58 346.905 140.719C346.868 141.967 346.852 143 346.858 143.818C346.888 145.231 346.803 145.95 346.601 145.974L346.555 145.98C346.493 145.988 346.456 146.267 346.445 146.82C346.449 147.37 346.51 148.134 346.63 149.111C346.942 152.064 346.983 153.554 346.75 153.583ZM331.215 138.099C331.649 138.046 331.863 137.997 331.857 137.95C331.846 137.857 331.661 137.825 331.302 137.852C331.116 137.875 330.941 137.92 330.776 137.988C330.671 138.032 330.621 138.069 330.624 138.1C330.628 138.131 330.825 138.131 331.215 138.099ZM327.822 138.159C328.272 138.104 328.495 138.061 328.491 138.03C328.489 138.015 328.315 138.004 327.968 137.999C324.776 137.775 322.692 136.817 321.714 135.126C321.535 134.817 321.399 134.669 321.306 134.68C321.244 134.687 321.219 134.746 321.233 134.854C321.261 135.087 321.454 135.441 321.811 135.917C322.442 136.706 323.319 137.315 324.442 137.745C325.563 138.159 326.69 138.297 327.822 138.159ZM321.035 132.848C321.082 132.842 321.141 132.811 321.213 132.755C321.298 132.682 321.365 132.587 321.414 132.471C321.461 132.339 321.478 132.219 321.465 132.111C321.45 131.986 321.511 131.719 321.65 131.309C321.805 130.896 321.994 130.448 322.218 129.964C322.458 129.479 322.612 129.129 322.681 128.916C322.763 128.686 322.801 128.548 322.795 128.501C322.793 128.486 322.777 128.48 322.746 128.483C322.653 128.495 322.432 128.876 322.083 129.627C321.293 131.282 320.884 132.315 320.855 132.728C320.867 132.821 320.927 132.861 321.035 132.848ZM331.866 131.243C333.262 131.073 335.856 130.599 339.65 129.822C340.113 125.232 340.353 122.551 340.369 121.777C340.401 121.144 340.478 120.678 340.599 120.38C340.65 120.279 340.67 120.182 340.658 120.089C340.653 120.043 340.627 120.022 340.58 120.028C340.472 120.041 340.067 120.335 339.365 120.908C338.662 121.466 337.834 122.165 336.882 123.005C335.945 123.844 335.019 124.704 334.104 125.587C332.201 127.409 330.905 128.716 330.214 129.509C329.539 130.299 329.217 130.819 329.247 131.067C329.287 131.393 330.16 131.452 331.866 131.243ZM331.826 119.301C331.95 119.286 332.252 119.052 332.732 118.6C333.341 118.038 333.638 117.703 333.625 117.594C333.623 117.579 333.614 117.572 333.599 117.574C333.475 117.589 333.173 117.823 332.693 118.275C332.084 118.837 331.787 119.172 331.8 119.281C331.802 119.296 331.811 119.303 331.826 119.301ZM333.937 117.438C334.154 117.412 335.505 116.358 337.99 114.276C338.732 113.65 339.36 113.117 339.873 112.677C340.386 112.236 340.663 111.998 340.706 111.961C340.764 111.923 340.791 111.88 340.785 111.834L340.698 111.702C340.512 111.725 339.427 112.574 337.443 114.248C335.073 116.237 333.895 117.294 333.91 117.418L333.937 117.438ZM347.059 90.2906C347.106 90.2849 347.22 90.1215 347.401 89.8004C347.687 89.3089 347.818 88.9624 347.794 88.7608C347.778 88.6367 347.748 88.5775 347.701 88.5832C347.608 88.5945 347.454 88.9439 347.239 89.6313C347.11 89.9933 347.049 90.2053 347.056 90.2674L347.059 90.2906ZM347.778 88.2433C347.886 88.23 348.124 87.5951 348.49 86.3384C348.741 85.4263 348.857 84.8927 348.838 84.7376C348.834 84.7066 348.824 84.692 348.809 84.6939C348.716 84.7053 348.507 85.2502 348.182 86.3287C347.855 87.3917 347.7 87.993 347.717 88.1326C347.726 88.2102 347.747 88.2471 347.778 88.2433ZM348.994 83.8921C349.072 83.8827 349.195 83.7338 349.365 83.4456C349.638 82.9716 349.753 82.5639 349.711 82.2227C349.696 82.0986 349.658 82.0404 349.596 82.048C349.518 82.0574 349.406 82.2363 349.26 82.5848C349.02 83.1965 348.912 83.6031 348.936 83.8048C348.944 83.8668 348.963 83.8959 348.994 83.8921ZM352.691 72.5802C352.784 72.5688 352.915 72.4113 353.082 72.1075C353.355 71.6335 353.478 71.2879 353.452 71.0708C353.444 71.0087 353.425 70.9796 353.394 70.9834C353.301 70.9947 353.17 71.1523 353.003 71.4561C352.73 71.9301 352.607 72.2757 352.633 72.4928C352.641 72.5548 352.66 72.584 352.691 72.5802ZM353.714 69.9291C353.822 69.9159 354.05 69.463 354.398 68.5706C354.744 67.6627 354.9 67.0692 354.866 66.79C354.86 66.7435 354.842 66.7221 354.811 66.7259C354.686 66.741 354.463 67.1696 354.141 68.0117C353.787 68.9835 353.627 69.6091 353.661 69.8882C353.665 69.9193 353.683 69.9329 353.714 69.9291ZM355.007 66.2061C355.053 66.2004 355.145 66.1106 355.281 65.9366C355.431 65.7452 355.497 65.5796 355.48 65.4401C355.471 65.3625 355.427 65.3285 355.35 65.3379C355.303 65.3436 355.253 65.3812 355.198 65.4508C355.144 65.5204 355.088 65.6453 355.031 65.8253C354.988 65.988 354.97 66.1004 354.978 66.1624C354.982 66.1934 354.991 66.208 355.007 66.2061ZM414.673 127.591C414.596 127.6 413.962 127.182 412.773 126.335C411.771 125.607 411.262 125.174 411.245 125.034C411.243 125.019 411.25 125.01 411.265 125.008C411.467 124.983 412.118 125.416 413.218 126.305C414.179 127.085 414.663 127.506 414.671 127.568L414.673 127.591ZM407.794 53.37C407.748 53.3757 407.719 53.332 407.708 53.239C407.696 53.1459 407.874 52.9274 408.241 52.5836C408.45 52.3536 408.569 52.2367 408.6 52.2329L408.626 52.2533C408.63 52.2843 408.545 52.4285 408.372 52.6857C408.095 53.1287 407.903 53.3568 407.794 53.37ZM339.799 56.8927C339.675 56.9078 339.607 56.8688 339.596 56.7758C339.588 56.7137 339.603 56.6411 339.64 56.5579C339.675 56.4591 339.72 56.375 339.774 56.3054C339.844 56.2339 339.895 56.1962 339.926 56.1924C340.035 56.1792 340.103 56.2889 340.131 56.5216C340.141 56.5991 340.112 56.6814 340.043 56.7684C339.989 56.838 339.907 56.8794 339.799 56.8927ZM426.826 139.921C426.267 139.99 425.739 139.983 425.241 139.902C422.779 139.463 421.158 138.362 420.376 136.6C419.593 134.822 419.1 133.103 418.897 131.444C418.678 129.645 418.635 127.549 418.768 125.155C419.029 119.425 420.015 113.048 421.724 106.024C423.959 96.8581 426.737 90.1443 430.058 85.8828C431.71 83.6823 433.583 82.4543 435.677 82.199L436.049 82.1536C438.267 81.8831 440.148 82.6611 441.693 84.4875C442.725 85.7154 443.347 87.2057 443.561 88.9583C443.909 91.8122 443.262 95.0313 441.622 98.6156C440.319 101.482 438.455 104.267 436.03 106.971C435.419 107.644 434.582 108.391 433.517 109.214C432.453 110.036 431.423 110.76 430.429 111.385C429.45 112.008 428.767 112.343 428.379 112.39C427.999 112.5 427.629 113.466 427.269 115.288C426.907 117.095 426.607 119.218 426.369 121.655C425.936 125.848 425.825 128.812 426.037 130.55C426.115 131.186 426.236 131.604 426.402 131.804C426.719 132.08 427.018 132.201 427.297 132.167C427.56 132.135 428.132 131.656 429.01 130.73C431.2 128.417 432.857 126.326 433.983 124.457C435.456 121.948 436.737 119.934 437.827 118.416C438.232 117.863 438.782 116.891 439.478 115.499C439.999 114.476 440.951 112.667 442.335 110.075L443.56 107.729C444.643 105.645 445.24 104.597 445.348 104.583C445.358 104.661 445.235 105.007 444.979 105.62C444.632 106.387 444.465 106.824 444.478 106.933L444.504 106.953C444.659 106.934 445.148 106.103 445.971 104.46C447.006 102.366 447.584 101.296 447.704 101.25C447.825 101.204 447.892 101.18 447.908 101.178C447.954 101.173 447.982 101.201 447.989 101.263C448.036 101.651 447.401 103.475 446.083 106.737C445.767 107.5 445.563 107.957 445.471 108.11C445.358 108.344 445.307 108.508 445.319 108.601C445.328 108.678 445.356 108.714 445.403 108.709C445.449 108.703 445.584 108.521 445.808 108.163C446.03 107.79 446.286 107.302 446.574 106.701C446.863 106.099 447.143 105.553 447.414 105.063C447.685 104.574 447.869 104.276 447.966 104.17C448.079 104.062 448.166 104.004 448.228 103.996C448.321 103.985 448.378 104.064 448.399 104.235C448.457 104.716 448.272 105.581 447.842 106.829C447.58 107.522 447.467 108.016 447.503 108.311C447.522 108.466 447.581 108.561 447.679 108.596C447.776 108.616 447.833 108.696 447.85 108.835C447.922 109.425 447.445 111.191 446.418 114.133C446.137 114.923 445.923 115.493 445.777 115.841C445.496 116.505 445.362 116.891 445.375 117C445.377 117.015 445.385 117.022 445.401 117.02C445.541 117.003 445.974 116.297 446.701 114.902C447.699 113.017 448.314 112.061 448.547 112.032C448.593 112.027 448.622 112.07 448.634 112.163C448.706 112.753 448.089 114.473 446.784 117.324C445.216 120.6 443.26 123.987 440.916 127.484C438.586 130.963 436.475 133.661 434.583 135.575C431.909 138.168 429.323 139.617 426.826 139.921ZM419.471 127.431C419.502 127.427 419.593 126.692 419.745 125.225C419.834 124.412 419.876 123.918 419.871 123.746C419.865 123.699 419.847 123.678 419.816 123.682C419.785 123.686 419.74 123.77 419.682 123.934C419.606 124.085 419.547 124.376 419.505 124.806C419.461 125.221 419.437 125.672 419.434 126.16C419.434 126.806 419.443 127.206 419.462 127.361L419.471 127.431ZM419.793 122.717C419.855 122.709 419.925 122.575 420.003 122.313C420.111 121.906 420.145 121.54 420.106 121.215C420.087 121.059 420.053 120.977 420.005 120.967C419.927 120.977 419.849 121.112 419.771 121.373C419.663 121.78 419.629 122.146 419.669 122.472C419.687 122.627 419.729 122.709 419.793 122.717ZM428.432 111.274C428.463 111.27 428.52 111.216 428.601 111.112C428.698 111.006 428.807 110.866 428.928 110.694C429.047 110.507 429.103 110.382 429.095 110.32C429.084 110.227 428.954 110.195 428.706 110.226C428.566 110.243 428.449 110.312 428.353 110.434C428.256 110.54 428.216 110.663 428.233 110.803C428.273 111.128 428.339 111.285 428.432 111.274ZM421.912 111.054C422.021 111.041 422.184 110.509 422.403 109.459C422.567 108.747 422.634 108.259 422.602 107.995C422.596 107.948 422.585 107.926 422.57 107.928C422.461 107.941 422.292 108.355 422.06 109.171C421.843 109.968 421.748 110.484 421.777 110.716C421.805 110.949 421.85 111.062 421.912 111.054ZM428.524 109.705C428.741 109.678 429.133 109.473 429.7 109.089C430.485 108.552 430.956 108.157 431.114 107.901L431.108 107.855C431.106 107.839 431.09 107.833 431.059 107.837C430.842 107.864 430.434 108.071 429.836 108.458C429.426 108.713 429.086 108.959 428.816 109.197C428.546 109.434 428.416 109.592 428.425 109.669C428.429 109.7 428.462 109.712 428.524 109.705ZM428.807 108.537C428.962 108.518 429.227 108.368 429.602 108.086C429.617 108.084 429.624 108.075 429.622 108.06C429.929 107.865 430.068 107.651 430.04 107.418C430.034 107.372 430.004 107.32 429.95 107.264C429.91 107.19 429.887 107.138 429.884 107.107C429.88 107.076 429.886 107.059 429.901 107.057C429.932 107.054 429.973 107.064 430.023 107.09C430.074 107.115 430.138 107.123 430.215 107.114C430.432 107.087 430.632 106.984 430.815 106.804C431.289 106.306 431.753 105.525 432.206 104.463C432.389 104.031 432.47 103.73 432.45 103.559C432.416 103.28 432.612 102.564 433.038 101.41C433.464 100.256 433.661 99.5549 433.631 99.3068C433.618 99.1982 433.725 98.8468 433.951 98.2525C434.178 97.6582 434.473 96.9846 434.838 96.2318C435.683 94.3816 436.054 93.0377 435.952 92.2001C435.903 91.7969 435.74 91.557 435.463 91.4806L435.37 91.492C434.966 91.5411 434.42 92.1587 433.73 93.3447C433.007 94.6449 432.253 96.3345 431.468 98.4136C430.681 100.477 429.995 102.662 429.41 104.969L429.378 105.091C428.87 106.994 428.635 108.093 428.671 108.388C428.684 108.497 428.729 108.546 428.807 108.537ZM453.911 133.171C453.802 133.184 453.663 132.493 453.493 131.097L453.308 129.585C453.138 128.189 452.975 127.501 452.82 127.519C452.727 127.531 452.666 127.672 452.636 127.943C452.604 128.199 452.611 128.513 452.656 128.885C452.828 130.297 452.744 131.023 452.403 131.065C452.31 131.076 452.193 131.027 452.054 130.918C451.915 130.809 451.816 130.711 451.759 130.624C451.714 130.519 451.689 130.443 451.684 130.397C451.678 130.35 451.681 130.311 451.693 130.278C451.728 130.179 451.732 130.021 451.706 129.804C451.676 129.556 451.583 129.182 451.427 128.681C451.164 127.942 450.955 127.582 450.8 127.601L450.709 127.635C450.554 127.654 450.374 127.338 450.169 126.686C449.938 125.958 449.717 124.923 449.506 123.579C449.311 122.234 449.141 121.554 448.998 121.54C448.858 121.557 448.787 122.132 448.783 123.266C448.802 124.318 448.707 125.093 448.5 125.591C448.465 125.689 448.432 125.741 448.401 125.745C448.292 125.758 448.174 125.237 448.045 124.182C447.446 119.266 447.515 111.253 448.254 100.144C448.866 90.704 449.715 82.6908 450.8 76.1046C452.753 64.8795 454.827 56.0085 457.023 49.4916C458.443 45.2573 459.983 41.3704 461.645 37.8307C462.322 36.4102 462.753 35.6886 462.94 35.6659L463.082 35.6721C463.222 35.6551 463.405 35.5461 463.632 35.3453C463.784 35.1694 463.883 35.0786 463.93 35.0729C463.961 35.0691 463.979 35.0905 463.985 35.137C463.994 35.2146 463.972 35.3589 463.92 35.57C463.778 36.0909 463.719 36.4444 463.742 36.6305C463.763 36.8011 463.843 36.8779 463.982 36.8609C464.029 36.8552 464.082 36.8409 464.143 36.8178C464.203 36.7947 464.264 36.7794 464.326 36.7718C464.434 36.7586 464.494 36.7985 464.506 36.8916C464.526 37.0622 464.371 37.5927 464.039 38.4832C463.826 39.0601 463.731 39.4416 463.753 39.6278C463.759 39.6743 463.77 39.6966 463.785 39.6947C463.956 39.6739 464.264 39.1012 464.709 37.9765C465.029 37.1189 465.236 36.6844 465.329 36.6731C465.36 36.6693 465.38 36.7062 465.39 36.7837C465.42 37.0319 465.279 37.6865 464.968 38.7477C464.716 39.5182 464.582 40.2272 464.566 40.8744C464.551 41.5217 464.608 42.3804 464.739 43.4506L465.256 47.307C463.304 53.4951 462.11 57.45 461.674 59.1716L460.423 64.2116C459.303 68.9604 458.214 75.2635 457.157 83.1211C456.114 90.9612 455.574 96.922 455.537 101.003C455.543 102.215 455.51 102.911 455.437 103.093C455.379 103.258 455.314 104.856 455.243 107.887C455.161 111.344 455.127 113.583 455.141 114.604C455.173 115.765 455.114 116.638 454.965 117.223C454.844 117.915 454.822 119.153 454.898 120.938C454.983 122.927 454.974 124.266 454.869 124.956C454.744 125.742 454.728 126.515 454.821 127.275C454.891 127.849 454.88 128.142 454.786 128.153C454.74 128.159 454.68 128.119 454.607 128.034C454.549 127.946 454.496 127.905 454.45 127.911C454.31 127.928 454.239 128.377 454.237 129.259C454.237 130.298 454.225 131.102 454.2 131.672C454.173 132.226 454.134 132.617 454.083 132.843C454.046 133.052 453.988 133.162 453.911 133.171ZM449.67 92.3925C449.778 92.3793 449.864 91.9202 449.927 91.0153C449.939 90.7305 449.934 90.495 449.912 90.3089C449.883 90.0762 449.854 89.9618 449.822 89.9656C449.776 89.9712 449.727 90.1504 449.676 90.5029C449.561 91.115 449.53 91.6304 449.581 92.0492C449.609 92.2819 449.639 92.3963 449.67 92.3925ZM449.878 89.0616C449.924 89.056 450.006 88.9515 450.123 88.7484C450.3 88.3962 450.375 88.1038 450.346 87.8711C450.337 87.7936 450.317 87.7567 450.286 87.7605C450.239 87.7662 450.158 87.8783 450.043 88.097C449.866 88.4492 449.791 88.7416 449.82 88.9742C449.827 89.0363 449.847 89.0654 449.878 89.0616ZM451.474 80.0836C451.691 80.0571 451.783 79.9042 451.749 79.6251C451.715 79.3459 451.734 78.9186 451.805 78.3432C451.833 78.0565 451.841 77.8666 451.83 77.7735C451.821 77.6959 451.808 77.6581 451.793 77.66C451.653 77.677 451.504 78.1359 451.347 79.0366C451.295 79.3892 451.281 79.6585 451.304 79.8447C451.324 80.0153 451.381 80.0949 451.474 80.0836ZM468.708 131.367C468.599 131.38 468.46 130.689 468.289 129.293L468.105 127.781C467.935 126.385 467.772 125.696 467.617 125.715C467.524 125.726 467.462 125.868 467.432 126.139C467.401 126.395 467.408 126.709 467.453 127.081C467.625 128.492 467.54 129.219 467.199 129.26C467.106 129.272 466.99 129.223 466.851 129.114C466.712 129.005 466.613 128.907 466.555 128.819C466.511 128.715 466.486 128.639 466.48 128.593C466.475 128.546 466.478 128.506 466.489 128.473C466.525 128.375 466.529 128.217 466.502 128C466.472 127.751 466.379 127.377 466.224 126.877C465.961 126.137 465.751 125.777 465.596 125.796L465.506 125.831C465.351 125.85 465.171 125.533 464.965 124.881C464.735 124.154 464.514 123.118 464.303 121.775C464.107 120.429 463.938 119.749 463.795 119.735C463.655 119.752 463.584 120.328 463.58 121.461C463.598 122.514 463.504 123.289 463.297 123.786C463.262 123.885 463.229 123.936 463.198 123.94C463.089 123.953 462.97 123.433 462.842 122.378C462.242 117.461 462.312 109.449 463.051 98.3399C463.662 88.8995 464.511 80.8863 465.597 74.3002C467.549 63.075 469.623 54.204 471.819 47.6871C473.239 43.4529 474.78 39.5659 476.442 36.0262C477.119 34.6057 477.55 33.8841 477.736 33.8614L477.879 33.8677C478.018 33.8506 478.202 33.7417 478.429 33.5408C478.581 33.3649 478.68 33.2741 478.726 33.2684C478.757 33.2647 478.776 33.286 478.781 33.3326C478.791 33.4101 478.769 33.5544 478.716 33.7655C478.575 34.2864 478.516 34.64 478.539 34.8261C478.559 34.9967 478.64 35.0735 478.779 35.0565C478.826 35.0508 478.879 35.0364 478.939 35.0133C478.999 34.9903 479.06 34.9749 479.122 34.9674C479.231 34.9541 479.291 34.994 479.302 35.0871C479.323 35.2577 479.167 35.7883 478.835 36.6788C478.622 37.2557 478.527 37.6372 478.55 37.8233C478.556 37.8698 478.566 37.8922 478.582 37.8903C478.752 37.8695 479.06 37.2967 479.505 36.172C479.826 35.3145 480.033 34.88 480.126 34.8686C480.157 34.8648 480.177 34.9017 480.186 34.9793C480.217 35.2274 480.076 35.8821 479.765 36.9432C479.512 37.7138 479.379 38.4227 479.363 39.07C479.348 39.7172 479.405 40.576 479.536 41.6462L480.053 45.5025C478.1 51.6906 476.906 55.6455 476.471 57.3672L475.22 62.4072C474.099 67.1559 473.01 73.4591 471.954 81.3166C470.911 89.1568 470.371 95.1176 470.333 99.199C470.339 100.41 470.306 101.107 470.234 101.289C470.175 101.453 470.11 103.051 470.039 106.082C469.957 109.539 469.923 111.779 469.938 112.8C469.969 113.961 469.91 114.834 469.761 115.419C469.641 116.11 469.619 117.349 469.695 119.134C469.78 121.123 469.77 122.462 469.665 123.151C469.541 123.938 469.525 124.711 469.618 125.471C469.688 126.045 469.676 126.337 469.583 126.349C469.537 126.355 469.477 126.315 469.403 126.229C469.345 126.142 469.293 126.101 469.247 126.107C469.107 126.124 469.036 126.573 469.033 127.455C469.034 128.494 469.022 129.298 468.997 129.868C468.97 130.422 468.931 130.812 468.88 131.039C468.843 131.248 468.785 131.357 468.708 131.367ZM464.466 90.5881C464.575 90.5748 464.661 90.1158 464.724 89.2109C464.736 88.926 464.731 88.6905 464.708 88.5044C464.68 88.2718 464.65 88.1573 464.619 88.1611C464.573 88.1668 464.524 88.3459 464.472 88.6985C464.358 89.3106 464.326 89.826 464.377 90.2448C464.406 90.4774 464.435 90.5918 464.466 90.5881ZM464.674 87.2572C464.721 87.2515 464.802 87.1471 464.919 86.9439C465.097 86.5918 465.171 86.2993 465.143 86.0667C465.133 85.9891 465.113 85.9522 465.082 85.956C465.036 85.9617 464.955 86.0739 464.84 86.2925C464.662 86.6447 464.588 86.9371 464.616 87.1698C464.624 87.2318 464.643 87.261 464.674 87.2572ZM466.271 78.2791C466.488 78.2526 466.58 78.0998 466.546 77.8206C466.512 77.5414 466.53 77.1141 466.602 76.5388C466.63 76.252 466.638 76.0621 466.627 75.969C466.617 75.8915 466.605 75.8537 466.589 75.8556C466.45 75.8726 466.301 76.3314 466.143 77.2322C466.092 77.5847 466.077 77.8541 466.1 78.0402C466.121 78.2108 466.178 78.2904 466.271 78.2791ZM489.777 204.424C489.761 204.426 489.75 204.396 489.742 204.334C489.762 204.111 490.013 203.332 490.496 201.999C491.253 199.813 491.972 197.325 492.655 194.534C492.905 193.48 493.015 192.837 492.987 192.605C492.894 192.616 492.451 193.827 491.659 196.237C490.855 198.807 490.383 200.1 490.243 200.117C490.119 200.132 490.031 199.93 489.98 199.511C489.893 198.798 489.911 198.237 490.035 197.828C490.289 197.199 490.57 196.15 490.879 194.68C491.111 193.487 491.207 192.727 491.167 192.401L491.072 192.39C490.932 192.407 490.805 192.524 490.69 192.743C490.592 192.975 490.512 193.095 490.45 193.103C490.435 193.105 490.425 193.09 490.421 193.059C490.422 192.807 490.662 190.771 491.14 186.951C491.603 183.258 491.92 180.89 492.092 179.846C492.119 179.685 492.128 179.566 492.119 179.488C492.11 179.411 492.082 179.375 492.035 179.38C491.802 179.409 491.479 180.566 491.065 182.851C490.732 184.765 490.343 186.347 489.897 187.598C489.594 188.469 489.411 188.909 489.349 188.916C489.352 187.908 489.803 184.375 490.701 178.315C492.691 164.819 494.323 151.87 495.597 139.468C496.246 133.045 497.194 124.878 498.441 114.967C498.946 110.844 499.301 108.141 499.506 106.857C499.498 106.795 499.487 106.765 499.471 106.766C499.27 106.791 498.753 107.397 497.922 108.585C494.074 114.075 490.71 117.728 487.831 119.543C485.998 120.774 484.228 121.493 482.522 121.702C482.072 121.756 481.655 121.76 481.272 121.712C480.582 121.607 479.85 121.28 479.074 120.729C478.312 120.161 477.698 119.512 477.231 118.781C476.767 117.941 476.452 116.972 476.286 115.874C476.119 114.761 476.015 114.034 475.973 113.693C475.782 112.127 475.709 110.498 475.755 108.809C475.819 106.235 476.292 102.431 477.173 97.3968C477.972 92.8448 478.549 90.547 478.906 90.5035C478.922 90.5016 478.948 90.5221 478.984 90.5648C479.019 90.592 479.052 90.6038 479.083 90.6C479.207 90.5849 479.294 90.3303 479.344 89.8362C479.467 88.9083 479.668 88.4272 479.947 88.3932C479.994 88.3875 480.021 88.4157 480.029 88.4778C480.036 88.5398 480.024 88.6357 479.993 88.7654C479.644 90.1617 479.514 91.2321 479.605 91.9766C479.645 92.3023 479.719 92.4585 479.828 92.4453C479.921 92.434 480.038 92.3016 480.181 92.0481C480.233 91.963 480.275 91.9185 480.306 91.9148C480.337 91.911 480.361 91.9789 480.378 92.1185C480.45 92.7078 480.323 93.8567 479.996 95.5651C479.836 96.4503 479.779 97.079 479.824 97.4513C479.838 97.5599 479.86 97.6122 479.891 97.6085C480.015 97.5933 480.254 96.5882 480.609 94.5931C481.006 92.1678 481.336 90.9391 481.6 90.907C481.646 90.9013 481.674 90.9372 481.684 91.0148C481.689 91.0613 481.683 91.1408 481.666 91.2531C481.371 92.4538 481.144 93.9454 480.984 95.728C480.837 97.4931 480.769 98.9338 480.779 100.05C480.787 101.151 480.819 101.926 480.874 102.376C480.93 102.841 481.008 103.155 481.106 103.316C481.22 103.475 481.365 104.276 481.541 105.718L481.826 108.446C481.995 109.826 482.156 110.507 482.311 110.488C482.482 110.467 482.589 110.635 482.633 110.992C482.651 111.147 482.658 111.328 482.651 111.533C482.643 111.723 482.647 111.888 482.664 112.027C482.727 112.539 482.886 112.945 483.143 113.244C483.414 113.526 483.627 113.657 483.782 113.638C483.952 113.617 484.373 113.322 485.043 112.752C485.98 111.914 487.215 110.559 488.75 108.688C490.283 106.801 491.512 105.132 492.437 103.681C493.436 102.064 494.411 100.505 495.361 99.0038C497.112 96.1931 499.011 92.6638 501.059 88.4159C503.104 84.1525 504.474 80.924 505.166 78.7302C505.352 78.0622 505.551 77.4949 505.762 77.0285C505.97 76.5465 506.129 76.2989 506.238 76.2857C506.346 76.2725 506.83 76.0481 507.69 75.6127C508.55 75.1773 509.158 74.9378 509.515 74.8943C510.322 74.796 511.04 75.0704 511.67 75.7177C512.462 76.5341 512.902 77.3067 512.991 78.0357C513.084 78.7957 512.888 79.8979 512.403 81.3422C512.215 81.8688 512.046 82.22 511.894 82.3959C511.654 82.7557 511.221 84.3039 510.595 87.0404C509.984 89.7751 509.33 92.9952 508.633 96.7006C507.215 104.051 505.794 113.952 504.369 126.404C503.524 133.669 502.874 139.958 502.42 145.271C502.149 148.216 501.919 150.456 501.728 151.99C501.338 154.855 500.908 158.756 500.44 163.693C500.187 166.006 499.881 168.082 499.523 169.92C499.067 172.116 498.41 176.218 497.553 182.225C497.31 183.719 496.716 186.208 495.772 189.691C494.805 193.256 494.222 195.051 494.02 195.076C493.818 195.1 493.297 196.313 492.457 198.714C491.532 201.329 490.803 203.032 490.27 203.821C490.003 204.215 489.839 204.416 489.777 204.424ZM498.574 120.122C498.682 120.109 498.902 118.941 499.233 116.618C499.462 115.016 499.557 114.052 499.517 113.726L499.512 113.68C499.45 113.687 499.358 114.029 499.235 114.705C498.94 116.158 498.727 117.506 498.595 118.75C498.514 119.373 498.483 119.763 498.502 119.918C498.519 120.058 498.543 120.126 498.574 120.122ZM499.7 111.933C499.809 111.92 499.915 111.631 500.02 111.068C500.157 110.39 500.208 109.903 500.172 109.609C500.165 109.547 500.153 109.517 500.138 109.519C500.06 109.528 499.96 109.808 499.839 110.358C499.683 111.022 499.626 111.517 499.665 111.843C499.673 111.905 499.685 111.935 499.7 111.933ZM493.197 198.198C493.181 198.2 493.171 198.186 493.168 198.155C493.16 198.093 493.177 197.973 493.218 197.794C493.275 197.614 493.33 197.489 493.385 197.42C493.439 197.35 493.482 197.314 493.513 197.31C493.591 197.3 493.636 197.35 493.649 197.458C493.665 197.583 493.59 197.749 493.427 197.958C493.32 198.113 493.243 198.193 493.197 198.198ZM493.686 196.793C493.624 196.8 493.581 196.703 493.556 196.502C493.547 196.424 493.567 196.327 493.615 196.211C493.666 196.111 493.72 196.033 493.776 195.979C493.848 195.923 493.899 195.893 493.93 195.889C493.977 195.884 494.005 195.92 494.014 195.997C494.022 196.059 494.017 196.147 493.999 196.259C493.899 196.602 493.795 196.78 493.686 196.793Z" fill="#E5FF20"/>
</g>
<defs>
<clipPath id="clip0_283_70">
<rect width="553" height="226" fill="white"/>
</clipPath>
</defs>
</svg>
