<svg width="57" height="56" viewBox="0 0 57 56" fill="none" xmlns="http://www.w3.org/2000/svg">
<g clip-path="url(#clip0_287_80)">
<path d="M26.9176 0.0433063C27.7906 -0.00430654 28.5 0.696656 28.5 1.55572V6.29165C28.5 7.15075 27.79 7.84111 26.9182 7.90737C23.4185 8.17328 20.037 9.31805 17.1037 11.2436C13.7305 13.458 11.1014 16.6056 9.54884 20.288C7.99635 23.9704 7.59001 28.0224 8.38145 31.9315C9.17293 35.841 11.1268 39.4318 13.9955 42.2502C16.8642 45.0685 20.5191 46.9878 24.498 47.7655C28.4771 48.543 32.6018 48.1442 36.3498 46.6188C40.0979 45.0934 43.3016 42.5102 45.5553 39.1963C47.5155 36.3145 48.6808 32.9924 48.9516 29.5542C49.019 28.6977 49.7214 28.0002 50.5957 28.0002H55.4166C56.291 28.0002 57.0047 28.697 56.956 29.5548C56.6735 34.5464 55.0347 39.3836 52.1968 43.5559C49.0653 48.1606 44.6142 51.7493 39.4063 53.8686C34.1987 55.9879 28.4682 56.5426 22.9398 55.4621C17.4114 54.3816 12.3332 51.7151 8.34744 47.7991C4.36165 43.8832 1.64734 38.8939 0.547665 33.4625C-0.55201 28.0311 0.0122488 22.4011 2.16935 17.2848C4.32644 12.1685 7.97957 7.79544 12.6664 4.7188C16.9134 1.9308 21.8368 0.320865 26.9176 0.0433063ZM34.7079 9.11352C37.7213 5.85899 42.4362 5.01712 46.3141 6.5499L39.8351 13.5472L44.8039 17.9884L51.4412 10.9835C53.5185 14.6245 52.9523 19.3227 49.9386 22.5773C47.076 25.6691 42.8428 26.6444 39.1381 25.415L28.7761 36.6057C28.74 36.6558 28.701 36.7052 28.658 36.7519L25.4681 40.2292C25.135 40.5922 24.6674 40.7652 24.2064 40.741C24.0377 40.7335 23.8694 40.6977 23.7073 40.6336C23.704 40.6324 23.7005 40.6311 23.6971 40.6299C23.6816 40.6237 23.6661 40.6171 23.6507 40.6103C23.6394 40.6053 23.6279 40.6003 23.6167 40.595C23.6095 40.5916 23.6025 40.5879 23.5954 40.5845C23.4839 40.5306 23.377 40.4634 23.2778 40.3819C23.2703 40.376 23.263 40.3695 23.2555 40.3633C23.2478 40.3567 23.2396 40.3502 23.232 40.3434L23.2122 40.3266L23.1624 40.2818L13.784 31.9788C13.1345 31.4036 13.0827 30.4199 13.668 29.7818L16.8575 26.3046C17.4429 25.6663 18.4444 25.6152 19.094 26.1903L23.4763 30.0701L32.8513 19.9453C31.256 16.4377 31.8449 12.2054 34.7079 9.11352Z" fill="#E5FF20"/>
</g>
<defs>
<clipPath id="clip0_287_80">
<rect width="57" height="56" fill="white"/>
</clipPath>
</defs>
</svg>
