<svg width="376" height="561" viewBox="0 0 376 561" fill="none" xmlns="http://www.w3.org/2000/svg">
<path d="M321.61 317.57C344.672 294.488 361.208 265.711 369.536 234.16C377.864 202.613 377.688 169.422 369.024 137.965C360.36 106.508 343.516 77.9062 320.208 55.0702C284.962 20.3632 237.462 0.937228 187.998 0.996228H184.674C137.319 1.83217 92.0412 20.5742 57.9542 53.4492C23.8602 86.3242 3.48524 130.89 0.92724 178.179C-0.20946 203.89 4.01314 229.558 13.3222 253.554C22.6308 277.546 36.8262 299.347 55.0022 317.566C90.0022 352.566 97.8772 365.605 97.8772 416.004L89.1272 419.243C86.1819 420.586 84.2991 423.532 84.3147 426.766V490.993C84.3577 498.126 86.8655 505.028 91.4085 510.528C95.9515 516.028 102.257 519.79 109.253 521.18C115.901 543.93 153.003 560.907 188.003 560.907C223.003 560.907 260.105 543.93 266.753 521.18C273.799 519.844 280.163 516.102 284.757 510.598C289.354 505.094 291.897 498.164 291.952 490.993V426.766C291.967 423.531 290.085 420.586 287.139 419.243L278.389 418.016C278.741 368.493 284.69 354.493 321.616 317.566L321.61 317.57ZM152.21 231.996C141.144 220.875 135.878 205.242 137.956 189.691C140.038 174.14 149.226 160.441 162.827 152.617C176.425 144.797 192.889 143.742 207.378 149.762C221.862 155.785 232.73 168.2 236.776 183.356C240.823 198.516 237.596 214.692 228.042 227.133C218.483 239.578 203.687 246.871 187.999 246.871C174.569 246.851 161.698 241.5 152.21 231.996L152.21 231.996ZM252.75 406.386H198.324V301.206H202.523V282.569C202.527 280.702 203.844 279.093 205.676 278.722C215.32 276.612 224.508 272.788 232.801 267.433C233.484 267.015 234.273 266.804 235.074 266.819C236.082 266.792 237.062 267.171 237.789 267.87L250.914 280.995L271.476 260.433L257.999 247.484C256.847 246.019 256.847 243.957 257.999 242.496C263.409 234.199 267.237 224.973 269.288 215.285C269.725 213.457 271.346 212.16 273.225 212.132H291.862V183.081H272.96C271.097 183.097 269.468 181.831 269.023 180.019C267.058 170.32 263.32 161.066 258 152.722C256.992 151.156 257.25 149.089 258.613 147.82L271.738 134.609L251.176 114.047L237.875 127.348C237.078 128.059 236.055 128.461 234.988 128.484C234.207 128.453 233.453 128.211 232.801 127.785C224.434 122.445 215.192 118.625 205.5 116.496C203.664 116.191 202.324 114.594 202.352 112.734V94.0074H173.477V112.734C173.5 114.594 172.16 116.191 170.324 116.496C160.691 118.645 151.512 122.465 143.199 127.785C142.547 128.211 141.793 128.453 141.012 128.484C139.945 128.461 138.922 128.059 138.125 127.348L125.086 114.047L104.524 134.609L118.001 147.91C119.349 149.148 119.61 151.183 118.614 152.722C113.2 161.046 109.376 170.304 107.325 180.019C106.88 181.832 105.251 183.097 103.388 183.082H84.3998V212.133H103.041C104.908 212.191 106.51 213.476 106.978 215.285C108.943 224.957 112.681 234.18 118.001 242.496C118.986 244.098 118.732 246.168 117.388 247.484L104.263 260.609L125.087 280.996L138.126 267.871C138.931 267.184 139.954 266.809 141.013 266.82C141.786 266.817 142.544 267.027 143.2 267.434C151.548 272.809 160.798 276.633 170.501 278.723C172.333 279.094 173.646 280.703 173.65 282.57V301.207H177.849L177.853 406.737H123.251V404.55C123.251 350.913 113.977 334.55 76.8757 297.28V297.276C46.1807 266.838 29.8917 224.776 32.0747 181.606C34.2192 142.305 51.1877 105.282 79.5547 77.996C107.926 50.715 145.586 35.207 184.935 34.601H187.997C229.185 34.5229 268.727 50.757 297.987 79.749C327.264 108.382 343.866 147.542 344.077 188.489C344.292 229.442 328.104 268.774 299.124 297.709C260.538 335.947 252.749 354.236 252.749 406.389L252.75 406.386Z" fill="white"/>
</svg>
