<svg width="32" height="32" viewBox="0 0 32 32" fill="none" xmlns="http://www.w3.org/2000/svg">
<path fill-rule="evenodd" clip-rule="evenodd" d="M16 32C24.8366 32 32 24.8366 32 16C32 7.16344 24.8366 0 16 0C7.16344 0 0 7.16344 0 16C0 24.8366 7.16344 32 16 32ZM6 12.3542L16 6L26 12.3542V19.6458L16 26L6 19.644V12.3542ZM13.1745 16.0335L16 17.9922L18.8255 16.0335L16 14.1064L13.1745 16.0335ZM16.9524 8.83296V12.4788L20.481 14.8839L23.3475 12.8973L16.9524 8.83296ZM11.519 14.8839L15.0476 12.4788V8.83296L8.65253 12.8973L11.519 14.8839ZM7.90476 17.3486L9.85417 16.0205L7.90476 14.6682V17.3486ZM15.0476 19.6217L11.5097 17.1682L8.66183 19.1083L15.0476 23.167V19.6217ZM20.4903 17.1682L16.9524 19.6217V23.167L23.3382 19.1083L20.4903 17.1682ZM24.0952 14.6682L22.1458 16.0205L24.0952 17.3486V14.6682Z" fill="#726FC0"/>
</svg>
