<svg width="533" height="521" viewBox="0 0 533 521" fill="none" xmlns="http://www.w3.org/2000/svg">
<path d="M266.996 268.96C222.195 268.96 185.234 305.358 185.234 350.722C185.234 396.077 222.195 431.921 266.996 431.921C311.797 431.921 348.758 395.523 348.758 350.159C348.758 304.8 311.797 268.96 266.996 268.96ZM302.836 339.519L265.875 376.48C263.637 378.718 260.836 379.839 258.036 379.839C255.235 379.839 252.434 378.718 250.196 376.48L231.157 357.441C226.676 352.96 226.676 346.242 231.157 342.32C235.637 337.839 242.356 337.839 246.278 342.32L258.04 354.082L287.161 324.961C291.641 320.48 298.36 320.48 302.282 324.961C306.758 328.32 306.758 335.602 302.836 339.52L302.836 339.519Z" fill="white"/>
<path d="M143.238 418.48C128.679 414 60.3591 414 45.7971 418.48C18.9181 426.32 0.996094 451.519 0.996094 479.519L1 506.398C1 514.238 7.1602 520.398 15 520.398H174.6C182.44 520.398 188.6 514.238 188.6 506.398V479.519C188.6 451.519 170.12 426.32 143.237 418.48H143.238Z" fill="white"/>
<path d="M148.278 345.68C148.278 375.371 124.208 399.442 94.5158 399.442C64.8248 399.442 40.7578 375.372 40.7578 345.68C40.7578 315.989 64.8238 291.922 94.5158 291.922C124.207 291.922 148.278 315.988 148.278 345.68Z" fill="white"/>
<path d="M488.199 418.48C473.64 414 405.32 414 390.758 418.48C363.879 426.32 345.957 451.519 345.957 479.519L345.961 506.398C345.961 514.238 352.121 520.398 359.961 520.398H519.001C526.841 520.398 533.001 514.238 533.001 506.398V479.519C533.001 451.519 515.079 426.32 488.2 418.48H488.199Z" fill="white"/>
<path d="M493.239 345.68C493.239 375.371 469.173 399.442 439.481 399.442C409.79 399.442 385.719 375.372 385.719 345.68C385.719 315.989 409.789 291.922 439.481 291.922C469.172 291.922 493.239 315.988 493.239 345.68Z" fill="white"/>
<path d="M186.92 228.08H346.52C354.359 228.08 360.52 221.92 360.52 214.08L360.516 187.201C360.516 159.201 342.594 134.002 315.715 126.162C301.156 121.682 232.836 121.682 218.274 126.162C191.395 134.002 173.473 159.201 173.473 187.201V214.08C173.477 221.924 179.637 228.08 186.918 228.08H186.92Z" fill="white"/>
<path d="M320.758 53.9222C320.758 83.6102 296.688 107.68 266.996 107.68C237.304 107.68 213.234 83.6102 213.234 53.9222C213.234 24.2312 237.304 0.160156 266.996 0.160156C296.688 0.160156 320.758 24.2302 320.758 53.9222Z" fill="white"/>
</svg>
