<svg width="32" height="32" viewBox="0 0 32 32" fill="none" xmlns="http://www.w3.org/2000/svg">
<path fill-rule="evenodd" clip-rule="evenodd" d="M32 16C32 24.8366 24.8366 32 16 32C7.16344 32 0 24.8366 0 16C0 7.16344 7.16344 0 16 0C24.8366 0 32 7.16344 32 16ZM6.66501 12.4568C6.6498 12.1236 6.80164 11.7902 7.09659 11.5869L15.4299 5.8436C15.7716 5.60812 16.2232 5.60812 16.5649 5.8436L24.8982 11.5869C25.1931 11.7902 25.345 12.1236 25.3298 12.4568C25.3304 12.4713 25.3307 12.4859 25.3307 12.5005V21.5914C25.3307 22.5621 24.59 23.5005 23.4974 23.5005H8.4974C7.40475 23.5005 6.66406 22.5621 6.66406 21.5914V12.5005C6.66406 12.4859 6.66438 12.4713 6.66501 12.4568ZM22.6006 12.4324L15.9974 16.7245L9.39419 12.4324L15.9974 7.88148L22.6006 12.4324ZM8.66406 14.3432V21.5005H23.3307V14.3432L16.5424 18.7556C16.211 18.971 15.7838 18.971 15.4524 18.7556L8.66406 14.3432Z" fill="#726FC0"/>
</svg>
