<svg width="372" height="452" viewBox="0 0 372 452" fill="none" xmlns="http://www.w3.org/2000/svg">
<path d="M364.6 211.45L334.83 184.93C323.861 170.528 328.474 152.676 326.06 135.934C320.65 98.4221 301.669 61.664 270.974 38.34C204.181 -12.41 111.584 -13.582 51.3541 44.465C1.47111 92.5391 -11.7119 162.745 11.0811 227.605C23.8971 264.089 37.3351 275.66 61.3781 305.773C70.6047 317.332 63.589 375.5 61.7101 387.984C58.3898 410.035 57.1203 407.168 55.5148 423.793C53.9679 439.801 58.6984 444.352 61.8859 446.828C65.7609 449.84 128.413 451.551 171.196 450.984C187.739 450.766 194.384 452.41 200.098 433.656C205.43 416.156 210.953 398.164 221.493 382.957C239.27 357.305 282.27 373.891 308.024 372.879C334.309 371.844 365.915 348.426 336.61 321.836C352.594 320.883 352.309 298.367 344.36 291.606C369.868 274.317 337.797 257.493 351.165 243.481C360.258 233.946 381.829 226.43 364.603 211.45L364.6 211.45ZM162.1 170.825L169.662 136.411H169.764L176.721 168.071C171.861 168.251 167.002 169.063 162.1 170.825L162.1 170.825ZM250.553 174.122C229.635 178.684 211.643 172.665 194.428 169.614L187.013 135.903L187.248 97.7002L203.771 134.716C207.095 145.271 217.38 139.247 215.248 132.654L203.889 104.693C197.975 91.0476 197.365 82.1497 185.069 82.1497L169.717 82.1692L154.365 82.1497C142.064 82.1497 141.459 91.048 135.545 104.693L124.186 132.654C122.053 139.247 132.334 145.275 135.663 134.716L152.183 97.7002L152.417 135.903L141.862 183.895C109.229 213.829 89.5303 234.692 47.3503 197.383C5.48727 160.367 34.7803 87.6832 79.4953 54.5132C132.698 15.0482 197.905 16.9972 247.805 55.1108C266.809 69.6268 288.004 84.1578 292.559 120.291C293.466 127.529 293.454 170.994 250.551 174.123L250.553 174.122Z" fill="white"/>
<path d="M170.699 51.4702C162.742 51.4702 158.914 57.9233 158.914 65.8842C158.914 73.849 162.742 80.2982 170.699 80.2982C178.664 80.2982 182.484 73.8451 182.484 65.8842C182.488 57.9233 178.668 51.4702 170.699 51.4702Z" fill="white"/>
</svg>
