<svg width="228" height="438" viewBox="0 0 228 438" fill="none" xmlns="http://www.w3.org/2000/svg">
<path d="M131.5 87.75C155.625 87.75 175.25 68.125 175.25 44C175.25 19.875 155.625 0.25 131.5 0.25C107.375 0.25 87.75 19.875 87.75 44C87.75 68.125 107.375 87.75 131.5 87.75Z" fill="#0468FF"/>
<path d="M210.25 149C210.25 124.875 190.625 105.25 166.5 105.25H96.5C72.375 105.25 52.75 124.875 52.75 149V175.25H210.25V149Z" fill="#0468FF"/>
<path d="M17.7494 117.62L32.6874 102.682C36.1093 99.2602 36.1093 93.729 32.6874 90.3111C29.2655 86.8892 23.7343 86.8892 20.3164 90.3111L2.81641 107.811C1.16801 109.448 0.25 111.678 0.25 113.999V175.249H17.75L17.7494 117.62Z" fill="#0468FF"/>
<path d="M0.25 192.75V219C0.25 219.938 0.398443 220.871 0.695312 221.766L17.7503 272.918V428.998C17.7503 433.837 21.6722 437.748 26.5003 437.748H201.5C206.34 437.748 210.25 433.837 210.25 428.998V272.918L227.297 221.766C227.594 220.871 227.75 219.938 227.75 219V192.75H0.25Z" fill="#0468FF"/>
</svg>
