<svg width="100" height="100" viewBox="0 0 100 100" fill="none" xmlns="http://www.w3.org/2000/svg">
<path fill-rule="evenodd" clip-rule="evenodd" d="M50 100C77.6143 100 100 77.6143 100 50C100 22.3857 77.6143 0 50 0C22.3857 0 0 22.3857 0 50C0 77.6143 22.3857 100 50 100ZM32.64 42.24V65H38.92V42.24H47.76V36.76H23.8V42.24H32.64ZM57.1469 51.1035L67.9469 65H75.7469L63.9213 50.1997L75.3469 36.76H67.5869L57.1469 49.4991V36.76H50.8669V65H57.1469V51.1035Z" fill="#108D6F"/>
<path fill-rule="evenodd" clip-rule="evenodd" d="M50 100C77.6143 100 100 77.6143 100 50C100 22.3857 77.6143 0 50 0C22.3857 0 0 22.3857 0 50C0 77.6143 22.3857 100 50 100ZM32.64 42.24V65H38.92V42.24H47.76V36.76H23.8V42.24H32.64ZM57.1469 51.1035L67.9469 65H75.7469L63.9213 50.1997L75.3469 36.76H67.5869L57.1469 49.4991V36.76H50.8669V65H57.1469V51.1035Z" fill="url(#paint0_linear_30_53)" fill-opacity="0.2"/>
<defs>
<linearGradient id="paint0_linear_30_53" x1="-1.77845e-07" y1="37.9414" x2="100" y2="62.0586" gradientUnits="userSpaceOnUse">
<stop stop-color="#108D6F"/>
<stop offset="0.29" stop-color="#108D6F"/>
<stop offset="0.5" stop-color="#FAFAFA"/>
<stop offset="0.64" stop-color="#B1D8CF"/>
<stop offset="1" stop-color="#108D6F"/>
</linearGradient>
</defs>
</svg>
