<svg width="32" height="32" viewBox="0 0 32 32" fill="none" xmlns="http://www.w3.org/2000/svg">
<path fill-rule="evenodd" clip-rule="evenodd" d="M16 0C7.16146 0 0 7.34236 0 16.4042C0 23.6504 4.58333 29.802 10.9427 31.97C11.7448 32.1195 12.0365 31.6176 12.0365 31.1797C12.0365 30.7899 12.0208 29.7593 12.0156 28.3923C7.5625 29.3801 6.625 26.1922 6.625 26.1922C5.89583 24.2966 4.84896 23.7893 4.84896 23.7893C3.39583 22.7747 4.95833 22.796 4.95833 22.796C6.5625 22.9135 7.40625 24.4834 7.40625 24.4834C8.83333 26.9932 11.151 26.267 12.0625 25.8505C12.2083 24.7878 12.625 24.0669 13.0781 23.6558C9.52604 23.2446 5.79167 21.8349 5.79167 15.5498C5.79167 13.7556 6.41667 12.2925 7.4375 11.1444C7.27604 10.7332 6.72396 9.06181 7.59375 6.80304C7.59375 6.80304 8.9375 6.36516 11.9948 8.4851C13.2708 8.12199 14.6406 7.94043 16 7.93509C17.3594 7.94043 18.7292 8.12199 20.0052 8.4851C23.0625 6.36516 24.401 6.80304 24.401 6.80304C25.276 9.06181 24.7292 10.7332 24.5625 11.1444C25.5885 12.2925 26.2031 13.7556 26.2031 15.5498C26.2031 21.8509 22.4635 23.2339 18.901 23.6451C19.474 24.147 19.9844 25.1509 19.9844 26.6781C19.9844 28.8728 19.9688 30.6404 19.9688 31.1797C19.9688 31.6176 20.2552 32.1302 21.0677 31.97C27.4219 29.7966 32 23.6504 32 16.4042C32 7.34236 24.8385 0 16 0Z" fill="#726FC0"/>
</svg>
