<svg width="553" height="551" viewBox="0 0 553 551" fill="none" xmlns="http://www.w3.org/2000/svg">
<path d="M494.828 418.15V476.736H543.937C549.105 476.736 552.554 480.181 552.554 485.353V542.216C552.554 547.384 549.109 550.833 543.937 550.833L428.487 550.829C423.319 550.829 419.87 547.384 419.87 542.212V522.396H324.241V542.212C324.241 547.38 319.932 550.829 315.624 550.829H201.044C196.735 550.829 192.427 547.384 192.427 542.212V485.349C192.427 480.181 196.735 476.732 201.044 476.732H315.634C319.942 476.732 324.251 480.177 324.251 485.349V505.165H419.88V485.349C419.88 480.181 423.325 476.732 428.497 476.732H477.606L477.602 418.15H428.493C423.325 418.15 419.876 413.842 419.876 409.533V389.717L324.247 389.721V409.537C324.247 413.845 319.938 418.154 315.63 418.154L201.05 418.15C196.741 418.15 192.433 413.842 192.433 409.533V352.67C192.433 348.361 196.741 344.053 201.05 344.053H249.296V310.451L75.2659 310.459V344.061H123.512C128.68 344.061 132.129 348.369 132.129 352.678V409.537C132.129 413.845 128.684 418.154 123.512 418.154L8.92188 418.15C4.61328 418.15 0.304688 413.841 0.304688 409.533V352.67C0.304688 348.361 4.61328 344.053 8.92188 344.053H58.0309V258.76L8.92188 258.767C4.61328 258.767 0.304688 255.322 0.304688 250.15V193.287C0.304688 188.119 4.61328 184.67 8.92188 184.67H58.0309V139.869C58.0309 135.56 62.3395 131.252 66.6481 131.252H250.158V95.0678H129.538C125.229 95.0678 120.921 90.7592 120.921 86.4506V8.91163C120.921 4.60303 125.229 0.294434 129.538 0.294434H388.858C394.026 0.294434 397.475 4.60303 397.475 8.91163V86.4506C397.475 90.7592 394.03 95.0678 388.858 95.0678L266.518 95.0756V131.26H450.028C455.196 131.26 458.645 135.568 458.645 139.877V184.678H507.754C512.922 184.678 516.371 188.123 516.371 193.295V250.158C516.371 255.326 512.926 258.775 507.754 258.775L393.164 258.767C387.996 258.767 384.547 255.322 384.547 250.15V193.287C384.547 188.119 387.992 184.67 393.164 184.67H442.273V148.486L266.523 148.49V184.674H315.632C319.941 184.674 324.249 188.119 324.249 193.291V250.154C324.249 255.322 319.941 258.771 315.632 258.771L201.042 258.767C196.734 258.767 192.425 255.322 192.425 250.15V193.287C192.425 188.119 196.734 184.67 201.042 184.67H249.288V148.486L75.2583 148.49V184.674H123.504C128.672 184.674 132.121 188.119 132.121 193.291V250.154C132.121 255.322 128.676 258.771 123.504 258.771L75.2583 258.767V294.091H258.768C263.936 294.091 267.385 297.537 267.385 302.709V344.924H316.495C320.803 344.924 325.112 349.232 325.112 353.541V373.357H420.741V353.541C420.741 349.232 424.186 344.924 429.358 344.924H543.948C549.116 344.924 552.565 349.232 552.565 353.541L552.557 409.537C552.557 413.845 549.112 418.154 543.94 418.154L494.828 418.15Z" fill="white"/>
</svg>
