<svg width="32" height="32" viewBox="0 0 32 32" fill="none" xmlns="http://www.w3.org/2000/svg">
<path fill-rule="evenodd" clip-rule="evenodd" d="M16 32C24.8366 32 32 24.8366 32 16C32 7.16344 24.8366 0 16 0C7.16344 0 0 7.16344 0 16C0 24.8366 7.16344 32 16 32ZM7 12.2515C7 9.35647 9.35429 7 12.2485 7H19.7485C22.6435 7 25 9.35429 25 12.2485V19.7485C25 22.6435 22.6457 25 19.7515 25H12.2515C9.35647 25 7 22.6457 7 19.7515V12.2515ZM22 10.75C22 10.336 21.664 10 21.25 10C20.836 10 20.5 10.336 20.5 10.75C20.5 11.164 20.836 11.5 21.25 11.5C21.664 11.5 22 11.164 22 10.75ZM20.5 16C20.5 13.5182 18.4818 11.5 16 11.5C13.5182 11.5 11.5 13.5182 11.5 16C11.5 18.4818 13.5182 20.5 16 20.5C18.4818 20.5 20.5 18.4818 20.5 16ZM13.8787 13.8787C14.4413 13.3161 15.2044 13 16 13C16.7956 13 17.5587 13.3161 18.1213 13.8787C18.6839 14.4413 19 15.2044 19 16C19 16.7956 18.6839 17.5587 18.1213 18.1213C17.5587 18.6839 16.7956 19 16 19C15.2044 19 14.4413 18.6839 13.8787 18.1213C13.3161 17.5587 13 16.7956 13 16C13 15.2044 13.3161 14.4413 13.8787 13.8787Z" fill="#726FC0"/>
</svg>
