<svg width="32" height="32" viewBox="0 0 32 32" fill="none" xmlns="http://www.w3.org/2000/svg">
<path d="M16 0C7.164 0 0 7.164 0 16C0 24.836 7.164 32 16 32C24.836 32 32 24.836 32 16C32 7.164 24.836 0 16 0ZM9.99467 7.204C11.1173 7.204 11.8653 7.952 11.8653 8.94933C11.8653 9.94667 11.1173 10.6947 9.87067 10.6947C8.748 10.696 8 9.94667 8 8.94933C8 7.952 8.748 7.204 9.99467 7.204ZM12 22.6667H8V12H12V22.6667ZM25.3333 22.6667H21.568V16.8373C21.568 15.2253 20.564 14.8533 20.188 14.8533C19.812 14.8533 18.556 15.1013 18.556 16.8373C18.556 17.0853 18.556 22.6667 18.556 22.6667H14.6667V12H18.5573V13.488C19.0587 12.62 20.0627 12 21.9453 12C23.828 12 25.3333 13.488 25.3333 16.8373V22.6667Z" fill="#726FC0"/>
</svg>
