<svg width="66" height="24" viewBox="0 0 66 24" fill="none" xmlns="http://www.w3.org/2000/svg">
<path d="M3 8V19H21V8H3Z" fill="#6E3FFF"/>
<path d="M5 4.5C5 3.67157 5.67157 3 6.5 3H9.5C10.3284 3 11 3.67157 11 4.5V6.5H5V4.5Z" fill="#B69EFF"/>
<path d="M13 4.5C13 3.67157 13.6716 3 14.5 3H17.5C18.3284 3 19 3.67157 19 4.5V6.5H13V4.5Z" fill="#B69EFF"/>
<path d="M30.2169 18V6.002H34.9133C35.7589 6.002 36.4616 6.13341 37.0215 6.39622C37.5929 6.65903 38.0214 7.02469 38.307 7.49318C38.5927 7.95025 38.7355 8.48159 38.7355 9.0872C38.7355 9.69281 38.6041 10.2013 38.3413 10.6127C38.0785 11.024 37.73 11.3383 37.2958 11.5554C36.873 11.7725 36.4102 11.9039 35.9074 11.9496L36.1645 11.761C36.7016 11.7725 37.1815 11.9153 37.6043 12.1895C38.0385 12.4638 38.3813 12.8237 38.6327 13.2694C38.8841 13.7036 39.0098 14.1892 39.0098 14.7263C39.0098 15.3547 38.8555 15.9203 38.547 16.4231C38.2499 16.9145 37.81 17.303 37.2272 17.5886C36.6444 17.8629 35.9303 18 35.0847 18H30.2169ZM32.2737 16.3203H34.7762C35.4504 16.3203 35.976 16.1603 36.3531 15.8404C36.7301 15.5204 36.9187 15.0748 36.9187 14.5034C36.9187 13.9321 36.7244 13.4808 36.3359 13.1494C35.9474 12.8066 35.4161 12.6352 34.7419 12.6352H32.2737V16.3203ZM32.2737 11.0754H34.6219C35.2847 11.0754 35.7874 10.9269 36.1302 10.6298C36.473 10.3213 36.6444 9.89849 36.6444 9.36144C36.6444 8.83581 36.473 8.42445 36.1302 8.12736C35.7874 7.81884 35.279 7.66458 34.6048 7.66458H32.2737V11.0754ZM40.7397 18V5.6592H42.7965V18H40.7397ZM48.9481 18.2057C48.1254 18.2057 47.3827 18.0171 46.7199 17.6401C46.0686 17.2516 45.5544 16.7202 45.1773 16.046C44.8117 15.3604 44.6289 14.5777 44.6289 13.6979C44.6289 12.7952 44.8174 12.0067 45.1945 11.3325C45.5716 10.6469 46.0858 10.1156 46.7371 9.73852C47.3998 9.35001 48.1426 9.15576 48.9653 9.15576C49.788 9.15576 50.525 9.35001 51.1763 9.73852C51.8391 10.1156 52.3533 10.6412 52.7189 11.3154C53.096 11.9896 53.2846 12.778 53.2846 13.6807C53.2846 14.5834 53.096 15.3719 52.7189 16.046C52.3419 16.7202 51.822 17.2516 51.1592 17.6401C50.5079 18.0171 49.7709 18.2057 48.9481 18.2057ZM48.9481 16.4403C49.3595 16.4403 49.7309 16.3374 50.0622 16.1317C50.405 15.9261 50.6793 15.6175 50.885 15.2062C51.0906 14.7948 51.1935 14.2863 51.1935 13.6807C51.1935 13.0751 51.0906 12.5723 50.885 12.1724C50.6907 11.761 50.4222 11.4525 50.0794 11.2468C49.748 11.0412 49.3766 10.9383 48.9653 10.9383C48.5654 10.9383 48.194 11.0412 47.8512 11.2468C47.5084 11.4525 47.2341 11.761 47.0285 12.1724C46.8228 12.5723 46.7199 13.0751 46.7199 13.6807C46.7199 14.2863 46.8228 14.7948 47.0285 15.2062C47.2341 15.6175 47.5027 15.9261 47.834 16.1317C48.1768 16.3374 48.5482 16.4403 48.9481 16.4403ZM60.6971 18L56.8749 13.2694L60.3029 9.36144H62.7539L58.486 14.1092V12.5152L63.2681 18H60.6971ZM55.1266 18V5.6592H57.1834V18H55.1266Z" fill="#1E1C22"/>
</svg>
