<svg width="69" height="69" viewBox="0 0 69 69" fill="none" xmlns="http://www.w3.org/2000/svg">
<path d="M13 68.3003H49C56.2 68.3003 62 62.5003 62 55.3003V33.3003C62 31.6003 60.7 30.3003 59 30.3003C57.3 30.3003 56 31.6003 56 33.3003V55.3003C56 59.2003 52.9 62.3003 49 62.3003H13C9.1 62.3003 6 59.2003 6 55.3003V19.3003C6 15.4003 9.1 12.3003 13 12.3003H35C36.7 12.3003 38 11.0003 38 9.30029C38 7.60029 36.7 6.30029 35 6.30029H13C5.8 6.30029 0 12.1003 0 19.3003V55.3003C0 62.5003 5.8 68.3003 13 68.3003Z" fill="#B7B5E7"/>
<path d="M68.4002 21.4V3.1C68.4002 2.9 68.4002 2.7 68.3002 2.5C68.3002 2.4 68.3002 2.3 68.2002 2.3C68.2002 2.2 68.1002 2.1 68.1002 2C68.1002 1.9 68.0002 1.8 67.9002 1.7C67.9002 1.6 67.8002 1.5 67.8002 1.5C67.6002 1.2 67.3002 0.9 67.0002 0.7L66.8002 0.599999C66.6002 0.299999 66.4002 0.2 66.2002 0.2L65.9002 0.0999994C65.7002 0.0999994 65.5002 0 65.3002 0H47.0002C45.3002 0 44.0002 1.3 44.0002 3C44.0002 4.7 45.3002 6 47.0002 6H58.1002L30.6002 33.6C29.4002 34.8 29.4002 36.7 30.6002 37.8C31.8002 39 33.7002 39 34.8002 37.8L62.4002 10.3V21.4C62.4002 23.1 63.7002 24.4 65.4002 24.4C67.0002 24.4 68.3002 23 68.4002 21.4Z" fill="#B7B5E7"/>
</svg>
