<svg width="540" height="544" viewBox="0 0 540 544" fill="none" xmlns="http://www.w3.org/2000/svg">
<path d="M68.9102 227.88V315.275H156.305V227.88H68.9102ZM146.969 257.575L106.242 298.302C104.547 299.998 102.848 300.849 100.305 300.849C97.7578 300.849 96.0625 300.002 94.3672 298.302L79.0941 283.029C75.6996 279.635 75.6996 274.545 79.0941 271.15C82.4886 267.756 87.5786 267.756 90.9732 271.15L100.305 280.486L135.094 245.697C138.489 242.303 143.579 242.303 146.973 245.697C150.364 249.092 150.364 254.186 146.969 257.576L146.969 257.575Z" fill="white"/>
<path d="M283.57 5.57422V125.214H403.21L283.57 5.57422Z" fill="white"/>
<path d="M68.9102 397.57V484.965H156.305V397.57H68.9102ZM146.969 427.269L106.242 467.996C102.848 471.391 97.7578 471.391 94.3632 467.996L79.0901 452.723C75.6956 449.329 75.6956 444.239 79.0901 440.844C82.4846 437.45 87.5745 437.45 90.9691 440.844L100.301 450.176L135.09 415.387C138.485 411.993 143.575 411.993 146.969 415.387C150.364 418.786 150.364 423.876 146.969 427.27V427.269Z" fill="white"/>
<path d="M341.271 187.15C348.908 193.939 352.302 203.271 352.302 212.603C351.455 248.24 385.392 273.693 408.302 287.271V142.181H275.092C270.85 142.181 266.608 137.939 266.608 133.697V0.486816H8.668C4.4258 0.486816 0.183594 3.88132 0.183594 8.97122V535.031C0.183594 539.273 4.4258 543.516 8.668 543.516H398.968C403.21 543.516 407.452 539.273 407.452 535.031V502.789H263.212C242.001 502.789 223.333 488.363 218.243 468.851C216.548 462.062 216.548 456.124 217.396 449.335C205.517 438.304 202.123 423.03 204.669 409.456C193.638 398.425 189.396 384.003 191.942 369.577C180.063 357.698 175.821 341.577 180.063 325.456C185.153 305.093 203.821 291.518 225.032 291.518H280.184C277.637 286.428 275.094 283.034 273.395 280.487C225.028 218.546 306.481 156.607 341.27 187.151L341.271 187.15ZM174.121 493.45C174.121 498.54 169.879 501.935 165.637 501.935H60.427C56.1848 501.935 51.9426 498.54 51.9426 493.45L51.9387 389.09C51.9387 384 56.1809 380.606 60.4231 380.606H164.783C180.908 380.606 170.724 400.969 174.119 493.456L174.121 493.45ZM174.121 324.6C174.121 329.69 169.879 333.085 165.637 333.085H60.427C56.1848 333.085 51.9426 329.69 51.9426 324.6L51.9387 219.39C51.9387 215.148 56.1809 210.906 60.4231 210.906H164.783C169.025 210.906 173.267 215.148 173.267 219.39L173.271 324.6H174.121ZM174.121 154.9C174.121 159.142 169.879 163.385 165.637 163.385H60.427C56.1848 163.385 51.9426 159.142 51.9426 154.9L51.9387 50.5402C51.9387 45.4504 56.1809 42.0558 60.4231 42.0558H164.783C169.025 42.0558 173.267 45.4503 173.267 50.5402L173.271 154.9H174.121Z" fill="white"/>
<path d="M68.9102 59.0312V146.426H156.305V59.0312H68.9102ZM146.969 87.8792L106.242 128.606C104.547 130.302 102.848 131.153 100.305 131.153C97.7578 131.153 96.0625 130.305 94.3672 128.606L79.0941 113.333C75.6996 109.939 75.6996 104.849 79.0941 101.454C82.4886 98.0597 87.5786 98.0598 90.9732 101.454L100.305 110.79L135.094 76.0012C138.489 72.6067 143.579 72.6067 146.973 76.0012C150.364 79.3957 150.364 85.3331 146.969 87.8801L146.969 87.8792Z" fill="white"/>
<path d="M425.27 484.97V486.666L264.06 486.67C241.15 486.67 227.576 462.912 238.607 443.397C222.486 435.76 217.396 417.092 225.88 403.518C218.244 400.123 212.306 393.334 209.759 384.85C208.064 377.213 208.912 369.577 212.306 363.639C200.427 358.549 192.79 344.971 196.185 330.549C199.58 317.822 211.458 309.338 225.033 309.338C265.76 308.49 304.791 315.275 299.701 296.611C292.065 270.306 267.459 257.58 278.49 227.037C290.369 194.795 336.185 188.853 335.338 213.463C333.643 265.221 387.943 297.463 411.701 309.342L425.275 311.888V313.584L425.27 484.97Z" fill="white"/>
<path d="M539.821 313.57V484.96C539.821 490.05 536.426 493.445 531.336 493.445H451.578C446.488 493.445 443.094 490.05 443.094 484.96V313.57C443.094 308.481 446.488 305.086 451.578 305.086H531.336C535.578 305.086 539.821 308.48 539.821 313.57Z" fill="white"/>
</svg>
