<svg width="420" height="336" viewBox="0 0 420 336" fill="none" xmlns="http://www.w3.org/2000/svg">
<path d="M415.101 151.76C418.367 147.279 419.882 142.518 419.648 137.479C419.417 132.252 417.433 127.491 413.699 123.198C409.964 119.092 405.183 116.104 399.351 114.237L44.8007 1.95699C38.7343 0.0897852 32.5507 -0.378913 26.2497 0.554687C19.7145 1.67579 14.2337 4.00779 9.80068 7.55469C5.13268 11.2891 2.10149 15.7695 0.699091 20.9957C-0.465009 26.0348 0.11706 30.984 2.44909 35.8357L142.799 319.756C145.131 324.42 148.865 328.248 153.998 331.233C159.365 334.221 165.197 335.807 171.498 335.994H172.896C179.197 335.994 185.033 334.686 190.396 332.072C195.533 329.459 199.498 326.006 202.298 321.713L268.099 214.753L401.799 161.831C407.397 159.593 411.83 156.23 415.1 151.753L415.101 151.76Z" fill="white"/>
</svg>
