<svg width="112" height="122" viewBox="0 0 112 122" fill="none" xmlns="http://www.w3.org/2000/svg">
<circle cx="56" cy="61" r="45" stroke="white" stroke-width="10"/>
<path d="M106.739 75.4069C107.668 75.9182 108.041 77.0671 107.543 78.0035C99.2906 93.5377 80.1961 108.408 64.0827 115.749C62.9162 116.281 61.5842 115.549 61.3616 114.286L58.473 97.904C58.3216 97.0455 58.7461 96.1881 59.5151 95.7773C73.4936 88.3094 80.2504 81.8517 89.2972 67.9424C89.8722 67.0583 91.0325 66.7594 91.9563 67.268L106.739 75.4069Z" fill="white"/>
<path d="M4.38254 46.0042C3.46042 45.4924 3.09011 44.351 3.58124 43.4177C11.7885 27.8219 30.9229 12.957 47.0921 5.66605C48.2538 5.14221 49.5766 5.86809 49.8046 7.12191L52.8123 23.666C52.9693 24.5299 52.5424 25.3946 51.7669 25.8061C37.765 33.2346 31.0097 39.692 21.9994 53.6255C21.4242 54.5151 20.2574 54.8154 19.3311 54.3013L4.38254 46.0042Z" fill="white"/>
</svg>
