<svg width="969" height="470" viewBox="0 0 969 470" fill="none" xmlns="http://www.w3.org/2000/svg">
<circle cx="236" cy="235.252" r="195" stroke="white" stroke-width="10"/>
<path d="M167.003 42.8426C164.778 40.7183 165.699 36.9811 168.662 36.1516C215.787 22.9584 246.77 22.2742 299.027 36.1632C302.062 36.9699 302.994 40.8117 300.675 42.9292L284.578 57.6266C283.592 58.5266 282.211 58.8715 280.913 58.5594C245.716 50.0946 224.424 49.9109 186.117 58.5827C184.804 58.88 183.414 58.5071 182.44 57.5774L167.003 42.8426Z" fill="white"/>
<path d="M300.997 427.477C303.222 429.601 302.301 433.338 299.338 434.168C252.213 447.361 221.23 448.045 168.973 434.156C165.938 433.349 165.006 429.508 167.325 427.39L183.422 412.693C184.408 411.793 185.789 411.448 187.087 411.76C222.284 420.225 243.576 420.408 281.883 411.737C283.196 411.439 284.586 411.812 285.56 412.742L300.997 427.477Z" fill="white"/>
<circle cx="236.083" cy="234.706" r="159.142" transform="rotate(52.7248 236.083 234.706)" stroke="white" stroke-width="10"/>
<path d="M327.306 95.2392C327.649 92.1817 331.178 90.65 333.626 92.5133C364.696 116.16 380.389 135.907 396.935 175.71C398.14 178.61 395.648 181.678 392.559 181.115L376.608 178.208C375.294 177.969 374.186 177.082 373.646 175.861C361.791 149.005 351.348 135.043 326.961 114.561C325.93 113.695 325.388 112.366 325.538 111.028L327.306 95.2392Z" fill="white"/>
<path d="M142.994 371.467C142.652 374.525 139.123 376.057 136.675 374.193C105.605 350.547 89.9119 330.8 73.3661 290.996C72.1606 288.096 74.6526 285.029 77.7422 285.592L93.6931 288.498C95.0064 288.738 96.1152 289.624 96.6543 290.845C108.51 317.702 118.953 331.663 143.34 352.146C144.371 353.012 144.913 354.341 144.763 355.679L142.994 371.467Z" fill="white"/>
<circle cx="236.41" cy="235.28" r="126.071" transform="rotate(125.465 236.41 235.28)" stroke="white" stroke-width="10"/>
<path d="M363.005 272.063C366.026 271.483 368.538 274.391 367.471 277.276C357.087 305.361 345.869 321.771 320.61 343.036C318.208 345.059 314.551 343.58 314.172 340.463L312.837 329.48C312.676 328.155 313.19 326.837 314.194 325.958C331.544 310.785 339.683 299.55 349.391 276.512C349.913 275.271 351.019 274.364 352.342 274.11L363.005 272.063Z" fill="white"/>
<path d="M111.433 196.431C108.411 197.011 105.899 194.104 106.966 191.218C117.35 163.134 128.569 146.724 153.827 125.458C156.23 123.436 159.886 124.914 160.265 128.032L161.601 139.014C161.762 140.34 161.248 141.658 160.243 142.536C142.893 157.71 134.754 168.944 125.047 191.983C124.524 193.223 123.418 194.13 122.096 194.384L111.433 196.431Z" fill="white"/>
<rect x="257" y="143" width="221" height="184" fill="#343258"/>
<path d="M192.208 280V206.336H166.8V190.4H234.32V206.336H208.784V280H192.208ZM248.984 280V194.944L264.984 187.584V220.928C267.075 218.283 269.571 216.32 272.472 215.04C275.416 213.717 278.765 213.056 282.52 213.056C287.555 213.056 291.757 214.123 295.128 216.256C298.541 218.347 301.101 221.355 302.808 225.28C304.515 229.163 305.368 233.813 305.368 239.232V280H289.432V244.16C289.432 238.784 288.515 234.795 286.68 232.192C284.845 229.589 281.859 228.288 277.72 228.288C273.368 228.288 270.147 229.568 268.056 232.128C266.008 234.645 264.984 238.571 264.984 243.904V280H248.984ZM351.727 281.536C342.511 281.536 335.236 278.485 329.903 272.384C324.57 266.283 321.903 257.941 321.903 247.36C321.903 240.363 323.119 234.304 325.551 229.184C327.983 224.021 331.418 220.053 335.855 217.28C340.335 214.464 345.626 213.056 351.727 213.056C357.786 213.056 363.034 214.443 367.471 217.216C371.908 219.989 375.322 223.936 377.711 229.056C380.1 234.176 381.295 240.256 381.295 247.296C381.295 254.379 380.1 260.48 377.711 265.6C375.364 270.72 371.972 274.667 367.535 277.44C363.098 280.171 357.828 281.536 351.727 281.536ZM351.727 266.24C356.036 266.24 359.386 264.576 361.775 261.248C364.164 257.92 365.359 253.269 365.359 247.296C365.359 241.323 364.143 236.672 361.711 233.344C359.322 229.973 355.994 228.288 351.727 228.288C347.418 228.288 344.047 229.973 341.615 233.344C339.183 236.715 337.967 241.387 337.967 247.36C337.967 253.248 339.183 257.877 341.615 261.248C344.047 264.576 347.418 266.24 351.727 266.24ZM396.609 280V214.592H412.609V220.672C414.7 218.027 417.046 216.107 419.649 214.912C422.294 213.675 425.281 213.056 428.609 213.056C432.492 213.056 435.82 213.845 438.593 215.424C441.366 217.003 443.521 219.307 445.057 222.336C447.233 219.349 450.028 217.067 453.441 215.488C456.854 213.867 460.716 213.056 465.025 213.056C473.046 213.056 479.105 215.211 483.201 219.52C487.297 223.829 489.345 230.229 489.345 238.72V280H473.409V244.224C473.409 238.763 472.513 234.752 470.721 232.192C468.929 229.589 466.156 228.288 462.401 228.288C459.841 228.288 457.708 228.864 456.001 230.016C454.337 231.168 453.078 232.917 452.225 235.264C451.372 237.568 450.945 240.491 450.945 244.032V280H435.009V244.224C435.009 238.72 434.134 234.688 432.385 232.128C430.636 229.568 427.862 228.288 424.065 228.288C420.182 228.288 417.302 229.547 415.425 232.064C413.548 234.581 412.609 238.485 412.609 243.776V280H396.609ZM528.187 281.536C521.062 281.536 515.408 279.616 511.227 275.776C507.088 271.893 505.019 266.645 505.019 260.032C505.019 255.765 506.086 252.032 508.219 248.832C510.395 245.589 513.403 243.093 517.243 241.344C521.126 239.552 525.648 238.656 530.811 238.656C533.67 238.656 536.422 238.933 539.067 239.488C541.755 240 544.102 240.747 546.107 241.728V237.632C546.107 233.963 545.062 231.211 542.971 229.376C540.923 227.499 537.894 226.56 533.883 226.56C530.683 226.56 527.398 227.136 524.027 228.288C520.656 229.44 517.243 231.147 513.787 233.408L508.987 220.8C512.742 218.325 516.923 216.427 521.531 215.104C526.139 213.739 530.79 213.056 535.483 213.056C544.272 213.056 550.843 215.147 555.195 219.328C559.547 223.467 561.723 229.653 561.723 237.888V280H546.107V274.752C543.888 276.971 541.243 278.656 538.171 279.808C535.142 280.96 531.814 281.536 528.187 281.536ZM531.899 268.032C534.544 268.032 537.083 267.52 539.515 266.496C541.99 265.429 544.187 263.936 546.107 262.016V254.272C544.272 253.376 542.224 252.693 539.963 252.224C537.744 251.712 535.526 251.456 533.307 251.456C529.339 251.456 526.203 252.224 523.899 253.76C521.638 255.253 520.507 257.344 520.507 260.032C520.507 262.549 521.51 264.512 523.515 265.92C525.52 267.328 528.315 268.032 531.899 268.032ZM601.485 281.536C596.365 281.536 591.458 280.448 586.765 278.272C582.114 276.096 578.424 273.173 575.693 269.504L586.189 260.672C588.365 262.976 590.882 264.811 593.741 266.176C596.6 267.499 599.33 268.16 601.933 268.16C605.176 268.16 607.672 267.627 609.421 266.56C611.17 265.451 612.045 263.915 612.045 261.952C612.045 260.672 611.618 259.541 610.765 258.56C609.954 257.536 608.504 256.512 606.413 255.488C604.322 254.421 601.378 253.205 597.581 251.84C590.242 249.152 585.037 246.251 581.965 243.136C578.893 239.979 577.357 235.989 577.357 231.168C577.357 225.792 579.533 221.44 583.885 218.112C588.237 214.741 593.912 213.056 600.909 213.056C605.688 213.056 610.082 213.952 614.093 215.744C618.146 217.536 621.624 220.16 624.525 223.616L614.093 232.256C610.253 228.373 605.773 226.432 600.653 226.432C598.05 226.432 595.96 226.923 594.381 227.904C592.802 228.843 592.013 230.123 592.013 231.744C592.013 233.323 592.93 234.731 594.765 235.968C596.642 237.205 600.12 238.656 605.197 240.32C610.232 241.899 614.306 243.691 617.421 245.696C620.578 247.701 622.882 250.027 624.333 252.672C625.826 255.317 626.573 258.368 626.573 261.824C626.573 267.968 624.333 272.789 619.853 276.288C615.416 279.787 609.293 281.536 601.485 281.536ZM675.749 280V190.4H692.325V233.28L726.373 190.4H745.957L719.973 222.4L751.653 280H732.261L708.709 236.352L692.325 256.704V280H675.749ZM787.303 281.536C781.031 281.536 775.612 280.128 771.047 277.312C766.524 274.496 763.026 270.528 760.551 265.408C758.119 260.245 756.903 254.187 756.903 247.232C756.903 240.192 758.14 234.112 760.615 228.992C763.132 223.872 766.652 219.947 771.175 217.216C775.74 214.443 781.116 213.056 787.303 213.056C792.594 213.056 797.394 214.165 801.703 216.384C806.012 218.603 809.447 222.016 812.007 226.624C814.567 231.189 815.847 237.013 815.847 244.096C815.847 245.205 815.804 246.571 815.719 248.192C815.676 249.771 815.57 251.371 815.399 252.992H772.711C772.882 255.979 773.564 258.603 774.759 260.864C775.996 263.083 777.682 264.811 779.815 266.048C781.948 267.285 784.466 267.904 787.367 267.904C790.482 267.904 793.191 267.392 795.495 266.368C797.799 265.301 799.975 263.616 802.023 261.312L811.239 270.848C808.423 274.048 805.031 276.629 801.063 278.592C797.095 280.555 792.508 281.536 787.303 281.536ZM772.775 240.512H800.359C800.146 237.653 799.506 235.2 798.439 233.152C797.372 231.061 795.879 229.461 793.959 228.352C792.039 227.243 789.714 226.688 786.983 226.688C783.228 226.688 780.028 227.84 777.383 230.144C774.738 232.448 773.202 235.904 772.775 240.512ZM832.249 280V194.816L848.249 187.584V280H832.249ZM869.499 280V194.816L885.499 187.584V280H869.499ZM914.301 304.832L924.221 278.848L899.709 214.592H916.157L930.429 252.864C930.813 253.76 931.176 254.741 931.517 255.808C931.858 256.875 932.178 257.941 932.477 259.008C932.733 257.941 933.032 256.896 933.373 255.872C933.757 254.805 934.141 253.803 934.525 252.864L948.797 214.592H965.245L930.813 304.832H914.301Z" fill="white"/>
</svg>
