<svg id="eN6pxVa3fiU1" xmlns="http://www.w3.org/2000/svg" xmlns:xlink="http://www.w3.org/1999/xlink" viewBox="0 0 473 470" shape-rendering="geometricPrecision" text-rendering="geometricPrecision"><style><![CDATA[#eN6pxVa3fiU2_tr {animation: eN6pxVa3fiU2_tr__tr 3000ms linear infinite normal forwards}@keyframes eN6pxVa3fiU2_tr__tr { 0% {transform: translate(236px,235.078661px) rotate(0deg);animation-timing-function: cubic-bezier(0,0,0.58,1)} 100% {transform: translate(236px,235.078661px) rotate(-180deg)}} #eN6pxVa3fiU2_ts {animation: eN6pxVa3fiU2_ts__ts 3000ms linear infinite normal forwards}@keyframes eN6pxVa3fiU2_ts__ts { 0% {transform: scale(1,1)} 66.666667% {transform: scale(1,1);animation-timing-function: cubic-bezier(0.42,0,0.58,1)} 83.333333% {transform: scale(1.1,1.1);animation-timing-function: cubic-bezier(0.42,0,0.58,1)} 100% {transform: scale(1,1)}} #eN6pxVa3fiU2 {animation: eN6pxVa3fiU2_c_o 3000ms linear infinite normal forwards}@keyframes eN6pxVa3fiU2_c_o { 0% {opacity: 0.1;animation-timing-function: cubic-bezier(0,0,0.58,1)} 10% {opacity: 1} 66.666667% {opacity: 1;animation-timing-function: cubic-bezier(0.42,0,0.58,1)} 83.333333% {opacity: 0.5;animation-timing-function: cubic-bezier(0.42,0,0.58,1)} 100% {opacity: 0.1}} #eN6pxVa3fiU6_tr {animation: eN6pxVa3fiU6_tr__tr 3000ms linear infinite normal forwards}@keyframes eN6pxVa3fiU6_tr__tr { 0% {transform: translate(236.082701px,234.624998px) rotate(0deg);animation-timing-function: cubic-bezier(0,0,0.58,1)} 100% {transform: translate(236.082701px,234.624998px) rotate(360deg)}} #eN6pxVa3fiU6_ts {animation: eN6pxVa3fiU6_ts__ts 3000ms linear infinite normal forwards}@keyframes eN6pxVa3fiU6_ts__ts { 0% {transform: scale(1,1)} 66.666667% {transform: scale(1,1);animation-timing-function: cubic-bezier(0.42,0,0.58,1)} 83.333333% {transform: scale(1.1,1.1);animation-timing-function: cubic-bezier(0.42,0,0.58,1)} 100% {transform: scale(1,1)}} #eN6pxVa3fiU6 {animation: eN6pxVa3fiU6_c_o 3000ms linear infinite normal forwards}@keyframes eN6pxVa3fiU6_c_o { 0% {opacity: 0.1;animation-timing-function: cubic-bezier(0,0,0.58,1)} 10% {opacity: 1} 66.666667% {opacity: 1;animation-timing-function: cubic-bezier(0.42,0,0.58,1)} 83.333333% {opacity: 0.5;animation-timing-function: cubic-bezier(0.42,0,0.58,1)} 100% {opacity: 0.1}} #eN6pxVa3fiU10_tr {animation: eN6pxVa3fiU10_tr__tr 3000ms linear infinite normal forwards}@keyframes eN6pxVa3fiU10_tr__tr { 0% {transform: translate(236.41008px,235.199234px) rotate(0deg);animation-timing-function: cubic-bezier(0,0,0.58,1)} 100% {transform: translate(236.41008px,235.199234px) rotate(-360deg)}} #eN6pxVa3fiU10_ts {animation: eN6pxVa3fiU10_ts__ts 3000ms linear infinite normal forwards}@keyframes eN6pxVa3fiU10_ts__ts { 0% {transform: scale(1,1)} 66.666667% {transform: scale(1,1);animation-timing-function: cubic-bezier(0.42,0,0.58,1)} 83.333333% {transform: scale(1.1,1.1);animation-timing-function: cubic-bezier(0.42,0,0.58,1)} 100% {transform: scale(1,1)}} #eN6pxVa3fiU10 {animation: eN6pxVa3fiU10_c_o 3000ms linear infinite normal forwards}@keyframes eN6pxVa3fiU10_c_o { 0% {opacity: 0.1;animation-timing-function: cubic-bezier(0,0,0.58,1)} 10% {opacity: 1} 66.666667% {opacity: 1;animation-timing-function: cubic-bezier(0.42,0,0.58,1)} 83.333333% {opacity: 0.5;animation-timing-function: cubic-bezier(0.42,0,0.58,1)} 100% {opacity: 0.1}}]]></style><g id="eN6pxVa3fiU2_tr" transform="translate(236,235.078661) rotate(0)"><g id="eN6pxVa3fiU2_ts" transform="scale(1,1)"><g id="eN6pxVa3fiU2" transform="translate(-236,-235.078661)" opacity="0.1"><circle r="195" transform="translate(236 235.171)" fill="none" stroke="#fff" stroke-width="10"/><path d="M167.003,42.7616c-2.225-2.1244-1.304-5.8616,1.659-6.691c47.125-13.1932,78.108-13.8774,130.365.0116c3.035.8067,3.967,4.6484,1.648,6.766L284.578,57.5455c-.986.9001-2.367,1.2449-3.665.9328-35.197-8.4647-56.489-8.6485-94.796.0234-1.313.2973-2.703-.0756-3.677-1.0053L167.003,42.7616Z" fill="#fff"/><path d="M300.997,427.396c2.225,2.124,1.304,5.861-1.659,6.691-47.125,13.193-78.108,13.877-130.365-.012-3.035-.807-3.967-4.648-1.648-6.766l16.097-14.697c.986-.9,2.367-1.245,3.665-.933c35.197,8.465,56.489,8.648,94.796-.023c1.313-.298,2.703.075,3.677,1.005l15.437,14.735Z" fill="#fff"/></g></g></g><g id="eN6pxVa3fiU6_tr" transform="translate(236.082701,234.624998) rotate(0)"><g id="eN6pxVa3fiU6_ts" transform="scale(1,1)"><g id="eN6pxVa3fiU6" transform="translate(-236.082701,-234.624998)" opacity="0.1"><circle r="159.142" transform="matrix(.605644 0.795736-.795736 0.605644 236.082701 234.624993)" fill="none" stroke="#fff" stroke-width="10"/><path d="M327.306,95.1581c.343-3.0575,3.872-4.5892,6.32-2.7259c31.07,23.6458,46.763,43.3938,63.309,83.1968c1.205,2.9-1.287,5.968-4.376,5.405l-15.951-2.907c-1.314-.239-2.422-1.126-2.962-2.347-11.855-26.856-22.298-40.818-46.685-61.3-1.031-.866-1.573-2.195-1.423-3.533l1.768-15.7889Z" fill="#fff"/><path d="M142.994,371.386c-.342,3.058-3.871,4.589-6.319,2.726-31.07-23.646-46.7631-43.393-63.3089-83.197-1.2055-2.9,1.2865-5.967,4.3761-5.404l15.9509,2.906c1.3133.24,2.4221,1.126,2.9612,2.347c11.8557,26.857,22.2987,40.818,46.6857,61.301c1.031.866,1.573,2.195,1.423,3.533l-1.769,15.788Z" fill="#fff"/></g></g></g><g id="eN6pxVa3fiU10_tr" transform="translate(236.41008,235.199234) rotate(0)"><g id="eN6pxVa3fiU10_ts" transform="scale(1,1)"><g id="eN6pxVa3fiU10" transform="translate(-236.41008,-235.199234)" opacity="0.1"><circle r="126.071" transform="matrix(-.580205 0.81447-.81447-.580205 236.410079 235.199241)" fill="none" stroke="#fff" stroke-width="10"/><path d="M363.005,271.982c3.021-.58,5.533,2.328,4.466,5.214-10.384,28.084-21.602,44.494-46.861,65.759-2.402,2.023-6.059.544-6.438-2.573l-1.335-10.983c-.161-1.325.353-2.643,1.357-3.522c17.35-15.173,25.489-26.407,35.197-49.446.522-1.241,1.628-2.148,2.951-2.401l10.663-2.048Z" fill="#fff"/><path d="M111.433,196.35c-3.022.58-5.534-2.327-4.467-5.213c10.384-28.084,21.603-44.494,46.861-65.76c2.403-2.022,6.059-.544,6.438,2.574l1.336,10.982c.161,1.326-.353,2.644-1.358,3.522-17.35,15.174-25.489,26.408-35.196,49.446-.523,1.241-1.629,2.148-2.951,2.402l-10.663,2.047Z" fill="#fff"/></g></g></g></svg>