<svg width="473" height="470" viewBox="0 0 473 470" fill="none" xmlns="http://www.w3.org/2000/svg">
<circle cx="236" cy="235.171" r="195" stroke="white" stroke-width="10"/>
<path d="M167.003 42.7616C164.778 40.6372 165.699 36.9 168.662 36.0706C215.787 22.8774 246.77 22.1932 299.027 36.0822C302.062 36.8889 302.994 40.7306 300.675 42.8482L284.578 57.5455C283.592 58.4456 282.211 58.7904 280.913 58.4783C245.716 50.0136 224.424 49.8298 186.117 58.5017C184.804 58.799 183.414 58.4261 182.44 57.4964L167.003 42.7616Z" fill="white"/>
<path d="M300.997 427.396C303.222 429.52 302.301 433.257 299.338 434.087C252.213 447.28 221.23 447.964 168.973 434.075C165.938 433.268 165.006 429.427 167.325 427.309L183.422 412.612C184.408 411.712 185.789 411.367 187.087 411.679C222.284 420.144 243.576 420.327 281.883 411.656C283.196 411.358 284.586 411.731 285.56 412.661L300.997 427.396Z" fill="white"/>
<circle cx="236.083" cy="234.625" r="159.142" transform="rotate(52.7248 236.083 234.625)" stroke="white" stroke-width="10"/>
<path d="M327.306 95.1581C327.649 92.1006 331.178 90.5689 333.626 92.4322C364.696 116.078 380.389 135.826 396.935 175.629C398.14 178.529 395.648 181.597 392.559 181.034L376.608 178.127C375.294 177.888 374.186 177.001 373.646 175.78C361.791 148.924 351.348 134.962 326.961 114.48C325.93 113.614 325.388 112.285 325.538 110.947L327.306 95.1581Z" fill="white"/>
<path d="M142.994 371.386C142.652 374.444 139.123 375.975 136.675 374.112C105.605 350.466 89.9119 330.719 73.3661 290.915C72.1606 288.015 74.6526 284.948 77.7422 285.511L93.6931 288.417C95.0064 288.657 96.1152 289.543 96.6543 290.764C108.51 317.621 118.953 331.582 143.34 352.065C144.371 352.931 144.913 354.26 144.763 355.598L142.994 371.386Z" fill="white"/>
<circle cx="236.41" cy="235.199" r="126.071" transform="rotate(125.465 236.41 235.199)" stroke="white" stroke-width="10"/>
<path d="M363.005 271.982C366.026 271.402 368.538 274.31 367.471 277.196C357.087 305.28 345.869 321.69 320.61 342.955C318.208 344.978 314.551 343.499 314.172 340.382L312.837 329.399C312.676 328.074 313.19 326.756 314.194 325.877C331.544 310.704 339.683 299.47 349.391 276.431C349.913 275.19 351.019 274.283 352.342 274.03L363.005 271.982Z" fill="white"/>
<path d="M111.433 196.35C108.411 196.93 105.899 194.023 106.966 191.137C117.35 163.053 128.569 146.643 153.827 125.377C156.23 123.355 159.886 124.833 160.265 127.951L161.601 138.933C161.762 140.259 161.248 141.577 160.243 142.455C142.893 157.629 134.754 168.863 125.047 191.901C124.524 193.142 123.418 194.049 122.096 194.303L111.433 196.35Z" fill="white"/>
</svg>
