<svg width="533" height="508" viewBox="0 0 533 508" fill="none" xmlns="http://www.w3.org/2000/svg">
<path d="M507.362 0.879076H24.0819C10.6409 0.879076 0.00390625 11.5201 0.00390625 25.5201V345.28C0.00390625 358.721 10.6449 369.921 24.0819 369.921H142.802V368.241C145.04 352.003 154.001 337.44 168.001 328.479C169.681 327.358 171.36 326.241 173.602 325.12H93.5245V45.68H466.484V316.72C473.766 326.239 478.247 338.56 478.247 351.439V370.478H507.367C520.808 370.478 532.008 359.279 532.008 345.837L532.005 25.517C532.005 12.076 521.364 0.875977 507.364 0.875977L507.362 0.879076ZM47.0419 205.839C35.8429 205.839 26.8819 196.878 26.8819 185.679C26.8819 174.48 35.8428 164.96 47.0419 164.96C58.2409 164.96 67.7609 173.921 67.7609 185.679C67.2023 196.878 58.2414 205.839 47.0419 205.839ZM507.362 213.12C507.362 217.601 504.003 220.96 499.522 220.96C495.042 220.96 491.682 217.601 491.682 213.12V157.12C491.682 152.64 495.042 149.28 499.522 149.28C504.003 149.28 507.362 152.64 507.362 157.12V213.12Z" fill="#A259FF"/>
<path d="M420.563 325.12C411.602 325.12 403.204 330.159 398.723 337.44V336.881C398.723 322.881 386.961 311.119 372.961 311.119C364 311.119 355.602 316.158 351.121 323.439V322.881C351.121 308.881 339.359 297.119 325.359 297.119C316.398 297.119 308 302.158 303.519 309.439L303.523 222.076C303.523 215.357 300.722 208.635 295.683 203.596C290.644 198.557 284.484 196.314 277.203 196.314C263.203 196.314 251.441 208.076 251.441 222.076V381.676C251.441 383.356 250.883 384.477 249.203 385.036C247.523 385.594 246.402 385.594 245.281 384.477L218.961 358.715C210 349.754 196 348.637 185.922 355.356C179.762 359.278 175.844 365.997 174.723 373.278C173.602 380.559 175.844 387.837 180.325 393.438L245.286 471.836C263.766 494.234 291.208 507.117 319.766 507.117H361.204C384.165 507.117 405.442 498.156 421.126 482.476C437.364 466.238 445.767 444.956 445.767 422.554V351.433C446.325 336.874 434.564 325.117 420.564 325.117L420.563 325.12Z" fill="#A259FF"/>
<path d="M290.081 156V128C290.081 121.281 284.48 115.68 277.761 115.68C271.043 115.68 265.441 121.282 265.441 128V156C265.441 162.719 271.043 168.32 277.761 168.32C284.484 168.879 290.081 163.281 290.081 156Z" fill="#A259FF"/>
<path d="M218.404 175.6C220.642 179.522 225.123 181.76 229.045 181.76C231.283 181.76 233.525 181.202 235.205 180.08C241.365 176.721 243.045 168.881 239.686 163.279L225.686 139.201C222.326 133.041 214.487 131.362 208.885 134.721C202.724 138.08 201.045 145.92 204.404 151.522L218.404 175.6Z" fill="#A259FF"/>
<path d="M326.482 181.76C330.963 181.76 334.881 179.522 337.123 175.6L351.123 151.522C354.483 145.362 352.803 138.081 346.643 134.721C340.482 131.361 333.202 133.041 329.842 139.201L315.842 163.279C312.482 169.439 314.162 176.72 320.322 180.08C322.002 181.197 324.24 181.76 326.482 181.76H326.482Z" fill="#A259FF"/>
</svg>
