<svg width="458" height="457" viewBox="0 0 458 457" fill="none" xmlns="http://www.w3.org/2000/svg">
<path d="M192.999 0.5C141.944 0.5 92.9791 20.781 56.8791 56.883C20.7771 92.985 0.496094 141.945 0.496094 193.003C0.496094 244.061 20.7771 293.023 56.8791 329.123C92.9811 365.225 141.941 385.506 192.999 385.506C225.854 385.561 258.167 377.119 286.8 361.006C297.245 355.295 307.097 348.553 316.198 340.881C321.975 336.069 327.468 330.928 332.647 325.483C335.624 322.506 338.249 319.358 340.874 316.21V316.206C348.546 307.104 355.288 297.253 360.999 286.808C377.112 258.175 385.554 225.863 385.499 193.007C385.467 141.964 365.175 93.0187 329.081 56.9267C292.987 20.8347 244.042 0.539694 193.001 0.508694L192.999 0.5ZM327.049 275.43C298.467 322.067 247.697 350.5 192.999 350.5C138.301 350.5 87.5291 322.066 58.9491 275.43C43.5781 250.688 35.4571 222.133 35.5001 193.004C35.4923 145.109 57.2771 99.816 94.6951 69.924C132.117 40.033 181.101 28.791 227.815 39.377C274.522 49.963 313.877 81.225 334.755 124.33C355.633 167.435 355.759 217.697 335.107 260.9C332.654 265.802 330.029 270.701 327.056 275.427L327.049 275.43Z" fill="white"/>
<path d="M441.68 441.68C431.762 451.438 418.407 456.907 404.492 456.907C390.578 456.907 377.222 451.438 367.304 441.68L313.054 387.43L286.804 361.004L260.906 335.106H260.902C257.645 331.825 255.816 327.391 255.816 322.766C255.816 318.145 257.645 313.707 260.902 310.43L310.429 260.903C312.922 258.36 316.179 256.7 319.703 256.18C322.695 262.375 325.152 268.817 327.054 275.43C330.031 270.704 332.656 265.805 335.105 260.907L361.003 286.805L441.679 367.305C451.511 377.184 457.034 390.555 457.034 404.493C457.034 418.431 451.511 431.802 441.679 441.681L441.68 441.68Z" fill="white"/>
<path d="M332.999 315.5C332.999 318.824 332.823 322.148 332.647 325.477C331.987 334.652 330.405 343.739 327.924 352.602C324.639 364.856 319.631 376.579 313.049 387.426L286.799 361C249.479 381.895 206.26 389.746 163.979 383.312C121.698 376.874 82.7684 356.523 53.3594 325.476C53.1836 322.148 53.0079 318.823 53.0079 315.499C52.9961 301.921 55.0001 288.413 58.9571 275.425C71.0941 234.917 100.867 202.058 139.984 185.999C173.945 171.999 212.07 171.999 246.034 185.999C278.518 199.335 304.811 224.378 319.71 256.175C322.702 262.37 325.159 268.812 327.062 275.425C330.327 286.054 332.265 297.046 332.835 308.148V308.324C333.011 310.773 333.011 313.05 333.011 315.5L332.999 315.5Z" fill="white"/>
<path d="M263 140.5C263 179.16 231.66 210.5 193 210.5C154.34 210.5 123 179.16 123 140.5C123 101.84 154.34 70.5 193 70.5C231.66 70.5 263 101.84 263 140.5Z" fill="white"/>
</svg>
