<svg width="510" height="494" viewBox="0 0 510 494" fill="none" xmlns="http://www.w3.org/2000/svg">
<path d="M162.6 493.4C167.053 493.4 171.327 491.63 174.479 488.482C177.628 485.33 179.397 481.056 179.397 476.603V17.403C179.397 12.9499 177.628 8.67636 174.479 5.52396C171.327 2.37556 167.053 0.605957 162.6 0.605957H17.0001C12.5431 0.605957 8.26962 2.37546 5.12112 5.52396C1.96882 8.67626 0.199219 12.9498 0.199219 17.403V476.603C0.199219 481.056 1.96872 485.33 5.12112 488.482C8.26952 491.63 12.543 493.4 17.0001 493.4H162.6ZM107.159 247L145.8 126.04V367.96L107.159 247ZM139.639 459.8H39.9591L89.7991 302.44L139.639 459.8ZM89.7991 191.56L39.9591 34.2H139.639L89.7991 191.56ZM72.4401 247.001L33.7991 367.961V126.041L72.4401 247.001Z" fill="white"/>
<path d="M492.999 213.4H235.399C230.945 213.4 226.672 215.173 223.52 218.322C220.371 221.474 218.602 225.748 218.602 230.201V476.601C218.602 481.054 220.371 485.327 223.52 488.48C226.672 491.628 230.945 493.398 235.399 493.398H492.999C497.456 493.398 501.729 491.628 504.878 488.48C508.03 485.328 509.799 481.054 509.799 476.601V230.201C509.799 225.748 508.03 221.474 504.878 218.322C501.729 215.173 497.456 213.4 492.999 213.4V213.4ZM340.119 353.4L252.197 437.4V269.4L340.119 353.4ZM277.396 247H450.996L364.195 329.879L277.396 247ZM364.197 376.92L450.998 459.799H277.398L364.197 376.92ZM388.279 353.397L476.197 269.397V437.397L388.279 353.397Z" fill="white"/>
<path d="M492.999 0.602051H235.399C230.945 0.602051 226.672 2.37155 223.52 5.52005C220.371 8.67235 218.602 12.9458 218.602 17.399V151.799C218.602 156.252 220.371 160.526 223.52 163.678C226.672 166.826 230.945 168.6 235.399 168.6H492.999C497.456 168.6 501.729 166.827 504.878 163.678C508.03 160.526 509.799 156.252 509.799 151.799V17.399C509.799 12.9459 508.03 8.67245 504.878 5.52005C501.729 2.37165 497.456 0.602051 492.999 0.602051V0.602051ZM327.799 84.6021L252.197 124.36V44.84L327.799 84.6021ZM303.721 34.2041L424.681 34.2001L364.201 65.5591L303.721 34.2041ZM364.198 103.642L424.678 135.001H303.718L364.198 103.642ZM400.6 84.603L476.202 44.8411L476.198 124.361L400.6 84.603Z" fill="white"/>
</svg>
