<svg width="189" height="129" viewBox="0 0 189 129" fill="none" xmlns="http://www.w3.org/2000/svg">
<path d="M1.152 18V6.752H3.328V18H1.152ZM8.208 18V6.752H10.384V18H8.208ZM2.528 13.152V11.232H8.816V13.152H2.528ZM16.2513 18.16C15.4726 18.16 14.7686 17.984 14.1393 17.632C13.5206 17.2693 13.0246 16.784 12.6512 16.176C12.2886 15.5573 12.1072 14.8693 12.1072 14.112C12.1072 13.3547 12.2886 12.6773 12.6512 12.08C13.0139 11.472 13.5099 10.992 14.1393 10.64C14.7686 10.2773 15.4673 10.096 16.2352 10.096C17.0246 10.096 17.7286 10.2773 18.3472 10.64C18.9766 10.992 19.4726 11.472 19.8352 12.08C20.1979 12.6773 20.3793 13.3547 20.3793 14.112C20.3793 14.8693 20.1979 15.5573 19.8352 16.176C19.4726 16.784 18.9766 17.2693 18.3472 17.632C17.7286 17.984 17.0299 18.16 16.2513 18.16ZM16.2352 16.208C16.6299 16.208 16.9766 16.1227 17.2752 15.952C17.5846 15.7707 17.8193 15.5253 17.9792 15.216C18.1499 14.896 18.2352 14.5333 18.2352 14.128C18.2352 13.7227 18.1499 13.3653 17.9792 13.056C17.8086 12.7467 17.5739 12.5067 17.2752 12.336C16.9766 12.1547 16.6299 12.064 16.2352 12.064C15.8513 12.064 15.5099 12.1547 15.2113 12.336C14.9126 12.5067 14.6779 12.7467 14.5073 13.056C14.3366 13.3653 14.2513 13.7227 14.2513 14.128C14.2513 14.5333 14.3366 14.896 14.5073 15.216C14.6779 15.5253 14.9126 15.7707 15.2113 15.952C15.5099 16.1227 15.8513 16.208 16.2352 16.208ZM24.1662 18L20.7582 10.272H23.0622L25.5103 16.64H24.3742L26.8383 10.272H29.0623L25.6702 18H24.1662ZM33.6509 18.16C32.8402 18.16 32.1202 17.9893 31.4909 17.648C30.8615 17.296 30.3602 16.816 29.9869 16.208C29.6242 15.6 29.4429 14.9067 29.4429 14.128C29.4429 13.36 29.6189 12.6773 29.9709 12.08C30.3335 11.472 30.8242 10.992 31.4429 10.64C32.0615 10.2773 32.7495 10.096 33.5069 10.096C34.2535 10.096 34.9095 10.2667 35.4749 10.608C36.0509 10.9387 36.4989 11.3973 36.8189 11.984C37.1495 12.56 37.3149 13.216 37.3149 13.952C37.3149 14.0907 37.3042 14.2347 37.2829 14.384C37.2722 14.5227 37.2455 14.6827 37.2029 14.864L30.7069 14.88V13.312L36.2269 13.296L35.3789 13.952C35.3575 13.4933 35.2722 13.1093 35.1229 12.8C34.9842 12.4907 34.7762 12.256 34.4989 12.096C34.2322 11.9253 33.9015 11.84 33.5069 11.84C33.0909 11.84 32.7282 11.936 32.4189 12.128C32.1095 12.3093 31.8695 12.5707 31.6989 12.912C31.5389 13.2427 31.4589 13.6373 31.4589 14.096C31.4589 14.5653 31.5442 14.976 31.7149 15.328C31.8962 15.6693 32.1522 15.936 32.4829 16.128C32.8135 16.3093 33.1975 16.4 33.6349 16.4C34.0295 16.4 34.3869 16.336 34.7069 16.208C35.0269 16.0693 35.3042 15.8667 35.5389 15.6L36.7709 16.832C36.3975 17.2693 35.9389 17.6 35.3949 17.824C34.8615 18.048 34.2802 18.16 33.6509 18.16ZM38.7711 18V10.272H40.8671V18H38.7711ZM40.8671 13.728L40.0511 13.184C40.1471 12.2347 40.4245 11.488 40.8831 10.944C41.3418 10.3893 42.0031 10.112 42.8671 10.112C43.2405 10.112 43.5765 10.176 43.8751 10.304C44.1738 10.4213 44.4458 10.6187 44.6911 10.896L43.3791 12.4C43.2618 12.272 43.1178 12.176 42.9471 12.112C42.7871 12.048 42.6005 12.016 42.3871 12.016C41.9391 12.016 41.5711 12.16 41.2831 12.448C41.0058 12.7253 40.8671 13.152 40.8671 13.728ZM52.7856 18.16C52.007 18.16 51.303 17.984 50.6736 17.632C50.055 17.2693 49.559 16.784 49.1856 16.176C48.823 15.5573 48.6416 14.8693 48.6416 14.112C48.6416 13.3547 48.823 12.6773 49.1856 12.08C49.5483 11.472 50.0443 10.992 50.6736 10.64C51.303 10.2773 52.0016 10.096 52.7696 10.096C53.559 10.096 54.263 10.2773 54.8816 10.64C55.511 10.992 56.007 11.472 56.3696 12.08C56.7323 12.6773 56.9136 13.3547 56.9136 14.112C56.9136 14.8693 56.7323 15.5573 56.3696 16.176C56.007 16.784 55.511 17.2693 54.8816 17.632C54.263 17.984 53.5643 18.16 52.7856 18.16ZM52.7696 16.208C53.1643 16.208 53.511 16.1227 53.8096 15.952C54.119 15.7707 54.3536 15.5253 54.5136 15.216C54.6843 14.896 54.7696 14.5333 54.7696 14.128C54.7696 13.7227 54.6843 13.3653 54.5136 13.056C54.343 12.7467 54.1083 12.5067 53.8096 12.336C53.511 12.1547 53.1643 12.064 52.7696 12.064C52.3856 12.064 52.0443 12.1547 51.7456 12.336C51.447 12.5067 51.2123 12.7467 51.0416 13.056C50.871 13.3653 50.7856 13.7227 50.7856 14.128C50.7856 14.5333 50.871 14.896 51.0416 15.216C51.2123 15.5253 51.447 15.7707 51.7456 15.952C52.0443 16.1227 52.3856 16.208 52.7696 16.208ZM60.7006 18L57.2926 10.272H59.5966L62.0446 16.64H60.9086L63.3726 10.272H65.5966L62.2046 18H60.7006ZM70.1852 18.16C69.3746 18.16 68.6546 17.9893 68.0252 17.648C67.3959 17.296 66.8946 16.816 66.5212 16.208C66.1586 15.6 65.9772 14.9067 65.9772 14.128C65.9772 13.36 66.1532 12.6773 66.5052 12.08C66.8679 11.472 67.3586 10.992 67.9772 10.64C68.5959 10.2773 69.2839 10.096 70.0412 10.096C70.7879 10.096 71.4439 10.2667 72.0092 10.608C72.5852 10.9387 73.0332 11.3973 73.3532 11.984C73.6839 12.56 73.8492 13.216 73.8492 13.952C73.8492 14.0907 73.8386 14.2347 73.8172 14.384C73.8066 14.5227 73.7799 14.6827 73.7372 14.864L67.2412 14.88V13.312L72.7612 13.296L71.9132 13.952C71.8919 13.4933 71.8066 13.1093 71.6572 12.8C71.5186 12.4907 71.3106 12.256 71.0332 12.096C70.7666 11.9253 70.4359 11.84 70.0412 11.84C69.6252 11.84 69.2626 11.936 68.9532 12.128C68.6439 12.3093 68.4039 12.5707 68.2332 12.912C68.0732 13.2427 67.9932 13.6373 67.9932 14.096C67.9932 14.5653 68.0786 14.976 68.2492 15.328C68.4306 15.6693 68.6866 15.936 69.0172 16.128C69.3479 16.3093 69.7319 16.4 70.1692 16.4C70.5639 16.4 70.9212 16.336 71.2412 16.208C71.5612 16.0693 71.8386 15.8667 72.0732 15.6L73.3052 16.832C72.9319 17.2693 72.4732 17.6 71.9292 17.824C71.3959 18.048 70.8146 18.16 70.1852 18.16ZM75.3055 18V10.272H77.4015V18H75.3055ZM77.4015 13.728L76.5855 13.184C76.6815 12.2347 76.9588 11.488 77.4175 10.944C77.8762 10.3893 78.5375 10.112 79.4015 10.112C79.7748 10.112 80.1108 10.176 80.4095 10.304C80.7082 10.4213 80.9802 10.6187 81.2255 10.896L79.9135 12.4C79.7962 12.272 79.6522 12.176 79.4815 12.112C79.3215 12.048 79.1348 12.016 78.9215 12.016C78.4735 12.016 78.1055 12.16 77.8175 12.448C77.5402 12.7253 77.4015 13.152 77.4015 13.728ZM86.824 18V7.056H88.92V18H86.824ZM85.016 12.112V10.272H90.728V12.112H85.016ZM97.2667 18V13.568C97.2667 13.1093 97.1227 12.736 96.8347 12.448C96.5467 12.16 96.1734 12.016 95.7147 12.016C95.4161 12.016 95.1494 12.08 94.9147 12.208C94.6801 12.336 94.4934 12.5173 94.3547 12.752C94.2267 12.9867 94.1627 13.2587 94.1627 13.568L93.3467 13.152C93.3467 12.544 93.4747 12.016 93.7307 11.568C93.9867 11.1093 94.3387 10.752 94.7867 10.496C95.2454 10.24 95.7681 10.112 96.3547 10.112C96.9414 10.112 97.4587 10.24 97.9067 10.496C98.3654 10.752 98.7227 11.104 98.9787 11.552C99.2347 12 99.3627 12.5173 99.3627 13.104V18H97.2667ZM92.0667 18V6.432H94.1627V18H92.0667ZM104.907 18.16C104.096 18.16 103.376 17.9893 102.747 17.648C102.118 17.296 101.616 16.816 101.243 16.208C100.88 15.6 100.699 14.9067 100.699 14.128C100.699 13.36 100.875 12.6773 101.227 12.08C101.59 11.472 102.08 10.992 102.699 10.64C103.318 10.2773 104.006 10.096 104.763 10.096C105.51 10.096 106.166 10.2667 106.731 10.608C107.307 10.9387 107.755 11.3973 108.075 11.984C108.406 12.56 108.571 13.216 108.571 13.952C108.571 14.0907 108.56 14.2347 108.539 14.384C108.528 14.5227 108.502 14.6827 108.459 14.864L101.963 14.88V13.312L107.483 13.296L106.635 13.952C106.614 13.4933 106.528 13.1093 106.379 12.8C106.24 12.4907 106.032 12.256 105.755 12.096C105.488 11.9253 105.158 11.84 104.763 11.84C104.347 11.84 103.984 11.936 103.675 12.128C103.366 12.3093 103.126 12.5707 102.955 12.912C102.795 13.2427 102.715 13.6373 102.715 14.096C102.715 14.5653 102.8 14.976 102.971 15.328C103.152 15.6693 103.408 15.936 103.739 16.128C104.07 16.3093 104.454 16.4 104.891 16.4C105.286 16.4 105.643 16.336 105.963 16.208C106.283 16.0693 106.56 15.8667 106.795 15.6L108.027 16.832C107.654 17.2693 107.195 17.6 106.651 17.824C106.118 18.048 105.536 18.16 104.907 18.16ZM160.533 18V7.056H162.629V18H160.533ZM158.725 12.112V10.272H164.437V12.112H158.725ZM169.285 18.16C168.474 18.16 167.754 17.9893 167.125 17.648C166.495 17.296 165.994 16.816 165.621 16.208C165.258 15.6 165.077 14.9067 165.077 14.128C165.077 13.36 165.253 12.6773 165.605 12.08C165.967 11.472 166.458 10.992 167.077 10.64C167.695 10.2773 168.383 10.096 169.141 10.096C169.887 10.096 170.543 10.2667 171.109 10.608C171.685 10.9387 172.133 11.3973 172.453 11.984C172.783 12.56 172.949 13.216 172.949 13.952C172.949 14.0907 172.938 14.2347 172.917 14.384C172.906 14.5227 172.879 14.6827 172.837 14.864L166.341 14.88V13.312L171.861 13.296L171.013 13.952C170.991 13.4933 170.906 13.1093 170.757 12.8C170.618 12.4907 170.41 12.256 170.133 12.096C169.866 11.9253 169.535 11.84 169.141 11.84C168.725 11.84 168.362 11.936 168.053 12.128C167.743 12.3093 167.503 12.5707 167.333 12.912C167.173 13.2427 167.093 13.6373 167.093 14.096C167.093 14.5653 167.178 14.976 167.349 15.328C167.53 15.6693 167.786 15.936 168.117 16.128C168.447 16.3093 168.831 16.4 169.269 16.4C169.663 16.4 170.021 16.336 170.341 16.208C170.661 16.0693 170.938 15.8667 171.173 15.6L172.405 16.832C172.031 17.2693 171.573 17.6 171.029 17.824C170.495 18.048 169.914 18.16 169.285 18.16ZM179.034 18L177.002 14.864L176.57 14.544L173.562 10.272H176.042L177.914 13.104L178.314 13.408L181.498 18H179.034ZM173.402 18L176.554 13.584L177.754 15.008L175.77 18H173.402ZM178.394 14.528L177.162 13.12L179.002 10.272H181.354L178.394 14.528ZM183.623 18V7.056H185.719V18H183.623ZM181.815 12.112V10.272H187.527V12.112H181.815ZM2.064 42V31.056H4.16V42H2.064ZM0.256 36.112V34.272H5.968V36.112H0.256ZM10.7513 42.16C9.97258 42.16 9.26858 41.984 8.63925 41.632C8.02058 41.2693 7.52458 40.784 7.15125 40.176C6.78858 39.5573 6.60725 38.8693 6.60725 38.112C6.60725 37.3547 6.78858 36.6773 7.15125 36.08C7.51392 35.472 8.00992 34.992 8.63925 34.64C9.26858 34.2773 9.96725 34.096 10.7352 34.096C11.5246 34.096 12.2286 34.2773 12.8472 34.64C13.4766 34.992 13.9726 35.472 14.3352 36.08C14.6979 36.6773 14.8793 37.3547 14.8793 38.112C14.8793 38.8693 14.6979 39.5573 14.3352 40.176C13.9726 40.784 13.4766 41.2693 12.8472 41.632C12.2286 41.984 11.5299 42.16 10.7513 42.16ZM10.7352 40.208C11.1299 40.208 11.4766 40.1227 11.7752 39.952C12.0846 39.7707 12.3193 39.5253 12.4792 39.216C12.6499 38.896 12.7352 38.5333 12.7352 38.128C12.7352 37.7227 12.6499 37.3653 12.4792 37.056C12.3086 36.7467 12.0739 36.5067 11.7752 36.336C11.4766 36.1547 11.1299 36.064 10.7352 36.064C10.3513 36.064 10.0099 36.1547 9.71125 36.336C9.41258 36.5067 9.17792 36.7467 9.00725 37.056C8.83658 37.3653 8.75125 37.7227 8.75125 38.128C8.75125 38.5333 8.83658 38.896 9.00725 39.216C9.17792 39.5253 9.41258 39.7707 9.71125 39.952C10.0099 40.1227 10.3513 40.208 10.7352 40.208ZM22.1856 42L18.7776 34.272H21.0816L23.5296 40.64H22.3936L24.8576 34.272H27.0816L23.6896 42H22.1856ZM28.2086 42V34.272H30.3206V42H28.2086ZM29.2646 33.024C28.9233 33.024 28.6406 32.912 28.4166 32.688C28.1926 32.4533 28.0806 32.1653 28.0806 31.824C28.0806 31.4933 28.1926 31.2107 28.4166 30.976C28.6406 30.7413 28.9233 30.624 29.2646 30.624C29.6166 30.624 29.8993 30.7413 30.1126 30.976C30.3366 31.2107 30.4486 31.4933 30.4486 31.824C30.4486 32.1653 30.3366 32.4533 30.1126 32.688C29.8993 32.912 29.6166 33.024 29.2646 33.024ZM36.0334 42.16C35.2227 42.16 34.5027 41.9893 33.8734 41.648C33.244 41.296 32.7427 40.816 32.3694 40.208C32.0067 39.6 31.8254 38.9067 31.8254 38.128C31.8254 37.36 32.0014 36.6773 32.3534 36.08C32.716 35.472 33.2067 34.992 33.8254 34.64C34.444 34.2773 35.132 34.096 35.8894 34.096C36.636 34.096 37.292 34.2667 37.8574 34.608C38.4334 34.9387 38.8814 35.3973 39.2014 35.984C39.532 36.56 39.6974 37.216 39.6974 37.952C39.6974 38.0907 39.6867 38.2347 39.6654 38.384C39.6547 38.5227 39.628 38.6827 39.5854 38.864L33.0894 38.88V37.312L38.6094 37.296L37.7614 37.952C37.74 37.4933 37.6547 37.1093 37.5054 36.8C37.3667 36.4907 37.1587 36.256 36.8814 36.096C36.6147 35.9253 36.284 35.84 35.8894 35.84C35.4734 35.84 35.1107 35.936 34.8014 36.128C34.492 36.3093 34.252 36.5707 34.0814 36.912C33.9214 37.2427 33.8414 37.6373 33.8414 38.096C33.8414 38.5653 33.9267 38.976 34.0974 39.328C34.2787 39.6693 34.5347 39.936 34.8654 40.128C35.196 40.3093 35.58 40.4 36.0174 40.4C36.412 40.4 36.7694 40.336 37.0894 40.208C37.4094 40.0693 37.6867 39.8667 37.9214 39.6L39.1534 40.832C38.78 41.2693 38.3214 41.6 37.7774 41.824C37.244 42.048 36.6627 42.16 36.0334 42.16ZM43.1239 42L40.2279 34.272H42.3399L44.2279 39.888L43.5879 39.904L45.5239 34.272H47.0439L48.9799 39.904L48.3399 39.888L50.2279 34.272H52.3399L49.4599 42H47.9399L45.9879 36.656H46.5799L44.6279 42H43.1239ZM56.8017 42V34.272H58.8977V42H56.8017ZM58.8977 37.728L58.0817 37.184C58.1777 36.2347 58.4551 35.488 58.9137 34.944C59.3724 34.3893 60.0337 34.112 60.8977 34.112C61.2711 34.112 61.6071 34.176 61.9057 34.304C62.2044 34.4213 62.4764 34.6187 62.7217 34.896L61.4097 36.4C61.2924 36.272 61.1484 36.176 60.9777 36.112C60.8177 36.048 60.6311 36.016 60.4177 36.016C59.9697 36.016 59.6017 36.16 59.3137 36.448C59.0364 36.7253 58.8977 37.152 58.8977 37.728ZM67.0952 42.16C66.2846 42.16 65.5646 41.9893 64.9352 41.648C64.3059 41.296 63.8046 40.816 63.4312 40.208C63.0686 39.6 62.8872 38.9067 62.8872 38.128C62.8872 37.36 63.0632 36.6773 63.4152 36.08C63.7779 35.472 64.2686 34.992 64.8872 34.64C65.5059 34.2773 66.1939 34.096 66.9512 34.096C67.6979 34.096 68.3539 34.2667 68.9192 34.608C69.4952 34.9387 69.9432 35.3973 70.2632 35.984C70.5939 36.56 70.7592 37.216 70.7592 37.952C70.7592 38.0907 70.7486 38.2347 70.7272 38.384C70.7166 38.5227 70.6899 38.6827 70.6472 38.864L64.1512 38.88V37.312L69.6712 37.296L68.8232 37.952C68.8019 37.4933 68.7166 37.1093 68.5672 36.8C68.4286 36.4907 68.2206 36.256 67.9432 36.096C67.6766 35.9253 67.3459 35.84 66.9512 35.84C66.5352 35.84 66.1726 35.936 65.8632 36.128C65.5539 36.3093 65.3139 36.5707 65.1432 36.912C64.9832 37.2427 64.9032 37.6373 64.9032 38.096C64.9032 38.5653 64.9886 38.976 65.1592 39.328C65.3406 39.6693 65.5966 39.936 65.9272 40.128C66.2579 40.3093 66.6419 40.4 67.0792 40.4C67.4739 40.4 67.8312 40.336 68.1512 40.208C68.4712 40.0693 68.7486 39.8667 68.9832 39.6L70.2152 40.832C69.8419 41.2693 69.3832 41.6 68.8392 41.824C68.3059 42.048 67.7246 42.16 67.0952 42.16ZM72.2155 42V30.432H74.3115V42H72.2155ZM79.5606 42.16C78.8566 42.16 78.222 41.984 77.6566 41.632C77.0913 41.28 76.6486 40.8 76.3286 40.192C76.0086 39.584 75.8486 38.9013 75.8486 38.144C75.8486 37.376 76.0086 36.688 76.3286 36.08C76.6486 35.472 77.0913 34.992 77.6566 34.64C78.222 34.288 78.8566 34.112 79.5606 34.112C80.1153 34.112 80.6113 34.224 81.0486 34.448C81.486 34.672 81.8326 34.9867 82.0886 35.392C82.3553 35.7867 82.4993 36.2347 82.5206 36.736V39.52C82.4993 40.032 82.3553 40.4853 82.0886 40.88C81.8326 41.2747 81.486 41.5893 81.0486 41.824C80.6113 42.048 80.1153 42.16 79.5606 42.16ZM79.9446 40.224C80.5313 40.224 81.006 40.032 81.3686 39.648C81.7313 39.2533 81.9126 38.7467 81.9126 38.128C81.9126 37.7227 81.8273 37.3653 81.6566 37.056C81.4966 36.736 81.2673 36.4907 80.9686 36.32C80.6806 36.1387 80.3393 36.048 79.9446 36.048C79.5606 36.048 79.2193 36.1387 78.9206 36.32C78.6326 36.4907 78.4033 36.736 78.2326 37.056C78.0726 37.3653 77.9926 37.7227 77.9926 38.128C77.9926 38.544 78.0726 38.912 78.2326 39.232C78.4033 39.5413 78.6326 39.7867 78.9206 39.968C79.2193 40.1387 79.5606 40.224 79.9446 40.224ZM81.8006 42V39.92L82.1366 38.032L81.8006 36.176V34.272H83.8806V42H81.8006ZM87.0309 42V31.056H89.1269V42H87.0309ZM85.2229 36.112V34.272H90.9349V36.112H85.2229ZM92.2736 42V34.272H94.3856V42H92.2736ZM93.3296 33.024C92.9883 33.024 92.7056 32.912 92.4816 32.688C92.2576 32.4533 92.1456 32.1653 92.1456 31.824C92.1456 31.4933 92.2576 31.2107 92.4816 30.976C92.7056 30.7413 92.9883 30.624 93.3296 30.624C93.6816 30.624 93.9643 30.7413 94.1776 30.976C94.4016 31.2107 94.5136 31.4933 94.5136 31.824C94.5136 32.1653 94.4016 32.4533 94.1776 32.688C93.9643 32.912 93.6816 33.024 93.3296 33.024ZM101.602 42V37.568C101.602 37.1093 101.458 36.736 101.17 36.448C100.882 36.16 100.509 36.016 100.05 36.016C99.7517 36.016 99.485 36.08 99.2504 36.208C99.0157 36.336 98.829 36.5173 98.6904 36.752C98.5624 36.9867 98.4984 37.2587 98.4984 37.568L97.6824 37.152C97.6824 36.544 97.8104 36.016 98.0664 35.568C98.333 35.1093 98.6957 34.752 99.1544 34.496C99.6237 34.24 100.152 34.112 100.738 34.112C101.304 34.112 101.81 34.256 102.258 34.544C102.706 34.8213 103.058 35.1893 103.314 35.648C103.57 36.096 103.698 36.5813 103.698 37.104V42H101.602ZM96.4024 42V34.272H98.4984V42H96.4024ZM108.779 45.424C107.957 45.424 107.232 45.2747 106.603 44.976C105.973 44.688 105.472 44.2773 105.099 43.744L106.427 42.416C106.725 42.768 107.056 43.0347 107.419 43.216C107.792 43.408 108.24 43.504 108.763 43.504C109.413 43.504 109.925 43.3387 110.299 43.008C110.683 42.6773 110.875 42.2187 110.875 41.632V39.696L111.227 38L110.891 36.304V34.272H112.971V41.6C112.971 42.368 112.789 43.0347 112.427 43.6C112.075 44.176 111.584 44.624 110.955 44.944C110.325 45.264 109.6 45.424 108.779 45.424ZM108.683 41.792C107.989 41.792 107.365 41.6267 106.811 41.296C106.256 40.9547 105.819 40.4907 105.499 39.904C105.189 39.3173 105.035 38.6613 105.035 37.936C105.035 37.2107 105.189 36.56 105.499 35.984C105.819 35.408 106.256 34.9547 106.811 34.624C107.365 34.2827 107.989 34.112 108.683 34.112C109.259 34.112 109.765 34.224 110.203 34.448C110.651 34.672 111.003 34.9813 111.259 35.376C111.515 35.76 111.653 36.2133 111.675 36.736V39.168C111.653 39.68 111.509 40.1387 111.243 40.544C110.987 40.9387 110.635 41.248 110.187 41.472C109.749 41.6853 109.248 41.792 108.683 41.792ZM109.099 39.888C109.483 39.888 109.813 39.808 110.091 39.648C110.379 39.4773 110.603 39.248 110.763 38.96C110.923 38.6613 111.003 38.3253 111.003 37.952C111.003 37.568 110.923 37.232 110.763 36.944C110.603 36.656 110.379 36.432 110.091 36.272C109.813 36.1013 109.483 36.016 109.099 36.016C108.715 36.016 108.379 36.1013 108.091 36.272C107.803 36.432 107.579 36.6613 107.419 36.96C107.259 37.248 107.179 37.5787 107.179 37.952C107.179 38.3147 107.259 38.6453 107.419 38.944C107.579 39.232 107.803 39.4613 108.091 39.632C108.379 39.8027 108.715 39.888 109.099 39.888ZM118.257 42V34.272H120.369V42H118.257ZM119.313 33.024C118.972 33.024 118.689 32.912 118.465 32.688C118.241 32.4533 118.129 32.1653 118.129 31.824C118.129 31.4933 118.241 31.2107 118.465 30.976C118.689 30.7413 118.972 30.624 119.313 30.624C119.665 30.624 119.948 30.7413 120.161 30.976C120.385 31.2107 120.497 31.4933 120.497 31.824C120.497 32.1653 120.385 32.4533 120.161 32.688C119.948 32.912 119.665 33.024 119.313 33.024ZM122.386 42V34.272H124.482V42H122.386ZM127.426 42V37.44C127.426 36.992 127.282 36.6453 126.994 36.4C126.717 36.144 126.37 36.016 125.954 36.016C125.677 36.016 125.426 36.0747 125.202 36.192C124.978 36.2987 124.802 36.4587 124.674 36.672C124.546 36.8853 124.482 37.1413 124.482 37.44L123.666 37.04C123.666 36.4427 123.794 35.9253 124.05 35.488C124.317 35.0507 124.674 34.7147 125.122 34.48C125.57 34.2347 126.077 34.112 126.642 34.112C127.175 34.112 127.661 34.2347 128.098 34.48C128.535 34.7147 128.882 35.0507 129.138 35.488C129.394 35.9147 129.522 36.432 129.522 37.04V42H127.426ZM132.466 42V37.44C132.466 36.992 132.322 36.6453 132.034 36.4C131.757 36.144 131.41 36.016 130.994 36.016C130.727 36.016 130.477 36.0747 130.242 36.192C130.018 36.2987 129.842 36.4587 129.714 36.672C129.586 36.8853 129.522 37.1413 129.522 37.44L128.322 37.152C128.365 36.5333 128.53 36 128.818 35.552C129.106 35.0933 129.485 34.7413 129.954 34.496C130.423 34.24 130.946 34.112 131.522 34.112C132.098 34.112 132.615 34.2347 133.074 34.48C133.533 34.7147 133.895 35.056 134.162 35.504C134.429 35.952 134.562 36.4853 134.562 37.104V42H132.466ZM139.653 42.16C138.949 42.16 138.314 41.984 137.749 41.632C137.184 41.28 136.741 40.8 136.421 40.192C136.101 39.584 135.941 38.9013 135.941 38.144C135.941 37.376 136.101 36.688 136.421 36.08C136.741 35.472 137.184 34.992 137.749 34.64C138.314 34.288 138.949 34.112 139.653 34.112C140.208 34.112 140.704 34.224 141.141 34.448C141.578 34.672 141.925 34.9867 142.181 35.392C142.448 35.7867 142.592 36.2347 142.613 36.736V39.52C142.592 40.032 142.448 40.4853 142.181 40.88C141.925 41.2747 141.578 41.5893 141.141 41.824C140.704 42.048 140.208 42.16 139.653 42.16ZM140.037 40.224C140.624 40.224 141.098 40.032 141.461 39.648C141.824 39.2533 142.005 38.7467 142.005 38.128C142.005 37.7227 141.92 37.3653 141.749 37.056C141.589 36.736 141.36 36.4907 141.061 36.32C140.773 36.1387 140.432 36.048 140.037 36.048C139.653 36.048 139.312 36.1387 139.013 36.32C138.725 36.4907 138.496 36.736 138.325 37.056C138.165 37.3653 138.085 37.7227 138.085 38.128C138.085 38.544 138.165 38.912 138.325 39.232C138.496 39.5413 138.725 39.7867 139.013 39.968C139.312 40.1387 139.653 40.224 140.037 40.224ZM141.893 42V39.92L142.229 38.032L141.893 36.176V34.272H143.973V42H141.893ZM149.219 45.424C148.398 45.424 147.673 45.2747 147.043 44.976C146.414 44.688 145.913 44.2773 145.539 43.744L146.867 42.416C147.166 42.768 147.497 43.0347 147.859 43.216C148.233 43.408 148.681 43.504 149.203 43.504C149.854 43.504 150.366 43.3387 150.739 43.008C151.123 42.6773 151.315 42.2187 151.315 41.632V39.696L151.667 38L151.331 36.304V34.272H153.411V41.6C153.411 42.368 153.23 43.0347 152.867 43.6C152.515 44.176 152.025 44.624 151.395 44.944C150.766 45.264 150.041 45.424 149.219 45.424ZM149.123 41.792C148.43 41.792 147.806 41.6267 147.251 41.296C146.697 40.9547 146.259 40.4907 145.939 39.904C145.63 39.3173 145.475 38.6613 145.475 37.936C145.475 37.2107 145.63 36.56 145.939 35.984C146.259 35.408 146.697 34.9547 147.251 34.624C147.806 34.2827 148.43 34.112 149.123 34.112C149.699 34.112 150.206 34.224 150.643 34.448C151.091 34.672 151.443 34.9813 151.699 35.376C151.955 35.76 152.094 36.2133 152.115 36.736V39.168C152.094 39.68 151.95 40.1387 151.683 40.544C151.427 40.9387 151.075 41.248 150.627 41.472C150.19 41.6853 149.689 41.792 149.123 41.792ZM149.539 39.888C149.923 39.888 150.254 39.808 150.531 39.648C150.819 39.4773 151.043 39.248 151.203 38.96C151.363 38.6613 151.443 38.3253 151.443 37.952C151.443 37.568 151.363 37.232 151.203 36.944C151.043 36.656 150.819 36.432 150.531 36.272C150.254 36.1013 149.923 36.016 149.539 36.016C149.155 36.016 148.819 36.1013 148.531 36.272C148.243 36.432 148.019 36.6613 147.859 36.96C147.699 37.248 147.619 37.5787 147.619 37.952C147.619 38.3147 147.699 38.6453 147.859 38.944C148.019 39.232 148.243 39.4613 148.531 39.632C148.819 39.8027 149.155 39.888 149.539 39.888ZM159.109 42.16C158.298 42.16 157.578 41.9893 156.949 41.648C156.32 41.296 155.818 40.816 155.445 40.208C155.082 39.6 154.901 38.9067 154.901 38.128C154.901 37.36 155.077 36.6773 155.429 36.08C155.792 35.472 156.282 34.992 156.901 34.64C157.52 34.2773 158.208 34.096 158.965 34.096C159.712 34.096 160.368 34.2667 160.933 34.608C161.509 34.9387 161.957 35.3973 162.277 35.984C162.608 36.56 162.773 37.216 162.773 37.952C162.773 38.0907 162.762 38.2347 162.741 38.384C162.73 38.5227 162.704 38.6827 162.661 38.864L156.165 38.88V37.312L161.685 37.296L160.837 37.952C160.816 37.4933 160.73 37.1093 160.581 36.8C160.442 36.4907 160.234 36.256 159.957 36.096C159.69 35.9253 159.36 35.84 158.965 35.84C158.549 35.84 158.186 35.936 157.877 36.128C157.568 36.3093 157.328 36.5707 157.157 36.912C156.997 37.2427 156.917 37.6373 156.917 38.096C156.917 38.5653 157.002 38.976 157.173 39.328C157.354 39.6693 157.61 39.936 157.941 40.128C158.272 40.3093 158.656 40.4 159.093 40.4C159.488 40.4 159.845 40.336 160.165 40.208C160.485 40.0693 160.762 39.8667 160.997 39.6L162.229 40.832C161.856 41.2693 161.397 41.6 160.853 41.824C160.32 42.048 159.738 42.16 159.109 42.16ZM166.885 42.176C166.448 42.176 166.016 42.1173 165.589 42C165.173 41.8827 164.789 41.7227 164.437 41.52C164.085 41.3067 163.781 41.0507 163.525 40.752L164.773 39.488C165.04 39.7867 165.349 40.0107 165.701 40.16C166.053 40.3093 166.443 40.384 166.869 40.384C167.211 40.384 167.467 40.336 167.637 40.24C167.819 40.144 167.909 40 167.909 39.808C167.909 39.5947 167.813 39.4293 167.621 39.312C167.44 39.1947 167.2 39.0987 166.901 39.024C166.603 38.9387 166.288 38.848 165.957 38.752C165.637 38.6453 165.328 38.512 165.029 38.352C164.731 38.1813 164.485 37.952 164.293 37.664C164.112 37.3653 164.021 36.9813 164.021 36.512C164.021 36.0213 164.139 35.5947 164.373 35.232C164.619 34.8693 164.965 34.5867 165.413 34.384C165.861 34.1813 166.389 34.08 166.997 34.08C167.637 34.08 168.213 34.192 168.725 34.416C169.248 34.64 169.68 34.976 170.021 35.424L168.757 36.688C168.523 36.4 168.256 36.192 167.957 36.064C167.669 35.936 167.355 35.872 167.013 35.872C166.704 35.872 166.464 35.92 166.293 36.016C166.133 36.112 166.053 36.2453 166.053 36.416C166.053 36.608 166.144 36.7573 166.325 36.864C166.517 36.9707 166.763 37.0667 167.061 37.152C167.36 37.2267 167.669 37.3173 167.989 37.424C168.32 37.52 168.629 37.6587 168.917 37.84C169.216 38.0213 169.456 38.2613 169.637 38.56C169.829 38.8587 169.925 39.2427 169.925 39.712C169.925 40.4693 169.653 41.072 169.109 41.52C168.565 41.9573 167.824 42.176 166.885 42.176ZM172.939 42.16C172.555 42.16 172.24 42.032 171.995 41.776C171.749 41.52 171.627 41.2053 171.627 40.832C171.627 40.4587 171.749 40.144 171.995 39.888C172.24 39.632 172.555 39.504 172.939 39.504C173.312 39.504 173.621 39.632 173.867 39.888C174.112 40.144 174.235 40.4587 174.235 40.832C174.235 41.2053 174.112 41.52 173.867 41.776C173.621 42.032 173.312 42.16 172.939 42.16Z" fill="#404040"/>
<path d="M116.544 21.424C115.723 21.424 114.998 21.2747 114.368 20.976C113.739 20.688 113.238 20.2773 112.864 19.744L114.192 18.416C114.491 18.768 114.822 19.0347 115.184 19.216C115.558 19.408 116.006 19.504 116.528 19.504C117.179 19.504 117.691 19.3387 118.064 19.008C118.448 18.6773 118.64 18.2187 118.64 17.632V15.696L118.992 14L118.656 12.304V10.272H120.736V17.6C120.736 18.368 120.555 19.0347 120.192 19.6C119.84 20.176 119.35 20.624 118.72 20.944C118.091 21.264 117.366 21.424 116.544 21.424ZM116.448 17.792C115.755 17.792 115.131 17.6267 114.576 17.296C114.022 16.9547 113.584 16.4907 113.264 15.904C112.955 15.3173 112.8 14.6613 112.8 13.936C112.8 13.2107 112.955 12.56 113.264 11.984C113.584 11.408 114.022 10.9547 114.576 10.624C115.131 10.2827 115.755 10.112 116.448 10.112C117.024 10.112 117.531 10.224 117.968 10.448C118.416 10.672 118.768 10.9813 119.024 11.376C119.28 11.76 119.419 12.2133 119.44 12.736V15.168C119.419 15.68 119.275 16.1387 119.008 16.544C118.752 16.9387 118.4 17.248 117.952 17.472C117.515 17.6853 117.014 17.792 116.448 17.792ZM116.864 15.888C117.248 15.888 117.579 15.808 117.856 15.648C118.144 15.4773 118.368 15.248 118.528 14.96C118.688 14.6613 118.768 14.3253 118.768 13.952C118.768 13.568 118.688 13.232 118.528 12.944C118.368 12.656 118.144 12.432 117.856 12.272C117.579 12.1013 117.248 12.016 116.864 12.016C116.48 12.016 116.144 12.1013 115.856 12.272C115.568 12.432 115.344 12.6613 115.184 12.96C115.024 13.248 114.944 13.5787 114.944 13.952C114.944 14.3147 115.024 14.6453 115.184 14.944C115.344 15.232 115.568 15.4613 115.856 15.632C116.144 15.8027 116.48 15.888 116.864 15.888ZM122.738 18V10.272H124.834V18H122.738ZM124.834 13.728L124.018 13.184C124.114 12.2347 124.391 11.488 124.85 10.944C125.309 10.3893 125.97 10.112 126.834 10.112C127.207 10.112 127.543 10.176 127.842 10.304C128.141 10.4213 128.413 10.6187 128.658 10.896L127.346 12.4C127.229 12.272 127.085 12.176 126.914 12.112C126.754 12.048 126.567 12.016 126.354 12.016C125.906 12.016 125.538 12.16 125.25 12.448C124.973 12.7253 124.834 13.152 124.834 13.728ZM133.032 18.16C132.221 18.16 131.501 17.9893 130.872 17.648C130.242 17.296 129.741 16.816 129.368 16.208C129.005 15.6 128.824 14.9067 128.824 14.128C128.824 13.36 129 12.6773 129.352 12.08C129.714 11.472 130.205 10.992 130.824 10.64C131.442 10.2773 132.13 10.096 132.888 10.096C133.634 10.096 134.29 10.2667 134.856 10.608C135.432 10.9387 135.88 11.3973 136.2 11.984C136.53 12.56 136.696 13.216 136.696 13.952C136.696 14.0907 136.685 14.2347 136.664 14.384C136.653 14.5227 136.626 14.6827 136.584 14.864L130.088 14.88V13.312L135.608 13.296L134.76 13.952C134.738 13.4933 134.653 13.1093 134.504 12.8C134.365 12.4907 134.157 12.256 133.88 12.096C133.613 11.9253 133.282 11.84 132.888 11.84C132.472 11.84 132.109 11.936 131.8 12.128C131.49 12.3093 131.25 12.5707 131.08 12.912C130.92 13.2427 130.84 13.6373 130.84 14.096C130.84 14.5653 130.925 14.976 131.096 15.328C131.277 15.6693 131.533 15.936 131.864 16.128C132.194 16.3093 132.578 16.4 133.016 16.4C133.41 16.4 133.768 16.336 134.088 16.208C134.408 16.0693 134.685 15.8667 134.92 15.6L136.152 16.832C135.778 17.2693 135.32 17.6 134.776 17.824C134.242 18.048 133.661 18.16 133.032 18.16ZM141.848 18.16C141.037 18.16 140.317 17.9893 139.688 17.648C139.058 17.296 138.557 16.816 138.184 16.208C137.821 15.6 137.64 14.9067 137.64 14.128C137.64 13.36 137.816 12.6773 138.168 12.08C138.53 11.472 139.021 10.992 139.64 10.64C140.258 10.2773 140.946 10.096 141.704 10.096C142.45 10.096 143.106 10.2667 143.672 10.608C144.248 10.9387 144.696 11.3973 145.016 11.984C145.346 12.56 145.512 13.216 145.512 13.952C145.512 14.0907 145.501 14.2347 145.48 14.384C145.469 14.5227 145.442 14.6827 145.4 14.864L138.904 14.88V13.312L144.424 13.296L143.576 13.952C143.554 13.4933 143.469 13.1093 143.32 12.8C143.181 12.4907 142.973 12.256 142.696 12.096C142.429 11.9253 142.098 11.84 141.704 11.84C141.288 11.84 140.925 11.936 140.616 12.128C140.306 12.3093 140.066 12.5707 139.896 12.912C139.736 13.2427 139.656 13.6373 139.656 14.096C139.656 14.5653 139.741 14.976 139.912 15.328C140.093 15.6693 140.349 15.936 140.68 16.128C141.01 16.3093 141.394 16.4 141.832 16.4C142.226 16.4 142.584 16.336 142.904 16.208C143.224 16.0693 143.501 15.8667 143.736 15.6L144.968 16.832C144.594 17.2693 144.136 17.6 143.592 17.824C143.058 18.048 142.477 18.16 141.848 18.16ZM152.168 18V13.568C152.168 13.1093 152.024 12.736 151.736 12.448C151.448 12.16 151.075 12.016 150.616 12.016C150.317 12.016 150.051 12.08 149.816 12.208C149.581 12.336 149.395 12.5173 149.256 12.752C149.128 12.9867 149.064 13.2587 149.064 13.568L148.248 13.152C148.248 12.544 148.376 12.016 148.632 11.568C148.899 11.1093 149.261 10.752 149.72 10.496C150.189 10.24 150.717 10.112 151.304 10.112C151.869 10.112 152.376 10.256 152.824 10.544C153.272 10.8213 153.624 11.1893 153.88 11.648C154.136 12.096 154.264 12.5813 154.264 13.104V18H152.168ZM146.968 18V10.272H149.064V18H146.968Z" fill="#108D6F"/>
<path d="M13.956 111.715C14.108 111.069 14.7548 110.67 15.3992 110.822L15.5539 110.858C17.123 111.228 18.6773 111.529 20.1726 111.754C20.8286 111.852 21.2794 112.463 21.1807 113.118C21.0921 113.773 20.4711 114.225 19.8163 114.126C18.2563 113.893 16.6371 113.579 15.0038 113.194L14.849 113.158C14.2046 113.006 13.8043 112.359 13.956 111.715ZM23.7947 113.151C23.9242 112.601 24.4289 112.204 25.0145 112.229C26.6773 112.302 28.3027 112.27 29.8486 112.136C30.5084 112.079 31.0906 112.568 31.1477 113.229C31.2043 113.888 30.7155 114.471 30.0548 114.528C28.4071 114.671 26.6755 114.704 24.9101 114.627C24.248 114.599 23.7346 114.039 23.7633 113.376C23.7671 113.299 23.7775 113.224 23.7947 113.151ZM33.7067 112.253C33.8066 111.828 34.1346 111.474 34.5873 111.362C36.1572 110.973 37.676 110.453 39.1022 109.815C39.7074 109.544 40.4172 109.815 40.6879 110.419C40.9584 111.024 40.6874 111.734 40.0833 112.005C38.5271 112.702 36.8721 113.268 35.1635 113.692C34.521 113.851 33.8697 113.458 33.7107 112.816C33.6623 112.624 33.6645 112.432 33.7067 112.253ZM42.7636 108.179C42.8289 107.902 42.9928 107.647 43.2458 107.471C44.5293 106.575 45.7582 105.541 46.8962 104.395C47.3632 103.925 48.1231 103.923 48.5935 104.39C49.0637 104.858 49.0649 105.617 48.5986 106.087C47.3597 107.334 46.0206 108.461 44.6182 109.439C44.0747 109.819 43.3266 109.684 42.948 109.141C42.7444 108.85 42.6882 108.5 42.7636 108.179ZM59.3083 57.937C59.4246 57.4435 59.8469 57.0591 60.38 57.0162C61.0399 56.962 61.6196 57.454 61.6738 58.114C61.6797 58.1934 61.8324 60.1013 61.8401 63.2139C61.838 63.8771 61.3055 64.4153 60.6426 64.4164C59.9797 64.4175 59.4411 63.8818 59.4401 63.2189C59.4326 60.21 59.2833 58.3267 59.2816 58.3078C59.2704 58.1808 59.2804 58.0558 59.3083 57.937ZM49.7979 101.152C49.8329 101.003 49.8969 100.858 49.9926 100.726C50.901 99.4646 51.7589 98.0814 52.5436 96.6163C52.856 96.0313 53.5839 95.8113 54.1679 96.1235C54.7528 96.4359 54.9714 97.1654 54.6606 97.7477C53.8258 99.3079 52.9116 100.782 51.9409 102.129C51.5544 102.667 50.8034 102.789 50.2659 102.401C49.8592 102.108 49.6901 101.609 49.7979 101.152ZM59.358 67.9428C59.488 67.3909 59.9958 66.9927 60.5829 67.0211C61.2453 67.0528 61.756 67.6148 61.7246 68.2762C61.6438 69.976 61.5201 71.6748 61.3571 73.3265C61.2942 73.9907 60.704 74.4682 60.0453 74.4034C59.3856 74.3385 58.9036 73.7503 58.9683 73.0916C59.128 71.4803 59.2484 69.8217 59.3278 68.1628C59.3311 68.0875 59.3413 68.0139 59.358 67.9428ZM54.5395 92.3728C54.5533 92.3144 54.5712 92.256 54.5949 92.1989C55.1816 90.7416 55.7242 89.1876 56.2077 87.5796C56.3994 86.9446 57.0685 86.5854 57.7028 86.7759C58.3377 86.9676 58.6948 87.6239 58.5064 88.2709C58.0016 89.9479 57.4346 91.5701 56.8219 93.0942C56.5744 93.7089 55.8756 94.0066 55.2607 93.7601C54.7034 93.5353 54.4059 92.9403 54.5395 92.3728ZM58.3663 77.8945C58.5087 77.2901 59.0953 76.8888 59.7188 76.9853C60.3739 77.0872 60.8222 77.7003 60.7204 78.3554C60.4549 80.063 60.1404 81.7427 59.7843 83.3467C59.7831 83.3516 59.7817 83.3575 59.7806 83.3623C59.6304 83.9999 58.9946 84.4008 58.3523 84.2577C57.7049 84.1145 57.2969 83.4739 57.4411 82.8268C57.7853 81.2733 58.09 79.6438 58.3477 77.9867C58.3538 77.9563 58.3592 77.9247 58.3663 77.8945Z" fill="#858585"/>
<path d="M12.0412 110.811C12.2305 110.007 12.8193 109.343 13.6569 108.989L23.9327 104.638C24.5433 104.379 25.2475 104.665 25.5055 105.276C25.7637 105.885 25.4774 106.59 24.868 106.849L14.5921 111.199C14.2702 111.336 14.2699 111.337 14.498 111.603L21.7608 120.012C22.1941 120.515 22.1382 121.271 21.6375 121.705C21.1357 122.138 20.3784 122.082 19.9446 121.581L12.6818 113.173C12.0854 112.481 11.8507 111.624 12.0386 110.817C12.0402 110.815 12.0407 110.813 12.0412 110.811Z" fill="#858585"/>
</svg>
