<svg id="ecGYCb2UTkl1" xmlns="http://www.w3.org/2000/svg" xmlns:xlink="http://www.w3.org/1999/xlink" viewBox="0 0 906 906" shape-rendering="geometricPrecision" text-rendering="geometricPrecision"><style><![CDATA[#ecGYCb2UTkl2_tr {animation: ecGYCb2UTkl2_tr__tr 6000ms linear infinite normal forwards}@keyframes ecGYCb2UTkl2_tr__tr { 0% {transform: translate(450.546997px,452.710434px) rotate(0deg)} 100% {transform: translate(450.546997px,452.710434px) rotate(360deg)}} #ecGYCb2UTkl6_tr {animation: ecGYCb2UTkl6_tr__tr 6000ms linear infinite normal forwards}@keyframes ecGYCb2UTkl6_tr__tr { 0% {transform: translate(450.047013px,453.050995px) rotate(0deg)} 100% {transform: translate(450.047013px,453.050995px) rotate(720deg)}} #ecGYCb2UTkl57_tr {animation: ecGYCb2UTkl57_tr__tr 6000ms linear infinite normal forwards}@keyframes ecGYCb2UTkl57_tr__tr { 0% {transform: translate(450.046997px,453.050507px) rotate(0deg)} 100% {transform: translate(450.046997px,453.050507px) rotate(-1080deg)}} #ecGYCb2UTkl109_tr {animation: ecGYCb2UTkl109_tr__tr 6000ms linear infinite normal forwards}@keyframes ecGYCb2UTkl109_tr__tr { 0% {transform: translate(450.547px,452.551px) rotate(0deg)} 100% {transform: translate(450.547px,452.551px) rotate(-720deg)}} #ecGYCb2UTkl238_tr {animation: ecGYCb2UTkl238_tr__tr 6000ms linear infinite normal forwards}@keyframes ecGYCb2UTkl238_tr__tr { 0% {transform: translate(453px,459.003699px) rotate(0deg)} 100% {transform: translate(453px,459.003699px) rotate(360deg)}}]]></style><g id="ecGYCb2UTkl2_tr" transform="translate(450.546997,452.710434) rotate(0)"><g transform="translate(-450.546997,-452.710434)"><circle r="195" transform="translate(450.547 452.803)" fill="none" stroke="#fff" stroke-width="10"/><path d="M381.55,260.393c-2.226-2.124-1.304-5.861,1.659-6.691c47.124-13.193,78.108-13.877,130.365.012c3.035.807,3.967,4.648,1.647,6.766l-16.097,14.697c-.985.9-2.366,1.245-3.664.933-35.197-8.465-56.489-8.648-94.796.024-1.313.297-2.704-.076-3.678-1.006L381.55,260.393Z" fill="#fff"/><path d="M515.544,645.028c2.225,2.124,1.304,5.861-1.659,6.69-47.125,13.194-78.108,13.878-130.365-.011-3.035-.807-3.967-4.649-1.648-6.766l16.097-14.697c.986-.901,2.367-1.245,3.665-.933c35.197,8.464,56.489,8.648,94.796-.024c1.313-.297,2.703.076,3.677,1.006l15.437,14.735Z" fill="#fff"/></g></g><g id="ecGYCb2UTkl6_tr" transform="translate(450.047013,453.050995) rotate(0)"><g transform="translate(-450.047013,-453.050995)"><g transform="translate(.000001 0)"><g mask="url(#ecGYCb2UTkl10)"><path d="M687.645,453.148c0,8.816-.491,17.625-1.471,26.386l-8.662-.968c.943-8.44,1.416-16.925,1.416-25.418h8.717Z" fill="none" stroke="#fff" stroke-width="20"/><mask id="ecGYCb2UTkl10" mask-type="luminance"><path d="M687.645,453.148c0,8.816-.491,17.625-1.471,26.386l-8.662-.968c.943-8.44,1.416-16.925,1.416-25.418h8.717Z" fill="#fff"/></mask></g><g mask="url(#ecGYCb2UTkl14)"><path d="M684.037,411.907c1.531,8.682,2.577,17.442,3.134,26.24l-8.699.55c-.537-8.475-1.545-16.913-3.019-25.276l8.584-1.514Z" fill="none" stroke="#fff" stroke-width="20"/><mask id="ecGYCb2UTkl14" mask-type="luminance"><path d="M684.037,411.907c1.531,8.682,2.577,17.442,3.134,26.24l-8.699.55c-.537-8.475-1.545-16.913-3.019-25.276l8.584-1.514Z" fill="#fff"/></mask></g><g mask="url(#ecGYCb2UTkl18)"><path d="M673.322,371.919c3.015,8.284,5.567,16.729,7.643,25.297l-8.472,2.052c-2-8.253-4.457-16.388-7.362-24.368l8.191-2.981Z" fill="none" stroke="#fff" stroke-width="20"/><mask id="ecGYCb2UTkl18" mask-type="luminance"><path d="M673.322,371.919c3.015,8.284,5.567,16.729,7.643,25.297l-8.472,2.052c-2-8.253-4.457-16.388-7.362-24.368l8.191-2.981Z" fill="#fff"/></mask></g><g mask="url(#ecGYCb2UTkl22)"><path d="M655.827,334.398c4.408,7.635,8.387,15.509,11.919,23.586l-7.986,3.493c-3.403-7.781-7.236-15.366-11.482-22.72l7.549-4.359Z" fill="none" stroke="#fff" stroke-width="20"/><mask id="ecGYCb2UTkl22" mask-type="luminance"><path d="M655.827,334.398c4.408,7.635,8.387,15.509,11.919,23.586l-7.986,3.493c-3.403-7.781-7.236-15.366-11.482-22.72l7.549-4.359Z" fill="#fff"/></mask></g><g mask="url(#ecGYCb2UTkl26)"><path d="M632.08,300.486c5.667,6.754,10.953,13.817,15.834,21.158l-7.258,4.826c-4.702-7.071-9.795-13.875-15.253-20.381l6.677-5.603Z" fill="none" stroke="#fff" stroke-width="20"/><mask id="ecGYCb2UTkl26" mask-type="luminance"><path d="M632.08,300.486c5.667,6.754,10.953,13.817,15.834,21.158l-7.258,4.826c-4.702-7.071-9.795-13.875-15.253-20.381l6.677-5.603Z" fill="#fff"/></mask></g><g mask="url(#ecGYCb2UTkl30)"><path d="M602.807,271.213c6.753,5.666,13.185,11.705,19.267,18.086l-6.31,6.014c-5.859-6.148-12.055-11.964-18.56-17.423l5.603-6.677Z" fill="none" stroke="#fff" stroke-width="20"/><mask id="ecGYCb2UTkl30" mask-type="luminance"><path d="M602.807,271.213c6.753,5.666,13.185,11.705,19.267,18.086l-6.31,6.014c-5.859-6.148-12.055-11.964-18.56-17.423l5.603-6.677Z" fill="#fff"/></mask></g></g><g><g mask="url(#ecGYCb2UTkl35)"><path d="M212.449,452.953c0-8.816.491-17.624,1.47-26.385l8.663.968c-.943,8.44-1.416,16.925-1.416,25.417h-8.717Z" fill="none" stroke="#fff" stroke-width="20"/><mask id="ecGYCb2UTkl35" mask-type="luminance"><path d="M212.449,452.953c0-8.816.491-17.624,1.47-26.385l8.663.968c-.943,8.44-1.416,16.925-1.416,25.417h-8.717Z" fill="#fff"/></mask></g><g mask="url(#ecGYCb2UTkl39)"><path d="M216.057,494.195c-1.531-8.682-2.577-17.442-3.134-26.24l8.699-.551c.537,8.475,1.544,16.914,3.019,25.277l-8.584,1.514Z" fill="none" stroke="#fff" stroke-width="20"/><mask id="ecGYCb2UTkl39" mask-type="luminance"><path d="M216.057,494.195c-1.531-8.682-2.577-17.442-3.134-26.24l8.699-.551c.537,8.475,1.544,16.914,3.019,25.277l-8.584,1.514Z" fill="#fff"/></mask></g><g mask="url(#ecGYCb2UTkl43)"><path d="M226.772,534.183c-3.015-8.284-5.567-16.729-7.643-25.297l8.471-2.053c2,8.253,4.458,16.389,7.363,24.369l-8.191,2.981Z" fill="none" stroke="#fff" stroke-width="20"/><mask id="ecGYCb2UTkl43" mask-type="luminance"><path d="M226.772,534.183c-3.015-8.284-5.567-16.729-7.643-25.297l8.471-2.053c2,8.253,4.458,16.389,7.363,24.369l-8.191,2.981Z" fill="#fff"/></mask></g><g mask="url(#ecGYCb2UTkl47)"><path d="M244.267,571.703c-4.408-7.634-8.387-15.508-11.92-23.585l7.987-3.493c3.402,7.781,7.236,15.366,11.482,22.72l-7.549,4.358Z" fill="none" stroke="#fff" stroke-width="20"/><mask id="ecGYCb2UTkl47" mask-type="luminance"><path d="M244.267,571.703c-4.408-7.634-8.387-15.508-11.92-23.585l7.987-3.493c3.402,7.781,7.236,15.366,11.482,22.72l-7.549,4.358Z" fill="#fff"/></mask></g><g mask="url(#ecGYCb2UTkl51)"><path d="M268.014,605.615c-5.667-6.753-10.953-13.816-15.834-21.157l7.258-4.827c4.702,7.072,9.794,13.876,15.253,20.381l-6.677,5.603Z" fill="none" stroke="#fff" stroke-width="20"/><mask id="ecGYCb2UTkl51" mask-type="luminance"><path d="M268.014,605.615c-5.667-6.753-10.953-13.816-15.834-21.157l7.258-4.827c4.702,7.072,9.794,13.876,15.253,20.381l-6.677,5.603Z" fill="#fff"/></mask></g><g mask="url(#ecGYCb2UTkl55)"><path d="M297.287,634.889c-6.753-5.667-13.185-11.705-19.267-18.087l6.31-6.013c5.858,6.147,12.055,11.964,18.56,17.422l-5.603,6.678Z" fill="none" stroke="#fff" stroke-width="20"/><mask id="ecGYCb2UTkl55" mask-type="luminance"><path d="M297.287,634.889c-6.753-5.667-13.185-11.705-19.267-18.087l6.31-6.013c5.858,6.147,12.055,11.964,18.56,17.422l-5.603,6.678Z" fill="#fff"/></mask></g></g></g></g><g id="ecGYCb2UTkl57_tr" transform="translate(450.046997,453.050507) rotate(0)"><g transform="translate(-450.046997,-453.050506)"><g transform="translate(0 0.000001)"><g mask="url(#ecGYCb2UTkl61)"><path d="M502.388,565.787c-4.179,1.95-8.465,3.664-12.835,5.137l-1.456-4.321c4.21-1.419,8.338-3.071,12.364-4.949l1.927,4.133Z" fill="none" stroke="#444274" stroke-width="20"/><mask id="ecGYCb2UTkl61" mask-type="luminance"><path d="M502.388,565.787c-4.179,1.95-8.465,3.664-12.835,5.137l-1.456-4.321c4.21-1.419,8.338-3.071,12.364-4.949l1.927,4.133Z" fill="#fff"/></mask></g><g mask="url(#ecGYCb2UTkl65)"><path d="M521.145,554.958c-3.778,2.646-7.7,5.079-11.749,7.288l-2.184-4.003c3.9-2.128,7.678-4.472,11.317-7.02l2.616,3.735Z" fill="none" stroke="#444274" stroke-width="20"/><mask id="ecGYCb2UTkl65" mask-type="luminance"><path d="M521.145,554.958c-3.778,2.646-7.7,5.079-11.749,7.288l-2.184-4.003c3.9-2.128,7.678-4.472,11.317-7.02l2.616,3.735Z" fill="#fff"/></mask></g><g mask="url(#ecGYCb2UTkl69)"><path d="M537.738,541.036c-3.262,3.261-6.702,6.338-10.305,9.217l-2.846-3.563c3.471-2.773,6.785-5.737,9.926-8.878l3.225,3.224Z" fill="none" stroke="#444274" stroke-width="20"/><mask id="ecGYCb2UTkl69" mask-type="luminance"><path d="M537.738,541.036c-3.262,3.261-6.702,6.338-10.305,9.217l-2.846-3.563c3.471-2.773,6.785-5.737,9.926-8.878l3.225,3.224Z" fill="#fff"/></mask></g><g mask="url(#ecGYCb2UTkl73)"><path d="M551.657,524.445c-2.646,3.778-5.499,7.406-8.548,10.867l-3.422-3.015c2.937-3.334,5.686-6.828,8.234-10.467l3.736,2.615Z" fill="none" stroke="#444274" stroke-width="20"/><mask id="ecGYCb2UTkl73" mask-type="luminance"><path d="M551.657,524.445c-2.646,3.778-5.499,7.406-8.548,10.867l-3.422-3.015c2.937-3.334,5.686-6.828,8.234-10.467l3.736,2.615Z" fill="#fff"/></mask></g><g mask="url(#ecGYCb2UTkl77)"><path d="M562.486,505.689c-1.949,4.179-4.13,8.248-6.531,12.185l-3.893-2.374c2.313-3.793,4.413-7.712,6.291-11.739l4.133,1.928Z" fill="none" stroke="#444274" stroke-width="20"/><mask id="ecGYCb2UTkl77" mask-type="luminance"><path d="M562.486,505.689c-1.949,4.179-4.13,8.248-6.531,12.185l-3.893-2.374c2.313-3.793,4.413-7.712,6.291-11.739l4.133,1.928Z" fill="#fff"/></mask></g><g mask="url(#ecGYCb2UTkl81)"><path d="M569.896,485.336c-1.194,4.455-2.635,8.84-4.316,13.135l-4.247-1.663c1.62-4.137,3.008-8.361,4.158-12.652l4.405,1.18Z" fill="none" stroke="#444274" stroke-width="20"/><mask id="ecGYCb2UTkl81" mask-type="luminance"><path d="M569.896,485.336c-1.194,4.455-2.635,8.84-4.316,13.135l-4.247-1.663c1.62-4.137,3.008-8.361,4.158-12.652l4.405,1.18Z" fill="#fff"/></mask></g></g><g transform="translate(.000001 0)"><g mask="url(#ecGYCb2UTkl86)"><path d="M397.705,340.314c4.18-1.949,8.465-3.664,12.836-5.137l1.456,4.322c-4.21,1.419-8.338,3.071-12.364,4.948l-1.928-4.133Z" fill="none" stroke="#444274" stroke-width="20"/><mask id="ecGYCb2UTkl86" mask-type="luminance"><path d="M397.705,340.314c4.18-1.949,8.465-3.664,12.836-5.137l1.456,4.322c-4.21,1.419-8.338,3.071-12.364,4.948l-1.928-4.133Z" fill="#fff"/></mask></g><g mask="url(#ecGYCb2UTkl90)"><path d="M378.949,351.143c3.778-2.645,7.7-5.078,11.748-7.287l2.185,4.003c-3.9,2.128-7.678,4.471-11.318,7.02l-2.615-3.736Z" fill="none" stroke="#444274" stroke-width="20"/><mask id="ecGYCb2UTkl90" mask-type="luminance"><path d="M378.949,351.143c3.778-2.645,7.7-5.078,11.748-7.287l2.185,4.003c-3.9,2.128-7.678,4.471-11.318,7.02l-2.615-3.736Z" fill="#fff"/></mask></g><g mask="url(#ecGYCb2UTkl94)"><path d="M362.356,365.065c3.261-3.261,6.702-6.338,10.305-9.217l2.846,3.563c-3.471,2.773-6.785,5.737-9.926,8.879l-3.225-3.225Z" fill="none" stroke="#444274" stroke-width="20"/><mask id="ecGYCb2UTkl94" mask-type="luminance"><path d="M362.356,365.065c3.261-3.261,6.702-6.338,10.305-9.217l2.846,3.563c-3.471,2.773-6.785,5.737-9.926,8.879l-3.225-3.225Z" fill="#fff"/></mask></g><g mask="url(#ecGYCb2UTkl98)"><path d="M348.437,381.656c2.645-3.778,5.499-7.405,8.548-10.866l3.421,3.014c-2.936,3.334-5.685,6.829-8.234,10.468l-3.735-2.616Z" fill="none" stroke="#444274" stroke-width="20"/><mask id="ecGYCb2UTkl98" mask-type="luminance"><path d="M348.437,381.656c2.645-3.778,5.499-7.405,8.548-10.866l3.421,3.014c-2.936,3.334-5.685,6.829-8.234,10.468l-3.735-2.616Z" fill="#fff"/></mask></g><g mask="url(#ecGYCb2UTkl102)"><path d="M337.608,400.413c1.949-4.18,4.129-8.248,6.531-12.185l3.893,2.374c-2.313,3.793-4.414,7.712-6.291,11.738l-4.133-1.927Z" fill="none" stroke="#444274" stroke-width="20"/><mask id="ecGYCb2UTkl102" mask-type="luminance"><path d="M337.608,400.413c1.949-4.18,4.129-8.248,6.531-12.185l3.893,2.374c-2.313,3.793-4.414,7.712-6.291,11.738l-4.133-1.927Z" fill="#fff"/></mask></g><g mask="url(#ecGYCb2UTkl106)"><path d="M330.198,420.765c1.194-4.455,2.635-8.839,4.316-13.134l4.246,1.662c-1.619,4.137-3.007,8.361-4.157,12.653l-4.405-1.181Z" fill="none" stroke="#444274" stroke-width="20"/><mask id="ecGYCb2UTkl106" mask-type="luminance"><path d="M330.198,420.765c1.194-4.455,2.635-8.839,4.316-13.134l4.246,1.662c-1.619,4.137-3.007,8.361-4.157,12.653l-4.405-1.181Z" fill="#fff"/></mask></g></g></g></g><circle r="268" transform="translate(450.547 452.551)" fill="none" stroke="#fff" stroke-width="4"/><g id="ecGYCb2UTkl109_tr" transform="translate(450.547,452.551) rotate(0)"><g transform="translate(-452.725579,-453.130727)"><g mask="url(#ecGYCb2UTkl112)"><path d="M768.551,452.55c2.209,0,4.002,1.791,3.975,4-.021,1.69-.056,3.38-.104,5.069-.062,2.209-1.927,3.925-4.135,3.835l-33.553-1.372c-2.207-.09-3.921-1.952-3.862-4.161.03-1.123.052-2.247.069-3.371.031-2.209,1.819-4,4.028-4h33.582Z" fill="none" stroke="#444274" stroke-width="40"/><mask id="ecGYCb2UTkl112" mask-type="luminance"><path d="M768.551,452.55c2.209,0,4.002,1.791,3.975,4-.021,1.69-.056,3.38-.104,5.069-.062,2.209-1.927,3.925-4.135,3.835l-33.553-1.372c-2.207-.09-3.921-1.952-3.862-4.161.03-1.123.052-2.247.069-3.371.031-2.209,1.819-4,4.028-4h33.582Z" fill="#fff"/></mask></g><g mask="url(#ecGYCb2UTkl116)"><path d="M767.349,425.009c2.2-.193,4.143,1.435,4.308,3.638.126,1.686.239,3.372.339,5.059.13,2.205-1.579,4.078-3.785,4.18l-33.546,1.558c-2.206.103-4.075-1.603-4.21-3.808-.068-1.122-.143-2.243-.225-3.364-.161-2.204,1.464-4.144,3.665-4.336l33.454-2.927Z" fill="none" stroke="#444274" stroke-width="40"/><mask id="ecGYCb2UTkl116" mask-type="luminance"><path d="M767.349,425.009c2.2-.193,4.143,1.435,4.308,3.638.126,1.686.239,3.372.339,5.059.13,2.205-1.579,4.078-3.785,4.18l-33.546,1.558c-2.206.103-4.075-1.603-4.21-3.808-.068-1.122-.143-2.243-.225-3.364-.161-2.204,1.464-4.144,3.665-4.336l33.454-2.927Z" transform="translate(0 0.000001)" fill="#fff"/></mask></g><g mask="url(#ecGYCb2UTkl120)"><path d="M763.751,507.422c2.175.384,3.631,2.459,3.22,4.629-.314,1.661-.642,3.319-.982,4.975-.446,2.163-2.58,3.53-4.738,3.057l-32.806-7.176c-2.158-.473-3.522-2.604-3.081-4.769.225-1.101.442-2.204.653-3.308.415-2.17,2.487-3.623,4.663-3.239l33.071,5.831Z" fill="none" stroke="#444274" stroke-width="40"/><mask id="ecGYCb2UTkl120" mask-type="luminance"><path d="M763.751,507.422c2.175.384,3.631,2.459,3.22,4.629-.314,1.661-.642,3.319-.982,4.975-.446,2.163-2.58,3.53-4.738,3.057l-32.806-7.176c-2.158-.473-3.522-2.604-3.081-4.769.225-1.101.442-2.204.653-3.308.415-2.17,2.487-3.623,4.663-3.239l33.071,5.831Z" transform="translate(.000001 0.000001)" fill="#fff"/></mask></g><g mask="url(#ecGYCb2UTkl124)"><path d="M767.346,480.091c2.201.192,3.832,2.133,3.611,4.331-.168,1.682-.349,3.362-.544,5.041-.255,2.194-2.263,3.741-4.454,3.459l-33.306-4.29c-2.191-.283-3.736-2.287-3.485-4.482.128-1.117.249-2.234.363-3.352.224-2.198,2.161-3.827,4.362-3.634l33.453,2.927Z" fill="none" stroke="#444274" stroke-width="40"/><mask id="ecGYCb2UTkl124" mask-type="luminance"><path d="M767.346,480.091c2.201.192,3.832,2.133,3.611,4.331-.168,1.682-.349,3.362-.544,5.041-.255,2.194-2.263,3.741-4.454,3.459l-33.306-4.29c-2.191-.283-3.736-2.287-3.485-4.482.128-1.117.249-2.234.363-3.352.224-2.198,2.161-3.827,4.362-3.634l33.453,2.927Z" transform="translate(.000001 0)" fill="#fff"/></mask></g><g mask="url(#ecGYCb2UTkl128)"><path d="M749.495,560.628c2.076.756,3.149,3.052,2.367,5.119-.598,1.58-1.208,3.156-1.831,4.728-.814,2.053-3.154,3.028-5.197,2.188l-31.061-12.764c-2.043-.84-3.016-3.176-2.206-5.231.413-1.046.818-2.094,1.218-3.144.785-2.065,3.078-3.137,5.154-2.381l31.556,11.485Z" fill="none" stroke="#444274" stroke-width="40"/><mask id="ecGYCb2UTkl128" mask-type="luminance"><path d="M749.495,560.628c2.076.756,3.149,3.052,2.367,5.119-.598,1.58-1.208,3.156-1.831,4.728-.814,2.053-3.154,3.028-5.197,2.188l-31.061-12.764c-2.043-.84-3.016-3.176-2.206-5.231.413-1.046.818-2.094,1.218-3.144.785-2.065,3.078-3.137,5.154-2.381l31.556,11.485Z" fill="#fff"/></mask></g><g mask="url(#ecGYCb2UTkl132)"><path d="M757.78,534.337c2.134.571,3.403,2.765,2.804,4.892-.457,1.627-.928,3.25-1.412,4.87-.632,2.116-2.877,3.291-4.986,2.633l-32.055-10.009c-2.109-.658-3.282-2.901-2.654-5.019.32-1.077.633-2.157.939-3.238.603-2.126,2.793-3.393,4.927-2.821l32.437,8.692Z" fill="none" stroke="#444274" stroke-width="40"/><mask id="ecGYCb2UTkl132" mask-type="luminance"><path d="M757.78,534.337c2.134.571,3.403,2.765,2.804,4.892-.457,1.627-.928,3.25-1.412,4.87-.632,2.116-2.877,3.291-4.986,2.633l-32.055-10.009c-2.109-.658-3.282-2.901-2.654-5.019.32-1.077.633-2.157.939-3.238.603-2.126,2.793-3.393,4.927-2.821l32.437,8.692Z" transform="translate(.000001 0.000001)" fill="#fff"/></mask></g><g mask="url(#ecGYCb2UTkl136)"><path d="M726.214,610.549c1.913,1.104,2.571,3.552,1.443,5.451-.864,1.453-1.738,2.899-2.625,4.338-1.158,1.881-3.631,2.435-5.498,1.253l-28.372-17.964c-1.867-1.182-2.419-3.651-1.264-5.534.587-.959,1.169-1.92,1.745-2.886c1.132-1.897,3.575-2.554,5.489-1.449l29.082,16.791Z" fill="none" stroke="#444274" stroke-width="40"/><mask id="ecGYCb2UTkl136" mask-type="luminance"><path d="M726.214,610.549c1.913,1.104,2.571,3.552,1.443,5.451-.864,1.453-1.738,2.899-2.625,4.338-1.158,1.881-3.631,2.435-5.498,1.253l-28.372-17.964c-1.867-1.182-2.419-3.651-1.264-5.534.587-.959,1.169-1.92,1.745-2.886c1.132-1.897,3.575-2.554,5.489-1.449l29.082,16.791Z" transform="translate(.000001 0.000001)" fill="#fff"/></mask></g><g mask="url(#ecGYCb2UTkl140)"><path d="M738.943,586.096c2.003.934,2.871,3.315,1.913,5.305-.734,1.523-1.479,3.04-2.237,4.551-.99,1.975-3.405,2.742-5.368,1.727l-29.83-15.423c-1.962-1.014-2.728-3.426-1.741-5.403.501-1.006.997-2.015,1.487-3.026.962-1.989,3.339-2.857,5.341-1.923l30.435,14.192Z" fill="none" stroke="#444274" stroke-width="40"/><mask id="ecGYCb2UTkl140" mask-type="luminance"><path d="M738.943,586.096c2.003.934,2.871,3.315,1.913,5.305-.734,1.523-1.479,3.04-2.237,4.551-.99,1.975-3.405,2.742-5.368,1.727l-29.83-15.423c-1.962-1.014-2.728-3.426-1.741-5.403.501-1.006.997-2.015,1.487-3.026.962-1.989,3.339-2.857,5.341-1.923l30.435,14.192Z" transform="translate(0 0.000001)" fill="#fff"/></mask></g><g mask="url(#ecGYCb2UTkl144)"><path d="M694.618,655.675c1.692,1.42,1.915,3.945.474,5.619-1.103,1.281-2.215,2.554-3.338,3.817-1.467,1.651-3.999,1.767-5.632.279L661.3,642.772c-1.633-1.488-1.748-4.016-.284-5.67.745-.841,1.485-1.688,2.22-2.538c1.444-1.672,3.965-1.895,5.657-.475l25.725,21.586Z" fill="none" stroke="#444274" stroke-width="40"/><mask id="ecGYCb2UTkl144" mask-type="luminance"><path d="M694.618,655.675c1.692,1.42,1.915,3.945.474,5.619-1.103,1.281-2.215,2.554-3.338,3.817-1.467,1.651-3.999,1.767-5.632.279L661.3,642.772c-1.633-1.488-1.748-4.016-.284-5.67.745-.841,1.485-1.688,2.22-2.538c1.444-1.672,3.965-1.895,5.657-.475l25.725,21.586Z" transform="translate(.000001 0)" fill="#fff"/></mask></g><g mask="url(#ecGYCb2UTkl148)"><path d="M711.401,633.799c1.81,1.267,2.252,3.763.962,5.556-.987,1.372-1.984,2.737-2.992,4.093-1.318,1.773-3.83,2.109-5.587.769l-26.699-20.368c-1.756-1.34-2.091-3.849-.777-5.624.669-.903,1.333-1.811,1.99-2.722c1.293-1.791,3.785-2.233,5.595-.966l27.508,19.262Z" fill="none" stroke="#444274" stroke-width="40"/><mask id="ecGYCb2UTkl148" mask-type="luminance"><path d="M711.401,633.799c1.81,1.267,2.252,3.763.962,5.556-.987,1.372-1.984,2.737-2.992,4.093-1.318,1.773-3.83,2.109-5.587.769l-26.699-20.368c-1.756-1.34-2.091-3.849-.777-5.624.669-.903,1.333-1.811,1.99-2.722c1.293-1.791,3.785-2.233,5.595-.966l27.508,19.262Z" transform="translate(0 0.000001)" fill="#fff"/></mask></g><g mask="url(#ecGYCb2UTkl152)"><path d="M655.675,694.619c1.42,1.692,1.201,4.217-.509,5.616-1.308,1.07-2.625,2.13-3.95,3.179-1.732,1.371-4.245,1.046-5.595-.703l-20.517-26.585c-1.35-1.749-1.025-4.259.705-5.633.88-.7,1.755-1.404,2.626-2.114c1.713-1.396,4.234-1.178,5.654.515l21.586,25.725Z" fill="none" stroke="#444274" stroke-width="40"/><mask id="ecGYCb2UTkl152" mask-type="luminance"><path d="M655.675,694.619c1.42,1.692,1.201,4.217-.509,5.616-1.308,1.07-2.625,2.13-3.95,3.179-1.732,1.371-4.245,1.046-5.595-.703l-20.517-26.585c-1.35-1.749-1.025-4.259.705-5.633.88-.7,1.755-1.404,2.626-2.114c1.713-1.396,4.234-1.178,5.654.515l21.586,25.725Z" fill="#fff"/></mask></g><g mask="url(#ecGYCb2UTkl156)"><path d="M675.997,675.996c1.562,1.562,1.563,4.096-.018,5.639-1.21,1.18-2.429,2.35-3.658,3.511-1.605,1.517-4.138,1.412-5.635-.213L643.93,660.238c-1.497-1.625-1.392-4.153.211-5.673.816-.774,1.627-1.552,2.433-2.335c1.584-1.54,4.115-1.542,5.677.02l23.746,23.746Z" fill="none" stroke="#444274" stroke-width="40"/><mask id="ecGYCb2UTkl156" mask-type="luminance"><path d="M675.997,675.996c1.562,1.562,1.563,4.096-.018,5.639-1.21,1.18-2.429,2.35-3.658,3.511-1.605,1.517-4.138,1.412-5.635-.213L643.93,660.238c-1.497-1.625-1.392-4.153.211-5.673.816-.774,1.627-1.552,2.433-2.335c1.584-1.54,4.115-1.542,5.677.02l23.746,23.746Z" transform="translate(.000001 0)" fill="#fff"/></mask></g><g mask="url(#ecGYCb2UTkl160)"><path d="M610.552,726.212c1.104,1.913.45,4.362-1.477,5.442-1.474.827-2.955,1.642-4.442,2.445-1.943,1.05-4.362.293-5.388-1.664l-15.589-29.744c-1.025-1.956-.269-4.371,1.673-5.425.988-.536,1.972-1.078,2.953-1.626c1.929-1.077,4.374-.424,5.479,1.489l16.791,29.083Z" fill="none" stroke="#444274" stroke-width="40"/><mask id="ecGYCb2UTkl160" mask-type="luminance"><path d="M610.552,726.212c1.104,1.913.45,4.362-1.477,5.442-1.474.827-2.955,1.642-4.442,2.445-1.943,1.05-4.362.293-5.388-1.664l-15.589-29.744c-1.025-1.956-.269-4.371,1.673-5.425.988-.536,1.972-1.078,2.953-1.626c1.929-1.077,4.374-.424,5.479,1.489l16.791,29.083Z" transform="translate(.000001 0.000001)" fill="#fff"/></mask></g><g mask="url(#ecGYCb2UTkl164)"><path d="M633.803,711.401c1.267,1.809.828,4.306-.997,5.55-1.396.952-2.8,1.893-4.212,2.823-1.844,1.215-4.32.672-5.512-1.188L604.96,690.314c-1.193-1.86-.65-4.332,1.193-5.55.937-.62,1.871-1.246,2.801-1.878c1.828-1.241,4.32-.803,5.587,1.006l19.262,27.509Z" fill="none" stroke="#444274" stroke-width="40"/><mask id="ecGYCb2UTkl164" mask-type="luminance"><path d="M633.803,711.401c1.267,1.809.828,4.306-.997,5.55-1.396.952-2.8,1.893-4.212,2.823-1.844,1.215-4.32.672-5.512-1.188L604.96,690.314c-1.193-1.86-.65-4.332,1.193-5.55.937-.62,1.871-1.246,2.801-1.878c1.828-1.241,4.32-.803,5.587,1.006l19.262,27.509Z" transform="translate(0 0.000001)" fill="#fff"/></mask></g><g mask="url(#ecGYCb2UTkl168)"><path d="M560.632,749.492c.755,2.076-.314,4.374-2.399,5.103-1.596.558-3.195,1.104-4.799,1.637-2.097.696-4.347-.47-5.017-2.575l-10.188-31.998c-.67-2.105.494-4.352,2.589-5.053c1.066-.356,2.13-.719,3.192-1.088c2.086-.726,4.381.342,5.136,2.418l11.486,31.556Z" fill="none" stroke="#444274" stroke-width="40"/><mask id="ecGYCb2UTkl168" mask-type="luminance"><path d="M560.632,749.492c.755,2.076-.314,4.374-2.399,5.103-1.596.558-3.195,1.104-4.799,1.637-2.097.696-4.347-.47-5.017-2.575l-10.188-31.998c-.67-2.105.494-4.352,2.589-5.053c1.066-.356,2.13-.719,3.192-1.088c2.086-.726,4.381.342,5.136,2.418l11.486,31.556Z" transform="translate(.000001 0)" fill="#fff"/></mask></g><g mask="url(#ecGYCb2UTkl172)"><path d="M586.103,738.94c.933,2.002.068,4.385-1.946,5.293-1.54.695-3.086,1.378-4.638,2.049-2.027.876-4.371-.089-5.222-2.127l-12.938-30.99c-.851-2.038.113-4.378,2.139-5.258c1.031-.448,2.059-.902,3.085-1.363c2.015-.905,4.394-.041,5.328,1.961l14.192,30.435Z" fill="none" stroke="#444274" stroke-width="40"/><mask id="ecGYCb2UTkl172" mask-type="luminance"><path d="M586.103,738.94c.933,2.002.068,4.385-1.946,5.293-1.54.695-3.086,1.378-4.638,2.049-2.027.876-4.371-.089-5.222-2.127l-12.938-30.99c-.851-2.038.113-4.378,2.139-5.258c1.031-.448,2.059-.902,3.085-1.363c2.015-.905,4.394-.041,5.328,1.961l14.192,30.435Z" transform="translate(0 0.000001)" fill="#fff"/></mask></g><g mask="url(#ecGYCb2UTkl176)"><path d="M507.423,763.75c.383,2.176-1.069,4.253-3.249,4.609-1.668.273-3.338.533-5.01.779-2.186.322-4.2-1.217-4.494-3.407l-4.476-33.281c-.295-2.19,1.242-4.2,3.427-4.526c1.112-.166,2.222-.339,3.332-.518c2.181-.352,4.255,1.097,4.639,3.273l5.831,33.071Z" fill="none" stroke="#444274" stroke-width="40"/><mask id="ecGYCb2UTkl176" mask-type="luminance"><path d="M507.423,763.75c.383,2.176-1.069,4.253-3.249,4.609-1.668.273-3.338.533-5.01.779-2.186.322-4.2-1.217-4.494-3.407l-4.476-33.281c-.295-2.19,1.242-4.2,3.427-4.526c1.112-.166,2.222-.339,3.332-.518c2.181-.352,4.255,1.097,4.639,3.273l5.831,33.071Z" fill="#fff"/></mask></g><g mask="url(#ecGYCb2UTkl180)"><path d="M534.337,757.783c.572,2.134-.694,4.33-2.835,4.875-1.638.417-3.279.821-4.923,1.212-2.149.511-4.29-.846-4.774-3.002l-7.36-32.765c-.484-2.155.872-4.292,3.02-4.807c1.093-.262,2.184-.531,3.274-.806c2.142-.541,4.335.722,4.906,2.856l8.692,32.437Z" fill="none" stroke="#444274" stroke-width="40"/><mask id="ecGYCb2UTkl180" mask-type="luminance"><path d="M534.337,757.783c.572,2.134-.694,4.33-2.835,4.875-1.638.417-3.279.821-4.923,1.212-2.149.511-4.29-.846-4.774-3.002l-7.36-32.765c-.484-2.155.872-4.292,3.02-4.807c1.093-.262,2.184-.531,3.274-.806c2.142-.541,4.335.722,4.906,2.856l8.692,32.437Z" transform="translate(.000001 0)" fill="#fff"/></mask></g><g mask="url(#ecGYCb2UTkl184)"><path d="M452.551,768.548c0,2.21-1.791,4.003-4,3.975-1.69-.021-3.38-.055-5.069-.103-2.209-.063-3.925-1.928-3.835-4.135l1.372-33.554c.09-2.207,1.952-3.92,4.161-3.862c1.123.03,2.247.053,3.371.069c2.209.032,4,1.82,4,4.029v33.581Z" fill="none" stroke="#444274" stroke-width="40"/><mask id="ecGYCb2UTkl184" mask-type="luminance"><path d="M452.551,768.548c0,2.21-1.791,4.003-4,3.975-1.69-.021-3.38-.055-5.069-.103-2.209-.063-3.925-1.928-3.835-4.135l1.372-33.554c.09-2.207,1.952-3.92,4.161-3.862c1.123.03,2.247.053,3.371.069c2.209.032,4,1.82,4,4.029v33.581Z" transform="translate(0 0.000001)" fill="#fff"/></mask></g><g mask="url(#ecGYCb2UTkl188)"><path d="M480.094,767.347c.193,2.201-1.435,4.144-3.638,4.309-1.686.126-3.372.239-5.059.338-2.205.13-4.078-1.578-4.18-3.785l-1.558-33.545c-.103-2.207,1.603-4.076,3.808-4.21c1.122-.068,2.243-.143,3.364-.225c2.204-.161,4.144,1.464,4.336,3.664l2.927,33.454Z" fill="none" stroke="#444274" stroke-width="40"/><mask id="ecGYCb2UTkl188" mask-type="luminance"><path d="M480.094,767.347c.193,2.201-1.435,4.144-3.638,4.309-1.686.126-3.372.239-5.059.338-2.205.13-4.078-1.578-4.18-3.785l-1.558-33.545c-.103-2.207,1.603-4.076,3.808-4.21c1.122-.068,2.243-.143,3.364-.225c2.204-.161,4.144,1.464,4.336,3.664l2.927,33.454Z" fill="#fff"/></mask></g><g mask="url(#ecGYCb2UTkl192)"><path d="M397.679,763.753c-.384,2.175-2.459,3.631-4.629,3.22-1.661-.314-3.319-.642-4.974-.982-2.164-.446-3.531-2.58-3.058-4.738l7.176-32.806c.473-2.158,2.604-3.522,4.769-3.081c1.101.225,2.204.442,3.308.653c2.17.415,3.623,2.487,3.239,4.663l-5.831,33.071Z" fill="none" stroke="#444274" stroke-width="40"/><mask id="ecGYCb2UTkl192" mask-type="luminance"><path d="M397.679,763.753c-.384,2.175-2.459,3.631-4.629,3.22-1.661-.314-3.319-.642-4.974-.982-2.164-.446-3.531-2.58-3.058-4.738l7.176-32.806c.473-2.158,2.604-3.522,4.769-3.081c1.101.225,2.204.442,3.308.653c2.17.415,3.623,2.487,3.239,4.663l-5.831,33.071Z" transform="translate(.000001 0)" fill="#fff"/></mask></g><g mask="url(#ecGYCb2UTkl196)"><path d="M425.001,767.348c-.192,2.2-2.132,3.831-4.331,3.611-1.681-.168-3.362-.35-5.04-.545-2.195-.255-3.742-2.262-3.46-4.453l4.291-33.307c.282-2.191,2.287-3.735,4.481-3.484c1.117.127,2.235.248,3.353.362c2.198.224,3.826,2.161,3.633,4.362l-2.927,33.454Z" fill="none" stroke="#444274" stroke-width="40"/><mask id="ecGYCb2UTkl196" mask-type="luminance"><path d="M425.001,767.348c-.192,2.2-2.132,3.831-4.331,3.611-1.681-.168-3.362-.35-5.04-.545-2.195-.255-3.742-2.262-3.46-4.453l4.291-33.307c.282-2.191,2.287-3.735,4.481-3.484c1.117.127,2.235.248,3.353.362c2.198.224,3.826,2.161,3.633,4.362l-2.927,33.454Z" transform="translate(0 0.000001)" fill="#fff"/></mask></g><g mask="url(#ecGYCb2UTkl200)"><path d="M344.473,749.493c-.756,2.076-3.052,3.149-5.118,2.367-1.581-.598-3.157-1.208-4.728-1.831-2.054-.814-3.029-3.153-2.189-5.197l12.764-31.061c.84-2.043,3.176-3.016,5.231-2.206c1.046.413,2.094.818,3.145,1.218c2.064.785,3.136,3.078,2.38,5.154l-11.485,31.556Z" fill="none" stroke="#444274" stroke-width="40"/><mask id="ecGYCb2UTkl200" mask-type="luminance"><path d="M344.473,749.493c-.756,2.076-3.052,3.149-5.118,2.367-1.581-.598-3.157-1.208-4.728-1.831-2.054-.814-3.029-3.153-2.189-5.197l12.764-31.061c.84-2.043,3.176-3.016,5.231-2.206c1.046.413,2.094.818,3.145,1.218c2.064.785,3.136,3.078,2.38,5.154l-11.485,31.556Z" transform="translate(0 0.000001)" fill="#fff"/></mask></g><g mask="url(#ecGYCb2UTkl204)"><path d="M370.764,757.781c-.572,2.134-2.766,3.403-4.893,2.804-1.627-.457-3.25-.928-4.869-1.411-2.117-.633-3.292-2.878-2.634-4.987l10.009-32.055c.658-2.109,2.901-3.282,5.019-2.654c1.077.32,2.157.633,3.238.939c2.126.603,3.393,2.793,2.821,4.927l-8.691,32.437Z" fill="none" stroke="#444274" stroke-width="40"/><mask id="ecGYCb2UTkl204" mask-type="luminance"><path d="M370.764,757.781c-.572,2.134-2.766,3.403-4.893,2.804-1.627-.457-3.25-.928-4.869-1.411-2.117-.633-3.292-2.878-2.634-4.987l10.009-32.055c.658-2.109,2.901-3.282,5.019-2.654c1.077.32,2.157.633,3.238.939c2.126.603,3.393,2.793,2.821,4.927l-8.691,32.437Z" transform="translate(.000001 0)" fill="#fff"/></mask></g><g mask="url(#ecGYCb2UTkl208)"><path d="M294.548,726.218c-1.105,1.913-3.553,2.571-5.452,1.442-1.453-.863-2.899-1.738-4.338-2.624-1.881-1.158-2.435-3.631-1.253-5.498l17.964-28.372c1.182-1.867,3.651-2.419,5.535-1.265.958.588,1.92,1.17,2.885,1.746c1.897,1.132,2.554,3.575,1.449,5.489l-16.79,29.082Z" fill="none" stroke="#444274" stroke-width="40"/><mask id="ecGYCb2UTkl208" mask-type="luminance"><path d="M294.548,726.218c-1.105,1.913-3.553,2.571-5.452,1.442-1.453-.863-2.899-1.738-4.338-2.624-1.881-1.158-2.435-3.631-1.253-5.498l17.964-28.372c1.182-1.867,3.651-2.419,5.535-1.265.958.588,1.92,1.17,2.885,1.746c1.897,1.132,2.554,3.575,1.449,5.489l-16.79,29.082Z" fill="#fff"/></mask></g><g mask="url(#ecGYCb2UTkl212)"><path d="M319.005,738.943c-.934,2.002-3.315,2.871-5.305,1.912-1.523-.733-3.04-1.479-4.551-2.236-1.974-.99-2.742-3.406-1.727-5.368l15.423-29.83c1.015-1.963,3.427-2.728,5.403-1.742c1.006.502,2.015.998,3.027,1.487c1.988.962,2.856,3.34,1.922,5.342l-14.192,30.435Z" fill="none" stroke="#444274" stroke-width="40"/><mask id="ecGYCb2UTkl212" mask-type="luminance"><path d="M319.005,738.943c-.934,2.002-3.315,2.871-5.305,1.912-1.523-.733-3.04-1.479-4.551-2.236-1.974-.99-2.742-3.406-1.727-5.368l15.423-29.83c1.015-1.963,3.427-2.728,5.403-1.742c1.006.502,2.015.998,3.027,1.487c1.988.962,2.856,3.34,1.922,5.342l-14.192,30.435Z" transform="translate(.000001 0.000001)" fill="#fff"/></mask></g><g mask="url(#ecGYCb2UTkl216)"><path d="M249.432,694.619c-1.42,1.692-3.945,1.915-5.619.474-1.281-1.103-2.554-2.215-3.817-3.338-1.651-1.467-1.767-3.999-.279-5.632l22.618-24.822c1.488-1.633,4.016-1.748,5.67-.284.841.745,1.687,1.485,2.538,2.22c1.672,1.444,1.894,3.964.474,5.657l-21.585,25.725Z" fill="none" stroke="#444274" stroke-width="40"/><mask id="ecGYCb2UTkl216" mask-type="luminance"><path d="M249.432,694.619c-1.42,1.692-3.945,1.915-5.619.474-1.281-1.103-2.554-2.215-3.817-3.338-1.651-1.467-1.767-3.999-.279-5.632l22.618-24.822c1.488-1.633,4.016-1.748,5.67-.284.841.745,1.687,1.485,2.538,2.22c1.672,1.444,1.894,3.964.474,5.657l-21.585,25.725Z" transform="translate(.000001 0)" fill="#fff"/></mask></g><g mask="url(#ecGYCb2UTkl220)"><path d="M271.299,711.404c-1.267,1.81-3.763,2.252-5.556.962-1.373-.987-2.737-1.984-4.093-2.992-1.773-1.318-2.109-3.83-.769-5.587l20.368-26.699c1.34-1.756,3.848-2.091,5.624-.777.903.669,1.811,1.333,2.722,1.99c1.791,1.293,2.233,3.785.966,5.595l-19.262,27.508Z" fill="none" stroke="#444274" stroke-width="40"/><mask id="ecGYCb2UTkl220" mask-type="luminance"><path d="M271.299,711.404c-1.267,1.81-3.763,2.252-5.556.962-1.373-.987-2.737-1.984-4.093-2.992-1.773-1.318-2.109-3.83-.769-5.587l20.368-26.699c1.34-1.756,3.848-2.091,5.624-.777.903.669,1.811,1.333,2.722,1.99c1.791,1.293,2.233,3.785.966,5.595l-19.262,27.508Z" fill="#fff"/></mask></g><g mask="url(#ecGYCb2UTkl224)"><path d="M210.482,655.669c-1.692,1.42-4.217,1.201-5.616-.509-1.07-1.308-2.129-2.624-3.179-3.949-1.371-1.732-1.046-4.246.703-5.595l26.585-20.518c1.749-1.349,4.259-1.024,5.633.705.7.88,1.404,1.756,2.114,2.627c1.396,1.713,1.178,4.234-.515,5.654l-25.725,21.585Z" fill="none" stroke="#444274" stroke-width="40"/><mask id="ecGYCb2UTkl224" mask-type="luminance"><path d="M210.482,655.669c-1.692,1.42-4.217,1.201-5.616-.509-1.07-1.308-2.129-2.624-3.179-3.949-1.371-1.732-1.046-4.246.703-5.595l26.585-20.518c1.749-1.349,4.259-1.024,5.633.705.7.88,1.404,1.756,2.114,2.627c1.396,1.713,1.178,4.234-.515,5.654l-25.725,21.585Z" fill="#fff"/></mask></g><g mask="url(#ecGYCb2UTkl228)"><path d="M229.103,675.994c-1.562,1.562-4.096,1.564-5.639-.018-1.18-1.209-2.35-2.429-3.511-3.657-1.517-1.606-1.412-4.138.213-5.635l24.695-22.756c1.625-1.497,4.153-1.392,5.673.211.774.815,1.552,1.626,2.336,2.432c1.539,1.585,1.541,4.115-.021,5.677l-23.746,23.746Z" fill="none" stroke="#444274" stroke-width="40"/><mask id="ecGYCb2UTkl228" mask-type="luminance"><path d="M229.103,675.994c-1.562,1.562-4.096,1.564-5.639-.018-1.18-1.209-2.35-2.429-3.511-3.657-1.517-1.606-1.412-4.138.213-5.635l24.695-22.756c1.625-1.497,4.153-1.392,5.673.211.774.815,1.552,1.626,2.336,2.432c1.539,1.585,1.541,4.115-.021,5.677l-23.746,23.746Z" transform="translate(.000001 0)" fill="#fff"/></mask></g><g mask="url(#ecGYCb2UTkl232)"><path d="M178.891,610.55c-1.913,1.105-4.361.45-5.442-1.476-.827-1.475-1.642-2.955-2.445-4.442-1.05-1.944-.293-4.363,1.664-5.388l29.744-15.589c1.956-1.026,4.371-.27,5.425,1.672.536.988,1.078,1.973,1.626,2.954c1.077,1.929.424,4.374-1.489,5.478L178.891,610.55Z" fill="none" stroke="#444274" stroke-width="40"/><mask id="ecGYCb2UTkl232" mask-type="luminance"><path d="M178.891,610.55c-1.913,1.105-4.361.45-5.442-1.476-.827-1.475-1.642-2.955-2.445-4.442-1.05-1.944-.293-4.363,1.664-5.388l29.744-15.589c1.956-1.026,4.371-.27,5.425,1.672.536.988,1.078,1.973,1.626,2.954c1.077,1.929.424,4.374-1.489,5.478L178.891,610.55Z" transform="translate(.000001 0)" fill="#fff"/></mask></g><g mask="url(#ecGYCb2UTkl236)"><path d="M193.705,633.796c-1.809,1.267-4.306.829-5.55-.996-.952-1.397-1.893-2.801-2.823-4.212-1.215-1.845-.672-4.32,1.188-5.513l28.272-18.122c1.86-1.192,4.332-.649,5.55,1.194.62.937,1.246,1.871,1.878,2.801c1.24,1.827.803,4.32-1.006,5.587l-27.509,19.261Z" fill="none" stroke="#444274" stroke-width="40"/><mask id="ecGYCb2UTkl236" mask-type="luminance"><path d="M193.705,633.796c-1.809,1.267-4.306.829-5.55-.996-.952-1.397-1.893-2.801-2.823-4.212-1.215-1.845-.672-4.32,1.188-5.513l28.272-18.122c1.86-1.192,4.332-.649,5.55,1.194.62.937,1.246,1.871,1.878,2.801c1.24,1.827.803,4.32-1.006,5.587l-27.509,19.261Z" fill="#fff"/></mask></g></g></g><g id="ecGYCb2UTkl238_tr" transform="translate(453,459.003699) rotate(0)"><g transform="translate(-452.999995,-459.003684)" mask="url(#ecGYCb2UTkl240)"><path d="M732.547,454.051c8.284,0,15.039,6.721,14.622,14.995-2.931,58.095-22.843,114.182-57.429,161.225s-82.18,82.778-136.757,102.904c-7.772,2.867-16.203-1.576-18.674-9.484l-13.074-41.839c-2.471-7.907,1.959-16.273,9.683-19.268c39.574-15.347,74.07-41.684,99.334-76.048s40.113-75.146,42.957-117.496c.555-8.265,7.219-14.989,15.503-14.989h43.835Z" fill="none" stroke="#726fc0" stroke-width="80" stroke-opacity="0.7"/><mask id="ecGYCb2UTkl240" mask-type="luminance"><path d="M732.547,454.051c8.284,0,15.039,6.721,14.622,14.995-2.931,58.095-22.843,114.182-57.429,161.225s-82.18,82.778-136.757,102.904c-7.772,2.867-16.203-1.576-18.674-9.484l-13.074-41.839c-2.471-7.907,1.959-16.273,9.683-19.268c39.574-15.347,74.07-41.684,99.334-76.048s40.113-75.146,42.957-117.496c.555-8.265,7.219-14.989,15.503-14.989h43.835Z" transform="translate(.000001 0.000001)" fill="#fff"/></mask></g></g></svg>